<svg width="287" height="80" viewBox="0 0 287 80" fill="none" xmlns="http://www.w3.org/2000/svg">
<path d="M20 80L0 58.6667V0H266.667L286.667 21.3333V80H20Z" fill="#284636"/>
<path d="M260 6.66675V52.0001H6.6665V6.66675H260Z" fill="white"/>
<path d="M108.069 23.0938C109.526 23.0938 110.789 23.3959 111.855 24.0001C112.94 24.5867 113.794 25.4222 114.417 26.5066C115.039 27.591 115.376 28.8722 115.43 30.3477H111.562C111.331 29.2633 110.914 28.4266 110.31 27.8399C109.705 27.2356 108.949 26.9337 108.043 26.9337C106.869 26.9337 105.945 27.3699 105.269 28.241C104.612 29.0942 104.282 30.3115 104.282 31.8933C104.282 33.4044 104.602 34.5786 105.242 35.4141C105.9 36.2497 106.798 36.6667 107.936 36.6667C108.736 36.6667 109.411 36.4182 109.962 35.9207C110.531 35.4229 110.949 34.7205 111.216 33.8139H115.109C115.003 35.1826 114.629 36.3736 113.989 37.3868C113.367 38.3823 112.532 39.156 111.483 39.7071C110.452 40.2404 109.269 40.5066 107.936 40.5066C106.354 40.5066 104.967 40.1608 103.776 39.4675C102.603 38.7564 101.696 37.7605 101.056 36.4806C100.434 35.1828 100.122 33.6533 100.122 31.8933C100.122 30.0802 100.443 28.5243 101.083 27.2266C101.741 25.9116 102.665 24.8986 103.855 24.1876C105.046 23.4587 106.451 23.0939 108.069 23.0938Z" fill="#284636"/>
<path fill-rule="evenodd" clip-rule="evenodd" d="M133.354 23.0938C134.865 23.0938 136.155 23.4313 137.221 24.1069C138.288 24.7824 139.105 25.7605 139.674 27.0404C140.261 28.3027 140.555 29.85 140.555 31.6811C140.555 31.9653 140.537 32.2318 140.501 32.4806C140.483 32.7292 140.466 32.9601 140.448 33.1733H129.927C130.054 34.1423 130.314 34.9255 130.715 35.5209C131.301 36.3739 132.217 36.8008 133.461 36.8009C134.172 36.8009 134.795 36.6404 135.328 36.3204C135.879 35.9827 136.35 35.5118 136.741 34.9076H140.901C140.545 36.0985 140.012 37.1113 139.301 37.9467C138.59 38.7822 137.728 39.4228 136.715 39.8673C135.719 40.2939 134.598 40.5066 133.354 40.5066C131.754 40.5065 130.377 40.1607 129.221 39.4675C128.083 38.7742 127.203 37.7688 126.581 36.4532C125.976 35.1378 125.674 33.5557 125.674 31.7071C125.674 29.9471 125.986 28.4272 126.608 27.1472C127.248 25.8495 128.145 24.8536 129.301 24.1602C130.456 23.4492 131.808 23.0939 133.354 23.0938ZM133.354 26.8009C132.199 26.801 131.319 27.2361 130.715 28.1069C130.353 28.6329 130.103 29.2912 129.965 30.0808H136.627C136.496 29.2337 136.251 28.5491 135.888 28.0274C135.337 27.2096 134.492 26.8009 133.354 26.8009Z" fill="#284636"/>
<path fill-rule="evenodd" clip-rule="evenodd" d="M184.298 23.0938C185.898 23.0938 187.285 23.4492 188.458 24.1602C189.631 24.8713 190.538 25.8757 191.178 27.1733C191.818 28.471 192.138 30.0183 192.138 31.8139C192.138 33.5916 191.818 35.1294 191.178 36.4272C190.538 37.7249 189.631 38.7291 188.458 39.4402C187.303 40.1513 185.916 40.5066 184.298 40.5066C182.698 40.5066 181.311 40.1513 180.138 39.4402C178.965 38.7291 178.058 37.7248 177.418 36.4272C176.778 35.1294 176.458 33.5916 176.458 31.8139C176.458 30.0183 176.778 28.471 177.418 27.1733C178.058 25.8757 178.965 24.8713 180.138 24.1602C181.311 23.4491 182.698 23.0939 184.298 23.0938ZM184.298 26.9337C183.143 26.9337 182.236 27.3603 181.578 28.2136C180.938 29.067 180.618 30.2672 180.618 31.8139C180.618 33.3426 180.938 34.5335 181.578 35.3868C182.236 36.2401 183.143 36.6667 184.298 36.6667C185.471 36.6667 186.378 36.2401 187.018 35.3868C187.658 34.5335 187.978 33.3426 187.978 31.8139C187.978 30.2672 187.658 29.067 187.018 28.2136C186.378 27.3604 185.471 26.9337 184.298 26.9337Z" fill="#284636"/>
<path fill-rule="evenodd" clip-rule="evenodd" d="M56.1118 23.0938C58.3873 23.0938 60.1295 23.6275 61.3384 24.6941C62.5472 25.7429 63.1521 27.2714 63.1522 29.28V40.0001H58.9386V38.3738H57.9517C57.6317 39.0315 57.1693 39.5378 56.5649 39.8933C55.9605 40.231 55.1785 40.4011 54.2186 40.4011C53.2233 40.4011 52.3436 40.2048 51.5793 39.8139C50.8148 39.405 50.2182 38.8453 49.7915 38.1342C49.3649 37.4054 49.1523 36.5697 49.1522 35.6277C49.1522 34.1878 49.5967 33.0231 50.4855 32.1342C51.3922 31.2453 52.6899 30.6678 54.3787 30.4011L58.9386 29.6733V29.6003C58.9386 28.6938 58.6986 28.0092 58.2186 27.547C57.7564 27.0672 57.0455 26.827 56.0858 26.8269C55.4458 26.8269 54.8765 26.9339 54.3787 27.1472C53.881 27.3605 53.4804 27.6719 53.1782 28.0808C52.8762 28.4718 52.6716 28.9523 52.5649 29.5209H48.4061C48.5305 28.1876 48.9215 27.0408 49.5793 26.0808C50.237 25.1209 51.1165 24.3828 52.2186 23.8673C53.3385 23.3518 54.6364 23.0939 56.1118 23.0938ZM55.3123 33.4402C54.7436 33.529 54.299 33.7336 53.979 34.0535C53.6768 34.3557 53.5259 34.7384 53.5259 35.2006C53.5259 35.6983 53.6851 36.0989 54.005 36.4011C54.3428 36.6855 54.8231 36.8269 55.4452 36.8269C56.1028 36.8269 56.6901 36.6855 57.2056 36.4011C57.7389 36.1167 58.1559 35.7423 58.4582 35.28C58.7782 34.8 58.9386 34.276 58.9386 33.7071V32.8972L55.3123 33.4402Z" fill="#284636"/>
<path fill-rule="evenodd" clip-rule="evenodd" d="M235.349 23.0938C237.624 23.0939 239.367 23.6275 240.575 24.6941C241.784 25.7429 242.389 27.2715 242.389 29.28V40.0001H238.176V38.3738H237.189C236.869 39.0315 236.406 39.5378 235.802 39.8933C235.198 40.2311 234.415 40.4011 233.456 40.4011C232.46 40.4011 231.579 40.205 230.815 39.8139C230.051 39.405 229.455 38.8451 229.028 38.1342C228.602 37.4054 228.389 36.5697 228.389 35.6277C228.389 34.1877 228.834 33.0231 229.722 32.1342C230.629 31.2454 231.927 30.6678 233.616 30.4011L238.176 29.6733V29.6003C238.176 28.6938 237.936 28.0092 237.456 27.547C236.993 27.067 236.281 26.8269 235.321 26.8269C234.682 26.827 234.113 26.934 233.616 27.1472C233.118 27.3606 232.717 27.6719 232.415 28.0808C232.113 28.4719 231.909 28.9521 231.802 29.5209H227.642C227.766 28.1877 228.157 27.0407 228.815 26.0808C229.473 25.1208 230.353 24.3828 231.456 23.8673C232.576 23.3518 233.873 23.0938 235.349 23.0938ZM234.548 33.4402C233.979 33.5291 233.535 33.7336 233.215 34.0535C232.913 34.3557 232.762 34.7384 232.762 35.2006C232.762 35.6983 232.922 36.0989 233.242 36.4011C233.58 36.6854 234.06 36.8269 234.682 36.8269C235.34 36.8269 235.927 36.6855 236.443 36.4011C236.976 36.1167 237.393 35.7422 237.695 35.28C238.015 34.8001 238.176 34.2759 238.176 33.7071V32.8972L234.548 33.4402Z" fill="#284636"/>
<path fill-rule="evenodd" clip-rule="evenodd" d="M31.3605 18.6667C33.5647 18.6668 35.2797 19.1827 36.5063 20.2136C37.733 21.227 38.3475 22.6494 38.3475 24.4806C38.3474 25.4047 38.0977 26.231 37.6001 26.9597C37.1023 27.6708 36.4 28.2044 35.4933 28.56V28.9871C36.5244 29.3426 37.3242 29.9559 37.8931 30.8269C38.4797 31.6802 38.7733 32.7118 38.7733 33.9207C38.7731 35.8226 38.1243 37.3155 36.8267 38.3998C35.5289 39.4665 33.7333 40.0001 31.4399 40.0001H23.7603V18.6667H31.3605ZM28.2668 35.8139H31.3866C32.3287 35.8139 33.0489 35.6177 33.5467 35.2266C34.0623 34.8178 34.3202 34.2485 34.3202 33.5196C34.32 32.7732 34.0622 32.1953 33.5467 31.7865C33.0489 31.36 32.3286 31.1472 31.3866 31.1472H28.2668V35.8139ZM28.2668 27.3074H31.3071C32.2315 27.3073 32.9339 27.1195 33.4139 26.7462C33.9113 26.3552 34.1599 25.8045 34.16 25.0938C34.16 24.3828 33.9115 23.8313 33.4139 23.4402C32.9339 23.0491 32.2315 22.853 31.3071 22.8529H28.2668V27.3074Z" fill="#284636"/>
<path d="M86.0376 23.1199C87.3353 23.1199 88.3135 23.6179 88.9712 24.6134C89.6466 25.5911 89.9842 27.04 89.9842 28.9597V31.6003H85.5845V29.5196C85.5844 28.0265 85.0329 27.2801 83.9308 27.28C83.2199 27.28 82.6957 27.5999 82.3579 28.2397C82.0201 28.8797 81.8501 29.8577 81.8501 31.1733V36.1602H86.4907V40.0001H74.9438V36.1602H77.6912V27.4402H74.6235V23.6003H81.6912V25.0938H82.6769C82.9791 24.4718 83.4239 23.9915 84.0103 23.6537C84.6147 23.2982 85.2909 23.1199 86.0376 23.1199Z" fill="#284636"/>
<path d="M211.957 23.0938C213.041 23.0939 213.966 23.3517 214.73 23.8673C215.495 24.3827 216.081 25.1294 216.489 26.1069C216.898 27.0668 217.104 28.2315 217.104 29.6003V40.0001H212.784V30.6667C212.784 29.4936 212.552 28.614 212.09 28.0274C211.627 27.423 210.943 27.1199 210.036 27.1199C209.112 27.12 208.419 27.4231 207.957 28.0274C207.495 28.614 207.263 29.4937 207.263 30.6667V40.0001H202.944V23.6003H207.263V25.0938H208.25C208.605 24.4717 209.103 23.9832 209.743 23.6277C210.383 23.2721 211.121 23.0938 211.957 23.0938Z" fill="#284636"/>
<path d="M161.333 36.1589H166.133V39.9988H152.186V36.1589H157.013V21.2253H152.186V17.3855H161.333V36.1589Z" fill="#284636"/>
</svg>
