<svg width="720" height="240" viewBox="0 0 720 240" fill="none" xmlns="http://www.w3.org/2000/svg">
<path d="M104.971 119.517C104.799 158.967 104.833 185.957 105.006 186.13C105.178 186.303 109.907 186.406 115.843 186.372L126.336 186.268V150.028V113.787L135.241 110.198L144.111 106.643V90.0068V73.4052L138.485 70.506C135.413 68.9183 126.716 64.3969 119.191 60.4277C111.667 56.4586 105.455 53.2142 105.351 53.2142C105.282 53.2142 105.109 83.0348 104.971 119.517Z" fill="white"/>
<path d="M196.435 131.7C196.262 161.418 196.262 185.888 196.4 186.061C196.538 186.303 200.231 186.441 207.48 186.441H218.317V175.085C218.317 166.319 218.421 163.696 218.766 163.557C218.973 163.454 221.734 162.211 224.875 160.796L230.57 158.208L230.673 126.799L230.742 95.3911L213.899 86.5553C204.615 81.6888 196.953 77.7196 196.849 77.7196C196.746 77.7196 196.573 102.018 196.435 131.7Z" fill="white"/>
<path d="M156.536 144.16V186.441H162.404H168.271V176.949V167.423L173.966 164.627L179.661 161.832V137.913V113.96L178.902 113.511C177.866 112.89 156.847 101.88 156.674 101.88C156.605 101.88 156.536 120.897 156.536 144.16Z" fill="white"/>
<path d="M60.7233 113.339L46.1926 119.172L45.951 135.773C45.813 144.885 45.7785 152.409 45.8475 152.478C45.9165 152.547 50.3689 150.822 55.7532 148.647C61.1375 146.473 65.5899 144.678 65.6589 144.678C65.6934 144.678 65.7624 154.135 65.7624 165.732V186.786H79.0161C86.2641 186.786 93.2016 186.682 94.3751 186.579L96.4805 186.337V168.355V150.338L86.4022 145.506L76.2894 140.674L76.1859 124.038C76.1168 111.061 76.0133 107.402 75.6682 107.437C75.4611 107.471 68.7307 110.129 60.7233 113.339Z" fill="white"/>
<path d="M417.467 124.142C407.458 126.144 399.623 132.011 395.343 140.709C392.961 145.61 392.133 149.234 392.168 154.86C392.202 160.486 393.203 164.696 395.55 169.08C398.691 175.016 402.867 178.986 408.976 181.954C414.533 184.646 417.467 185.233 424.887 185.233C430.237 185.233 431.514 185.095 434.137 184.404C439.349 183.058 444.733 180.573 448.461 177.778L450.256 176.397V162.971V149.51H436.622H422.989V155.55V161.59H428.857H434.724V165.249V168.873L432.895 169.701C429.616 171.22 425.267 171.668 421.539 170.875C416.915 169.908 412.773 166.698 410.736 162.488C408.286 157.483 408.355 152.099 410.909 146.887C413.946 140.674 419.641 137.671 426.82 138.465C430.134 138.845 432.688 139.811 435.967 141.951C437.968 143.263 438.693 143.573 439.038 143.297C439.591 142.849 447.978 132.667 448.116 132.322C448.254 131.942 445.113 129.63 442.11 127.904C439.004 126.144 435.173 124.798 431.342 124.142C428.028 123.52 420.47 123.555 417.467 124.142Z" fill="white"/>
<path d="M473.933 143.884L457.435 163.385L458.401 167.147L459.402 170.909H474.485H489.602V177.467V184.025H494.434H499.266L499.335 177.536L499.439 171.082L503.684 170.978L507.895 170.875V166.595V162.28H503.581H499.266V143.297V124.314L494.883 124.349H490.465L473.933 143.884ZM489.602 150.718V162.28H479.731H469.86L471.724 160.071C472.725 158.863 477.039 153.652 481.319 148.509C485.599 143.366 489.188 139.156 489.361 139.156C489.499 139.156 489.602 144.367 489.602 150.718Z" fill="white"/>
<path d="M305.294 154.48V184.37H321.447C330.317 184.37 338.877 184.197 340.499 184.025C353.235 182.575 359.551 175.983 358.412 165.352C357.894 160.486 355.064 156.931 349.714 154.377L346.919 153.031L348.437 152.271C350.508 151.201 353.511 148.267 354.477 146.369C355.547 144.264 356.134 140.847 355.858 138.327C355.513 135.152 354.477 132.805 352.406 130.561C350.232 128.214 347.505 126.661 343.709 125.626C341.12 124.901 340.223 124.867 323.173 124.729L305.294 124.625V154.48ZM336.702 138.88C338.808 139.984 339.532 141.088 339.532 143.263C339.532 145.437 338.911 146.473 336.944 147.508C335.598 148.233 334.942 148.302 328.522 148.406L321.516 148.544V143.332V138.12H328.35C334.735 138.12 335.287 138.155 336.702 138.88ZM338.808 160.796C340.844 161.694 341.948 163.212 341.948 165.18C341.983 167.458 341.327 168.735 339.498 169.805L337.91 170.737L329.73 170.84L321.516 170.944V165.352V159.761L329.385 159.933C336.323 160.072 337.393 160.175 338.808 160.796Z" fill="white"/>
<path d="M366.454 154.411L366.558 184.197H374.841H383.125L383.228 154.411L383.297 124.659H374.841H366.385L366.454 154.411Z" fill="white"/>
<path d="M521.356 154.342V184.025H541.029H560.703V182.126V180.228L543.204 180.159L525.67 180.055L525.567 152.34L525.498 124.659H523.427H521.356V154.342Z" fill="white"/>
<path d="M574.854 154.342V184.025H576.924H578.995V154.342V124.659H576.924H574.854V154.342Z" fill="white"/>
<path d="M597.288 154.342V184.025H599.532H601.775V170.564V157.103H618.687H635.599V155.205V153.307H618.687H601.775V141.054V128.801H620.585H639.396V126.73V124.659H618.342H597.288V154.342Z" fill="white"/>
<path d="M653.547 154.342V184.025H674.773H696V182.126V180.228H676.844H657.689V168.148V156.068H674.773H691.858V154.169V152.271H674.773H657.689V140.536V128.801H676.672H695.655V126.73V124.659H674.601H653.547V154.342Z" fill="white"/>
<path d="M31.3171 160.451L24 163.765V175.085V186.441H31.4206H38.8413V171.772C38.8413 163.696 38.8068 157.103 38.7723 157.138C38.7032 157.138 35.3553 158.656 31.3171 160.451Z" fill="white"/>
<path d="M240.234 169.252C240.096 175.776 240.061 182.264 240.13 183.68L240.234 186.268L246.619 186.372C250.139 186.441 254.902 186.372 257.249 186.268L261.46 186.027V176.639V167.285L251.175 162.349C245.515 159.657 240.786 157.448 240.682 157.448C240.579 157.448 240.372 162.764 240.234 169.252Z" fill="white"/>
</svg>
