<svg width="320" height="240" viewBox="0 0 320 240" fill="none" xmlns="http://www.w3.org/2000/svg">
<path d="M124.613 68.1968V126.26H133.982H143.351V94.6273V63.0191L151.068 59.9125L158.761 56.806L158.834 42.4072L158.884 27.9838L147.493 22.0172C141.206 18.7381 133.538 14.7192 130.456 13.092C127.35 11.4647 124.761 10.1333 124.711 10.1333C124.662 10.1333 124.613 36.268 124.613 68.1968Z" fill="white"/>
<path d="M204.496 46.9192C204.496 55.376 204.422 76.6782 204.324 94.2575L204.176 126.26H213.816H223.481L223.53 116.349L223.604 106.462L228.905 104.07L234.206 101.679L234.255 74.336L234.329 46.9931L227.007 43.1715C222.988 41.0758 216.356 37.5994 212.287 35.4791C208.195 33.334 204.792 31.5835 204.694 31.5835C204.57 31.5835 204.496 38.487 204.496 46.9192Z" fill="white"/>
<path d="M169.732 89.425V126.26H174.91H180.087V117.902V109.568L184.895 107.251L189.703 104.958V83.9762V63.0191L181.986 59.0003C177.77 56.806 173.258 54.4637 172.025 53.798L169.732 52.5652V89.425Z" fill="white"/>
<path d="M86.1509 62.6246L73.4534 67.7283L73.2562 82.1024C73.1329 90.0167 73.1082 96.5504 73.2069 96.6244C73.2808 96.6984 77.0284 95.293 81.5404 93.4932C86.0276 91.6933 89.8739 90.1647 90.0465 90.0907C90.2684 89.9921 90.3423 93.7151 90.3423 108.237V126.507H103.903H117.463L117.414 110.703L117.34 94.8739L108.464 90.6331L99.5881 86.3924L99.5141 71.9443C99.4648 60.5782 99.3909 57.4716 99.1443 57.4963C98.9964 57.5209 93.1284 59.8386 86.1509 62.6246Z" fill="white"/>
<path d="M60.5085 103.701L54.2214 106.511L54.1475 116.373L54.0981 126.26H60.5579H67.0422L66.9683 118.075C66.9436 113.563 66.8943 107.843 66.845 105.377L66.7957 100.89L60.5085 103.701Z" fill="white"/>
<path d="M242.638 108.706C242.54 112.971 242.466 118.691 242.466 121.378V126.26H251.835H261.204V117.927L261.179 109.618L253.166 105.796C248.778 103.701 244.635 101.728 243.97 101.432L242.786 100.914L242.638 108.706Z" fill="white"/>
<path d="M97.5906 163.588C92.5116 164.575 88.7886 166.374 85.4355 169.506C80.8249 173.87 78.4827 179.417 78.458 186.049C78.458 190.685 79.4442 194.334 81.7618 198.18C83.6356 201.336 87.8024 204.911 91.4514 206.513C94.41 207.845 97.0975 208.387 101.092 208.535C105.579 208.708 107.995 208.412 111.472 207.253C114.48 206.242 116.427 205.305 119.139 203.505L121.161 202.174V192.189V182.228H111.176H101.19V186.666V191.104H105.505H109.82V193.816V196.528L108.809 197.046C107.453 197.711 104.913 198.254 102.867 198.254C95.8647 198.279 90.835 193.15 90.835 186.025C90.835 181.439 93.4485 177.1 97.418 175.152C99.1192 174.313 99.5137 174.215 101.683 174.141C102.99 174.092 104.667 174.166 105.431 174.313C107.132 174.683 109.82 175.941 111.373 177.149C112.285 177.839 112.655 177.987 112.902 177.79C113.321 177.42 119.534 169.949 119.633 169.654C119.78 169.259 116.649 167.163 113.888 165.807C110.165 164.008 107.921 163.49 103.163 163.366C100.574 163.293 98.774 163.366 97.5906 163.588Z" fill="white"/>
<path d="M139.036 177.691C132.527 185.359 127.054 191.844 126.857 192.115C126.561 192.534 126.61 192.928 127.227 195.295L127.942 198.007H138.963H150.008V202.938V207.87H153.706H157.405V202.938V198.007H160.487H163.569V194.925V191.868L160.561 191.794L157.528 191.72L157.454 177.716L157.405 163.736H154.126H150.871L139.036 177.691ZM150.008 183.214V191.844H143.031C139.184 191.844 135.979 191.77 135.881 191.696C135.782 191.572 149.737 174.585 149.934 174.585C149.983 174.585 150.008 178.456 150.008 183.214Z" fill="white"/>
<path d="M14.6499 185.902V207.87H26.5585C33.0921 207.87 39.4532 207.746 40.6613 207.623C48.1812 206.785 52.7178 203.259 53.6301 197.539C53.9999 195.295 53.6301 192.559 52.7178 190.685C51.8795 188.959 49.7838 187.11 47.4169 185.976C46.3567 185.482 45.4691 185.014 45.4691 184.94C45.4691 184.866 45.9376 184.546 46.5047 184.225C48.0333 183.362 50.129 181.291 50.77 180.009C51.8795 177.79 52.1507 175.004 51.485 172.489C50.4742 168.544 47.6142 166.029 42.6338 164.673C40.76 164.18 40.0696 164.131 27.6679 164.032L14.6499 163.934V185.902ZM37.7027 174.387C39.2313 175.226 39.6751 175.965 39.6751 177.667C39.6751 179.072 39.6012 179.319 38.9355 180.009C37.7767 181.217 36.396 181.488 31.1197 181.488H26.4845V177.642V173.796L31.7361 173.894C36.0015 173.968 37.0863 174.042 37.7027 174.387ZM39.182 190.586C39.7491 190.833 40.4887 191.4 40.8586 191.819C41.4257 192.509 41.5243 192.854 41.5243 194.112C41.5243 195.493 41.475 195.665 40.5874 196.528C40.0696 197.046 39.2313 197.588 38.6889 197.736C38.0972 197.884 35.4344 198.007 32.1059 198.007H26.4845V194.062V190.118H32.3525C37.4808 190.118 38.3191 190.192 39.182 190.586Z" fill="white"/>
<path d="M59.695 164.156C59.5964 164.229 59.5225 174.116 59.5225 186.099V207.87H65.6863H71.8502V185.926V163.983H65.8589C62.5551 163.983 59.769 164.057 59.695 164.156Z" fill="white"/>
<path d="M173.431 186.049V207.87H187.854H202.277V206.39V204.911H189.457H176.636V184.57V164.229H175.033H173.431V186.049Z" fill="white"/>
<path d="M212.633 186.049V207.87H214.235H215.838V186.049V164.229H214.235H212.633V186.049Z" fill="white"/>
<path d="M229.398 186.049V207.87H231.001H232.604V197.884V187.899H245.055H257.506V186.543V185.187L245.129 185.137L232.727 185.063V176.064V167.065L246.485 166.991L260.218 166.942V165.586V164.229H244.808H229.398V186.049Z" fill="white"/>
<path d="M270.573 186.049V207.87H286.229H301.885V206.39V204.911H287.832H273.778V196.035V187.159H286.352H298.926V185.803V184.447H286.352H273.778V175.694V166.942H287.708H301.639V165.586V164.229H286.106H270.573V186.049Z" fill="white"/>
<path d="M88.0242 219.753C86.7421 220.099 85.0409 221.775 84.6957 223.033C83.6109 226.953 85.8052 230.059 89.6022 230.059C91.1308 230.059 92.5608 229.616 93.3498 228.901C93.7196 228.58 93.7936 228.112 93.7936 226.435V224.389H91.6979C89.6268 224.389 89.6022 224.389 89.6022 225.005C89.6022 225.597 89.6761 225.621 91.0815 225.621H92.5608V226.928C92.5608 228.186 92.5362 228.259 91.6979 228.654C90.5884 229.196 88.8132 229.196 87.7284 228.679C85.0902 227.421 84.967 222.86 87.5311 221.183C88.5173 220.518 90.687 220.518 91.7718 221.183C92.4375 221.578 92.6841 221.627 92.9553 221.405C93.4977 220.961 93.3744 220.74 92.3389 220.222C91.1555 219.605 89.2816 219.408 88.0242 219.753Z" fill="white"/>
<path d="M146.655 219.679C143.129 220.542 141.6 224.906 143.721 228.112C145.151 230.306 149.071 230.75 151.561 229.024C152.227 228.555 152.251 228.481 152.177 226.534L152.104 224.512L149.958 224.438L147.789 224.364V225.005C147.789 225.597 147.838 225.621 149.391 225.621H150.994V226.854C150.994 227.914 150.895 228.136 150.353 228.506C149.958 228.753 149.046 228.975 148.183 229.024C146.926 229.098 146.556 229.024 145.841 228.531C143.326 226.829 143.302 222.934 145.816 221.257C146.926 220.493 148.997 220.468 150.205 221.233C151.043 221.75 151.068 221.75 151.389 221.307C151.684 220.912 151.66 220.814 151.216 220.493C150.575 220.049 148.627 219.458 147.937 219.482C147.641 219.507 147.074 219.581 146.655 219.679Z" fill="white"/>
<path d="M220.868 219.679C217.342 220.542 215.813 224.906 217.934 228.112C219.364 230.306 223.284 230.75 225.774 229.024C226.44 228.555 226.464 228.481 226.39 226.534L226.316 224.512L224.171 224.438L222.002 224.364V225.005C222.002 225.597 222.051 225.621 223.604 225.621H225.207V226.854C225.207 227.914 225.108 228.136 224.566 228.506C224.171 228.753 223.259 228.975 222.396 229.024C221.139 229.098 220.769 229.024 220.054 228.531C217.539 226.829 217.514 222.934 220.029 221.257C221.114 220.518 222.988 220.493 224.344 221.208C225.256 221.701 225.306 221.701 225.626 221.282C225.897 220.912 225.873 220.789 225.429 220.493C224.788 220.049 222.84 219.458 222.15 219.482C221.854 219.507 221.287 219.581 220.868 219.679Z" fill="white"/>
<path d="M15.8823 224.906V230.109L18.9149 230.01C22.416 229.911 23.3529 229.566 23.92 228.161C24.3884 227.076 24.0186 225.794 23.0817 225.202C22.7119 224.98 22.3913 224.758 22.342 224.734C22.2927 224.709 22.5393 224.389 22.8845 224.019C23.6488 223.205 23.7474 221.849 23.131 220.961C22.4653 220.025 21.3065 219.704 18.4711 219.704H15.8823V224.906ZM21.2325 220.937C22.1201 221.257 22.6132 222.17 22.3174 222.983C21.8982 224.043 21.3805 224.265 19.1122 224.265H16.9918L16.9179 222.465L16.8439 220.69H18.6684C19.6793 220.69 20.8381 220.814 21.2325 220.937ZM22.416 225.991C24.1665 227.717 22.0955 229.246 18.3479 229.024L16.9918 228.95L16.9179 227.15L16.8439 225.375H19.3341C21.6517 225.375 21.8736 225.424 22.416 225.991Z" fill="white"/>
<path d="M27.2734 223.624C27.3474 227.988 27.4707 228.333 29.1965 229.517C30.3553 230.281 32.7223 230.281 33.8811 229.492C35.4837 228.432 35.7302 227.668 35.8042 223.452L35.9028 219.704H35.2618H34.6207V223.279C34.6207 226.016 34.5221 227.051 34.2509 227.594C33.24 229.542 29.8376 229.542 28.8267 227.594C28.5555 227.051 28.4569 226.016 28.4569 223.279V219.704H27.8158H27.1748L27.2734 223.624Z" fill="white"/>
<path d="M39.5518 224.882V230.059H40.1681H40.7845V224.882V219.704H40.1681H39.5518V224.882Z" fill="white"/>
<path d="M44.7295 224.882V230.059H48.1812H51.633V229.443V228.827H48.6744H45.7157V224.265C45.7157 219.877 45.6911 219.704 45.2226 219.704C44.7541 219.704 44.7295 219.877 44.7295 224.882Z" fill="white"/>
<path d="M54.5913 224.906V230.133L57.2541 230.01C59.2758 229.911 60.1141 229.788 60.8784 229.394C64.0097 227.766 64.7 223.895 62.2838 221.381C61.1003 220.148 59.695 219.704 56.8843 219.704H54.5913V224.906ZM60.4593 221.282C60.8784 221.504 61.5441 222.12 61.8893 222.663C62.4564 223.501 62.5303 223.846 62.4317 225.079C62.2345 227.742 60.8784 228.827 57.6979 228.827H55.8241V224.734V220.616L57.7472 220.74C58.832 220.814 59.9908 221.035 60.4593 221.282Z" fill="white"/>
<path d="M67.1655 224.882V230.059H67.7819H68.3983V224.882V219.704H67.7819H67.1655V224.882Z" fill="white"/>
<path d="M72.3433 224.882C72.3433 229.862 72.3679 230.059 72.8364 230.059C73.3048 230.059 73.3295 229.862 73.3788 225.819L73.4528 221.603L76.7566 225.769C78.5564 228.062 80.2576 229.961 80.5042 230.01C80.948 230.084 80.9726 229.837 80.9726 224.906C80.9726 219.901 80.948 219.704 80.4795 219.704C80.0111 219.704 79.9864 219.901 79.9371 223.822L79.8632 227.939L76.658 223.822C74.2417 220.74 73.3048 219.729 72.9103 219.704H72.3433V224.882Z" fill="white"/>
<path d="M104.396 224.882C104.396 229.887 104.42 230.059 104.889 230.059C105.357 230.059 105.382 229.887 105.382 224.882C105.382 219.877 105.357 219.704 104.889 219.704C104.42 219.704 104.396 219.877 104.396 224.882Z" fill="white"/>
<path d="M109.327 224.882V230.059H109.943H110.559V225.843V221.603L113.913 225.843C116.181 228.703 117.414 230.059 117.734 230.059C118.178 230.059 118.203 229.837 118.203 224.882V219.704H117.586H116.97V223.822V227.914L113.715 223.822C111.176 220.592 110.362 219.704 109.894 219.704H109.327V224.882Z" fill="white"/>
<path d="M121.161 220.197C121.161 220.641 121.334 220.69 122.887 220.69H124.613V225.375V230.059H125.229H125.846V225.375V220.69H127.572C129.125 220.69 129.297 220.641 129.297 220.197C129.297 219.729 129.125 219.704 125.229 219.704C121.334 219.704 121.161 219.729 121.161 220.197Z" fill="white"/>
<path d="M132.503 224.882V230.059H136.201H139.9V229.443V228.827H136.694H133.489V227.101V225.375H136.325C138.987 225.375 139.16 225.35 139.16 224.882C139.16 224.438 138.963 224.389 136.398 224.339L133.612 224.265V222.539V220.814L136.768 220.74C139.702 220.69 139.9 220.641 139.9 220.197C139.9 219.729 139.727 219.704 136.201 219.704H132.503V224.882Z" fill="white"/>
<path d="M155.679 224.882V230.059H156.295C156.911 230.059 156.911 230.035 156.911 228.087V226.114H158.366H159.821L161.275 228.087C162.459 229.714 162.829 230.035 163.396 230.059C164.209 230.059 164.234 230.133 162.385 227.643C161.645 226.657 161.078 225.819 161.128 225.794C161.177 225.745 161.547 225.621 161.966 225.473C162.878 225.178 163.815 223.822 163.815 222.786C163.815 221.701 162.878 220.394 161.843 220.025C161.374 219.852 159.796 219.729 158.341 219.729L155.679 219.704V224.882ZM161.966 221.43C162.829 222.219 162.804 223.476 161.941 224.265C161.349 224.832 161.078 224.882 159.106 224.882H156.911V222.761V220.641L159.13 220.74C161.029 220.838 161.423 220.912 161.966 221.43Z" fill="white"/>
<path d="M170.497 220.74C170.25 221.331 169.387 223.18 168.623 224.882C167.858 226.583 166.996 228.432 166.749 228.999L166.305 230.059H166.848C167.291 230.059 167.563 229.739 168.08 228.703L168.746 227.347H171.557H174.392L175.009 228.703C175.452 229.714 175.748 230.059 176.118 230.059C176.414 230.059 176.636 229.985 176.636 229.862C176.636 229.763 175.625 227.446 174.392 224.684C172.37 220.222 172.05 219.704 171.532 219.704C171.088 219.704 170.842 219.951 170.497 220.74ZM173.652 225.794C173.677 226.04 173.085 226.114 171.458 226.114H169.264L169.708 225.054C169.954 224.487 170.472 223.353 170.842 222.539L171.507 221.06L172.568 223.279C173.159 224.487 173.652 225.646 173.652 225.794Z" fill="white"/>
<path d="M177.622 220.197C177.622 220.641 177.795 220.69 179.348 220.69H181.074V225.375V230.059H181.69H182.307V225.375V220.69H184.032C185.586 220.69 185.758 220.641 185.758 220.197C185.758 219.729 185.586 219.704 181.69 219.704C177.795 219.704 177.622 219.729 177.622 220.197Z" fill="white"/>
<path d="M188.963 224.882V230.059H192.662H196.36V229.443V228.827H193.155H189.95V227.101V225.375H192.785C195.448 225.375 195.62 225.35 195.62 224.882C195.62 224.438 195.423 224.389 192.859 224.339L190.073 224.265V222.539V220.814L193.229 220.74C196.163 220.69 196.36 220.641 196.36 220.197C196.36 219.729 196.187 219.704 192.662 219.704H188.963V224.882Z" fill="white"/>
<path d="M199.565 224.906V230.133L202.228 230.01C205.039 229.887 206.272 229.492 207.381 228.284C209.206 226.336 209.058 223.008 207.061 221.134C205.951 220.099 204.497 219.704 201.883 219.704H199.565V224.906ZM205.68 221.479C207.406 222.638 207.948 224.906 206.962 226.854C206.247 228.259 205.014 228.827 202.647 228.827H200.798V224.734V220.616L202.746 220.74C204.324 220.838 204.916 220.986 205.68 221.479Z" fill="white"/>
<path d="M229.892 224.882C229.892 229.887 229.916 230.059 230.385 230.059C230.829 230.059 230.878 229.887 230.878 228.087V226.114H232.456H234.034L235.488 228.087C236.672 229.714 237.042 230.035 237.609 230.059C238.422 230.059 238.447 230.133 236.598 227.643C235.858 226.657 235.291 225.819 235.34 225.769C235.39 225.72 235.784 225.572 236.179 225.449C237.116 225.153 238.028 223.822 238.028 222.786C238.028 221.701 237.091 220.394 236.055 220.025C235.587 219.852 234.009 219.729 232.554 219.729L229.892 219.704V224.882ZM236.179 221.43C236.795 221.997 236.968 222.909 236.647 223.772C236.351 224.512 235.168 224.882 232.974 224.882H230.878V222.959C230.878 221.898 230.952 220.937 231.075 220.838C231.174 220.715 232.209 220.69 233.393 220.74C235.242 220.838 235.636 220.937 236.179 221.43Z" fill="white"/>
<path d="M241.479 224.882V230.059H245.178H248.876V229.443V228.827H245.671H242.466V227.101V225.375H245.301C247.964 225.375 248.136 225.35 248.136 224.882C248.136 224.438 247.939 224.389 245.375 224.339L242.589 224.265V222.539V220.814L245.745 220.74C248.679 220.69 248.876 220.641 248.876 220.197C248.876 219.729 248.704 219.704 245.178 219.704H241.479V224.882Z" fill="white"/>
<path d="M252.081 224.882V230.059H255.903H259.724V229.443V228.827H256.519H253.314V227.101V225.375H256.149C258.812 225.375 258.985 225.35 258.985 224.882C258.985 224.413 258.812 224.389 256.149 224.389H253.314V222.539V220.69H256.519C259.552 220.69 259.724 220.666 259.724 220.197C259.724 219.729 259.552 219.704 255.903 219.704H252.081V224.882Z" fill="white"/>
<path d="M262.93 224.882V230.059H263.546H264.162L264.212 225.942L264.286 221.824L267.54 225.942C269.34 228.21 270.992 230.059 271.189 230.059C271.51 230.059 271.559 229.344 271.559 224.882C271.559 219.901 271.534 219.704 271.066 219.704C270.598 219.704 270.573 219.901 270.524 223.772L270.45 227.84L267.244 223.772C264.803 220.666 263.916 219.704 263.497 219.704H262.93V224.882Z" fill="white"/>
<path d="M275.504 224.882V230.059H279.35H283.172L283.098 229.492C283.024 228.974 282.925 228.95 279.893 228.876L276.737 228.802V227.101V225.375H279.572C282.235 225.375 282.407 225.35 282.407 224.882C282.407 224.413 282.235 224.389 279.572 224.389H276.737V222.539V220.69H279.819C282.728 220.69 282.901 220.666 282.901 220.197C282.901 219.729 282.728 219.704 279.202 219.704H275.504V224.882Z" fill="white"/>
<path d="M286.353 224.882C286.353 229.887 286.377 230.059 286.846 230.059C287.289 230.059 287.339 229.887 287.339 228.087V226.114H288.917H290.495L291.949 228.087C293.133 229.714 293.503 230.035 294.07 230.059C294.883 230.059 294.908 230.133 293.059 227.643C292.319 226.657 291.752 225.819 291.801 225.794C291.851 225.769 292.344 225.523 292.886 225.252C294.218 224.561 294.735 223.304 294.218 221.824C293.946 221.011 293.651 220.69 292.763 220.246C291.826 219.778 291.284 219.704 289.015 219.704H286.353V224.882ZM291.9 221.035C293.626 221.775 293.749 223.723 292.097 224.586C291.801 224.758 290.618 224.882 289.459 224.882H287.339V222.959C287.339 221.898 287.413 220.937 287.511 220.863C287.807 220.542 291.037 220.69 291.9 221.035Z" fill="white"/>
<path d="M296.634 220C296.732 220.173 297.669 221.553 298.73 223.082L300.653 225.819V227.939C300.653 230.035 300.653 230.059 301.269 230.059C301.885 230.059 301.885 230.035 301.885 227.964V225.868L303.981 222.835C305.855 220.173 306.028 219.827 305.584 219.753C304.869 219.63 304.622 219.901 302.97 222.416C302.157 223.624 301.442 224.635 301.343 224.635C301.244 224.635 300.406 223.526 299.494 222.17C298.039 220.025 297.743 219.704 297.127 219.704C296.634 219.704 296.486 219.803 296.634 220Z" fill="white"/>
<path d="M96.7524 225.498C96.7524 226.115 96.7771 226.115 98.8481 226.115C100.919 226.115 100.944 226.115 100.944 225.498C100.944 224.882 100.919 224.882 98.8481 224.882C96.7771 224.882 96.7524 224.882 96.7524 225.498Z" fill="white"/>
</svg>
