<svg width="338" height="240" viewBox="0 0 338 240" fill="none" xmlns="http://www.w3.org/2000/svg">
<path d="M268.31 196.349C268.492 197.094 268.711 197.897 268.968 198.758C269.224 199.618 269.51 200.505 269.825 201.415C270.139 202.325 270.479 203.236 270.842 204.146C271.207 205.056 271.588 205.934 271.985 206.778C272.614 205.04 273.161 203.319 273.624 201.614C274.088 199.91 274.526 198.154 274.94 196.349H277.324C276.728 198.783 276.066 201.122 275.338 203.364C274.609 205.607 273.822 207.705 272.978 209.658C272.647 210.403 272.303 211.044 271.948 211.583C271.591 212.12 271.198 212.564 270.768 212.912C270.338 213.259 269.853 213.516 269.316 213.681C268.778 213.846 268.169 213.929 267.49 213.929C267.308 213.929 267.118 213.917 266.92 213.892C266.722 213.867 266.526 213.835 266.336 213.794C266.146 213.752 265.971 213.706 265.814 213.657C265.657 213.607 265.546 213.565 265.48 213.532L265.901 211.671C266.083 211.753 266.32 211.831 266.609 211.905C266.899 211.98 267.184 212.017 267.466 212.017C268.376 212.017 269.088 211.815 269.601 211.41C270.114 211.004 270.578 210.345 270.992 209.435C269.949 207.449 268.976 205.343 268.074 203.116C267.172 200.89 266.423 198.634 265.827 196.349H268.31ZM133.504 191.656C134.546 191.656 135.494 191.768 136.346 191.991C137.198 192.214 137.824 192.459 138.221 192.724L137.453 194.685C137.105 194.47 136.586 194.259 135.9 194.053C135.214 193.845 134.414 193.741 133.504 193.741C133.04 193.741 132.61 193.791 132.213 193.89C131.816 193.99 131.468 194.139 131.17 194.338C130.872 194.536 130.636 194.789 130.463 195.095C130.289 195.402 130.201 195.761 130.201 196.175C130.201 196.638 130.292 197.028 130.474 197.343C130.656 197.657 130.914 197.934 131.245 198.174C131.575 198.414 131.96 198.633 132.399 198.832C132.837 199.031 133.321 199.229 133.851 199.428C134.596 199.726 135.28 200.024 135.9 200.322C136.521 200.619 137.059 200.976 137.514 201.389C137.969 201.803 138.321 202.296 138.569 202.867C138.818 203.439 138.941 204.13 138.941 204.941C138.941 206.447 138.391 207.606 137.291 208.417C136.19 209.228 134.637 209.634 132.634 209.634C131.956 209.634 131.33 209.589 130.759 209.498C130.189 209.406 129.68 209.299 129.233 209.175C128.786 209.051 128.401 208.917 128.078 208.777C127.755 208.636 127.503 208.516 127.321 208.417L128.041 206.43C128.421 206.645 129.001 206.886 129.779 207.151C130.557 207.416 131.509 207.548 132.634 207.548C135.15 207.548 136.409 206.688 136.409 204.966C136.409 204.436 136.297 203.985 136.074 203.612C135.85 203.24 135.548 202.917 135.168 202.643C134.787 202.371 134.352 202.135 133.864 201.936C133.376 201.738 132.858 201.538 132.312 201.34C131.684 201.125 131.087 200.88 130.524 200.607C129.962 200.334 129.473 200.011 129.059 199.639C128.646 199.267 128.317 198.823 128.078 198.31C127.838 197.798 127.719 197.177 127.718 196.449C127.719 194.943 128.231 193.767 129.258 192.923C130.283 192.079 131.699 191.656 133.504 191.656ZM159.875 196.026C160.238 196.026 160.602 196.048 160.967 196.089C161.33 196.131 161.671 196.18 161.985 196.238C162.299 196.296 162.577 196.358 162.817 196.425C163.056 196.49 163.243 196.547 163.376 196.597L162.954 198.585C162.706 198.452 162.316 198.315 161.786 198.175C161.257 198.034 160.619 197.964 159.875 197.964C159.229 197.964 158.666 198.092 158.186 198.348C157.706 198.605 157.466 199.006 157.466 199.553C157.466 199.834 157.519 200.083 157.627 200.298C157.734 200.513 157.9 200.707 158.124 200.881C158.346 201.055 158.625 201.217 158.956 201.365C159.287 201.514 159.685 201.672 160.148 201.837C160.76 202.069 161.306 202.297 161.786 202.52C162.266 202.744 162.677 203.004 163.016 203.302C163.355 203.6 163.616 203.96 163.799 204.383C163.98 204.804 164.071 205.322 164.071 205.933C164.071 207.125 163.628 208.028 162.743 208.64C161.857 209.254 160.595 209.56 158.956 209.56C157.814 209.56 156.92 209.464 156.274 209.274C155.629 209.084 155.19 208.938 154.958 208.84L155.38 206.853C155.644 206.953 156.067 207.101 156.646 207.3C157.226 207.498 157.996 207.598 158.956 207.598C159.9 207.598 160.599 207.474 161.054 207.226C161.51 206.978 161.737 206.58 161.737 206.034C161.737 205.471 161.513 205.024 161.066 204.692C160.619 204.362 159.882 203.989 158.856 203.576C158.36 203.377 157.884 203.174 157.428 202.967C156.973 202.76 156.579 202.516 156.249 202.234C155.918 201.954 155.653 201.613 155.455 201.217C155.256 200.818 155.157 200.33 155.157 199.751C155.157 198.609 155.579 197.702 156.424 197.032C157.267 196.362 158.418 196.026 159.875 196.026ZM225.775 196.921C226.056 196.739 226.483 196.547 227.054 196.349C227.625 196.151 228.284 196.051 229.028 196.051C229.955 196.051 230.778 196.218 231.499 196.548C232.218 196.88 232.827 197.343 233.324 197.938C233.82 198.534 234.197 199.247 234.454 200.074C234.71 200.902 234.839 201.812 234.839 202.805C234.839 203.848 234.686 204.788 234.38 205.624C234.072 206.46 233.638 207.167 233.076 207.747C232.513 208.326 231.834 208.774 231.04 209.088C230.245 209.402 229.351 209.56 228.358 209.56C227.282 209.56 226.33 209.484 225.503 209.336C224.675 209.187 223.996 209.038 223.466 208.888V190.39L225.775 189.992V196.921ZM143.857 203.103C143.857 204.676 144.106 205.802 144.602 206.48C145.099 207.16 145.935 207.498 147.11 207.498C147.359 207.498 147.615 207.49 147.88 207.473C148.144 207.457 148.393 207.437 148.625 207.412C148.856 207.387 149.068 207.361 149.259 207.337C149.448 207.312 149.585 207.283 149.668 207.251V196.348H151.977V208.889C151.448 209.022 150.748 209.162 149.88 209.31C149.01 209.46 148.005 209.535 146.862 209.535C145.869 209.535 145.033 209.39 144.354 209.1C143.676 208.811 143.129 208.401 142.716 207.871C142.302 207.341 142.003 206.716 141.821 205.996C141.639 205.276 141.549 204.477 141.549 203.599V196.348H143.857V203.103ZM169.186 196.349H174.078V198.286H169.186V204.246C169.186 204.89 169.235 205.425 169.335 205.846C169.434 206.269 169.583 206.601 169.782 206.841C169.981 207.081 170.229 207.25 170.527 207.349C170.824 207.449 171.173 207.498 171.57 207.498C172.266 207.498 172.825 207.42 173.247 207.262C173.668 207.106 173.962 206.994 174.128 206.928L174.574 208.84C174.342 208.955 173.936 209.1 173.357 209.274C172.778 209.448 172.116 209.535 171.371 209.535C170.494 209.535 169.77 209.422 169.199 209.199C168.628 208.976 168.168 208.64 167.82 208.193C167.473 207.746 167.228 207.196 167.088 206.542C166.947 205.889 166.877 205.131 166.877 204.27V192.749L169.186 192.351V196.349ZM181.178 196.026C182.105 196.026 182.888 196.147 183.525 196.386C184.162 196.626 184.675 196.967 185.064 197.405C185.453 197.843 185.73 198.365 185.896 198.969C186.061 199.573 186.144 200.239 186.144 200.968V209.039C185.946 209.072 185.668 209.117 185.312 209.175C184.956 209.233 184.556 209.286 184.109 209.336C183.662 209.386 183.177 209.431 182.656 209.473C182.135 209.514 181.617 209.535 181.104 209.535C180.376 209.535 179.705 209.46 179.092 209.311C178.481 209.162 177.95 208.926 177.504 208.603C177.057 208.281 176.709 207.855 176.461 207.325C176.212 206.796 176.088 206.157 176.088 205.413C176.088 204.702 176.232 204.088 176.522 203.575C176.812 203.062 177.206 202.649 177.702 202.334C178.198 202.02 178.778 201.788 179.44 201.638C180.102 201.49 180.797 201.415 181.526 201.415C181.758 201.415 181.998 201.427 182.246 201.452C182.494 201.477 182.73 201.511 182.954 201.552C183.177 201.593 183.371 201.63 183.537 201.663C183.702 201.697 183.818 201.722 183.884 201.738V201.092C183.884 200.711 183.843 200.334 183.76 199.962C183.678 199.59 183.528 199.258 183.313 198.969C183.098 198.679 182.804 198.447 182.432 198.273C182.06 198.1 181.575 198.013 180.979 198.013C180.218 198.013 179.551 198.067 178.981 198.175C178.41 198.282 177.983 198.394 177.702 198.51L177.428 196.597C177.727 196.465 178.224 196.337 178.919 196.213C179.614 196.088 180.367 196.026 181.178 196.026ZM214.675 196.026C215.602 196.026 216.385 196.147 217.022 196.386C217.659 196.626 218.172 196.967 218.561 197.405C218.95 197.843 219.227 198.365 219.393 198.969C219.558 199.573 219.641 200.239 219.641 200.968V209.039C219.443 209.072 219.165 209.117 218.809 209.175C218.454 209.233 218.053 209.286 217.606 209.336C217.159 209.386 216.674 209.431 216.153 209.473C215.632 209.514 215.114 209.535 214.601 209.535C213.873 209.535 213.202 209.46 212.59 209.311C211.978 209.162 211.448 208.926 211.001 208.603C210.554 208.281 210.206 207.855 209.958 207.325C209.709 206.796 209.585 206.157 209.585 205.413C209.585 204.702 209.73 204.088 210.019 203.575C210.309 203.062 210.703 202.649 211.199 202.334C211.695 202.02 212.275 201.788 212.937 201.638C213.599 201.49 214.294 201.415 215.023 201.415C215.255 201.415 215.495 201.427 215.743 201.452C215.991 201.477 216.228 201.511 216.451 201.552C216.674 201.593 216.868 201.63 217.034 201.663C217.199 201.697 217.315 201.722 217.382 201.738V201.092C217.382 200.711 217.34 200.334 217.258 199.962C217.175 199.59 217.025 199.258 216.81 198.969C216.595 198.679 216.301 198.447 215.929 198.273C215.557 198.1 215.072 198.013 214.476 198.013C213.715 198.013 213.048 198.067 212.478 198.175C211.907 198.282 211.48 198.394 211.199 198.51L210.925 196.597C211.224 196.465 211.721 196.337 212.416 196.213C213.111 196.088 213.864 196.026 214.675 196.026ZM259.593 196.349H264.486V198.286H259.593V204.246C259.593 204.89 259.644 205.425 259.743 205.846C259.842 206.269 259.991 206.601 260.189 206.841C260.388 207.081 260.636 207.25 260.934 207.349C261.232 207.449 261.581 207.498 261.977 207.498C262.673 207.498 263.232 207.42 263.654 207.262C264.075 207.106 264.369 206.994 264.535 206.928L264.982 208.84C264.75 208.955 264.345 209.1 263.765 209.274C263.186 209.448 262.524 209.535 261.779 209.535C260.902 209.535 260.177 209.422 259.606 209.199C259.035 208.976 258.575 208.64 258.227 208.193C257.88 207.746 257.636 207.196 257.496 206.542C257.355 205.889 257.285 205.131 257.285 204.27V192.749L259.593 192.351V196.349ZM246.633 205.512C246.633 205.893 246.666 206.207 246.732 206.455C246.798 206.704 246.906 206.902 247.055 207.052C247.204 207.2 247.403 207.312 247.651 207.386C247.899 207.461 248.206 207.523 248.57 207.573L248.247 209.51C246.823 209.476 245.813 209.171 245.217 208.591C244.621 208.011 244.324 207.109 244.324 205.885V190.389L246.633 189.992V205.512ZM192.278 209.261H189.968V196.349H192.278V209.261ZM201.39 196.076C202.416 196.076 203.269 196.22 203.948 196.511C204.627 196.8 205.169 197.206 205.575 197.727C205.98 198.249 206.266 198.874 206.431 199.602C206.597 200.33 206.68 201.133 206.68 202.011V209.261H204.371V202.507C204.371 201.712 204.317 201.034 204.209 200.47C204.101 199.909 203.924 199.453 203.675 199.105C203.427 198.758 203.096 198.506 202.682 198.348C202.269 198.191 201.755 198.112 201.142 198.112C200.894 198.112 200.637 198.12 200.373 198.136C200.108 198.153 199.855 198.174 199.615 198.199C199.376 198.224 199.16 198.253 198.97 198.286C198.78 198.32 198.643 198.344 198.56 198.36V209.261H196.251V196.721C196.78 196.59 197.484 196.448 198.361 196.3C199.239 196.15 200.249 196.076 201.39 196.076ZM240.4 209.261H238.091V196.349H240.4V209.261ZM253.461 209.261H251.151V196.349H253.461V209.261ZM181.724 203.277C181.377 203.277 181.009 203.302 180.62 203.352C180.231 203.402 179.874 203.505 179.551 203.662C179.229 203.82 178.96 204.035 178.745 204.308C178.53 204.581 178.422 204.942 178.422 205.388C178.422 206.216 178.687 206.791 179.217 207.113C179.746 207.436 180.466 207.598 181.377 207.598C181.923 207.598 182.408 207.585 182.83 207.56C183.252 207.536 183.603 207.49 183.884 207.424V203.575C183.719 203.493 183.449 203.422 183.078 203.364C182.706 203.307 182.254 203.277 181.724 203.277ZM215.221 203.277C214.874 203.277 214.506 203.302 214.117 203.352C213.728 203.402 213.371 203.505 213.049 203.662C212.726 203.82 212.457 204.035 212.242 204.308C212.027 204.581 211.919 204.942 211.919 205.388C211.919 206.216 212.184 206.791 212.714 207.113C213.244 207.436 213.963 207.598 214.874 207.598C215.42 207.598 215.905 207.585 216.327 207.56C216.749 207.536 217.1 207.49 217.382 207.424V203.575C217.216 203.493 216.947 203.422 216.575 203.364C216.203 203.307 215.751 203.277 215.221 203.277ZM228.73 198.088C228.101 198.088 227.521 198.196 226.992 198.411C226.462 198.626 226.056 198.848 225.775 199.081V207.251C226.007 207.317 226.334 207.379 226.756 207.436C227.178 207.495 227.703 207.523 228.333 207.523C229.574 207.523 230.567 207.113 231.312 206.294C232.057 205.475 232.43 204.312 232.43 202.805C232.43 202.144 232.364 201.523 232.231 200.943C232.099 200.364 231.884 199.863 231.586 199.441C231.288 199.019 230.903 198.688 230.431 198.448C229.96 198.208 229.391 198.088 228.73 198.088ZM191.111 190.985C191.525 190.985 191.877 191.122 192.167 191.395C192.456 191.668 192.601 192.037 192.601 192.5C192.601 192.964 192.456 193.332 192.167 193.605C191.877 193.879 191.525 194.014 191.111 194.014C190.698 194.014 190.346 193.878 190.056 193.605C189.767 193.332 189.622 192.963 189.622 192.5C189.622 192.037 189.767 191.668 190.056 191.395C190.346 191.122 190.698 190.985 191.111 190.985ZM239.233 190.985C239.647 190.985 239.999 191.122 240.289 191.395C240.578 191.668 240.723 192.037 240.723 192.5C240.723 192.964 240.578 193.332 240.289 193.605C239.999 193.879 239.647 194.014 239.233 194.014C238.82 194.014 238.467 193.878 238.178 193.605C237.889 193.332 237.744 192.963 237.744 192.5C237.744 192.037 237.889 191.668 238.178 191.395C238.467 191.122 238.82 190.985 239.233 190.985ZM252.295 190.985C252.707 190.985 253.06 191.122 253.349 191.395C253.639 191.668 253.784 192.037 253.784 192.5C253.784 192.964 253.639 193.332 253.349 193.605C253.06 193.879 252.708 194.014 252.295 194.014C251.881 194.014 251.529 193.878 251.239 193.605C250.949 193.332 250.804 192.963 250.804 192.5C250.804 192.037 250.949 191.668 251.239 191.395C251.529 191.122 251.88 190.985 252.295 190.985ZM236.627 168.634C237.702 168.634 238.642 168.713 239.445 168.87C240.247 169.028 240.922 169.172 241.468 169.304V180.826C241.468 182.813 240.956 184.252 239.929 185.146C238.903 186.04 237.346 186.488 235.26 186.488C234.449 186.488 233.684 186.421 232.965 186.289C232.244 186.156 231.619 185.999 231.09 185.818L231.511 183.805C231.975 183.987 232.542 184.149 233.213 184.29C233.883 184.431 234.582 184.501 235.31 184.501C236.684 184.501 237.674 184.228 238.278 183.681C238.882 183.135 239.184 182.267 239.184 181.075V180.528C238.985 180.661 238.601 180.83 238.03 181.037C237.459 181.244 236.792 181.347 236.031 181.347C235.253 181.347 234.519 181.223 233.833 180.974C233.146 180.727 232.546 180.342 232.033 179.82C231.52 179.298 231.114 178.649 230.816 177.871C230.519 177.093 230.369 176.167 230.369 175.091C230.369 174.148 230.51 173.282 230.791 172.496C231.072 171.71 231.482 171.03 232.02 170.459C232.558 169.888 233.217 169.441 233.995 169.118C234.773 168.795 235.65 168.634 236.627 168.634ZM221.778 168.584C222.655 168.584 223.467 168.746 224.212 169.069C224.956 169.391 225.598 169.851 226.135 170.447C226.673 171.043 227.092 171.759 227.39 172.595C227.688 173.43 227.837 174.354 227.837 175.364C227.837 176.39 227.688 177.317 227.39 178.144C227.092 178.973 226.673 179.684 226.135 180.28C225.598 180.876 224.956 181.335 224.212 181.658C223.467 181.981 222.655 182.143 221.778 182.143C220.901 182.143 220.089 181.981 219.344 181.658C218.6 181.335 217.957 180.876 217.42 180.28C216.882 179.684 216.464 178.972 216.166 178.144C215.868 177.317 215.719 176.39 215.719 175.364C215.719 174.354 215.868 173.43 216.166 172.595C216.464 171.759 216.882 171.043 217.42 170.447C217.957 169.851 218.6 169.391 219.344 169.069C220.089 168.746 220.901 168.584 221.778 168.584ZM297.339 168.584C298.215 168.584 299.027 168.746 299.772 169.069C300.516 169.391 301.158 169.851 301.696 170.447C302.234 171.043 302.653 171.759 302.951 172.595C303.248 173.43 303.397 174.354 303.397 175.364C303.397 176.39 303.248 177.317 302.951 178.144C302.653 178.973 302.234 179.684 301.696 180.28C301.158 180.876 300.516 181.335 299.772 181.658C299.027 181.981 298.215 182.143 297.339 182.143C296.461 182.143 295.65 181.981 294.905 181.658C294.161 181.335 293.518 180.876 292.98 180.28C292.442 179.684 292.024 178.972 291.726 178.144C291.428 177.317 291.28 176.39 291.28 175.364C291.28 174.354 291.428 173.43 291.726 172.595C292.024 171.759 292.442 171.043 292.98 170.447C293.518 169.851 294.161 169.391 294.905 169.069C295.65 168.746 296.461 168.584 297.339 168.584ZM200.348 168.584C201.225 168.584 202.037 168.746 202.782 169.069C203.526 169.391 204.168 169.851 204.706 170.447C205.244 171.043 205.662 171.759 205.961 172.595C206.258 173.43 206.408 174.353 206.408 175.363C206.408 176.389 206.258 177.317 205.961 178.144C205.662 178.972 205.244 179.683 204.706 180.279C204.168 180.875 203.526 181.335 202.782 181.658C202.037 181.981 201.225 182.142 200.348 182.142C199.471 182.142 198.66 181.981 197.915 181.658C197.17 181.335 196.529 180.875 195.991 180.279C195.453 179.683 195.035 178.972 194.737 178.144C194.439 177.317 194.29 176.389 194.29 175.363C194.29 174.353 194.439 173.43 194.737 172.595C195.035 171.759 195.453 171.043 195.991 170.447C196.529 169.851 197.17 169.391 197.915 169.069C198.66 168.746 199.471 168.584 200.348 168.584ZM146.316 168.585C148.054 168.585 149.386 169.127 150.313 170.211C151.24 171.295 151.705 172.946 151.705 175.164V175.55C151.705 175.707 151.696 175.852 151.679 175.984H142.84C142.939 177.325 143.327 178.343 144.007 179.038C144.685 179.734 145.745 180.081 147.185 180.081C147.996 180.081 148.679 180.011 149.234 179.871C149.788 179.73 150.206 179.593 150.488 179.461L150.81 181.397C150.528 181.546 150.035 181.704 149.333 181.869C148.629 182.034 147.83 182.118 146.936 182.118C145.811 182.118 144.838 181.948 144.019 181.608C143.2 181.27 142.525 180.801 141.996 180.206C141.466 179.61 141.072 178.902 140.815 178.083C140.559 177.264 140.43 176.365 140.43 175.388C140.43 174.246 140.596 173.249 140.927 172.396C141.258 171.544 141.698 170.836 142.244 170.273C142.79 169.711 143.419 169.289 144.131 169.007C144.842 168.725 145.571 168.585 146.316 168.585ZM160.495 168.584C161.073 168.584 161.653 168.635 162.232 168.733C162.811 168.833 163.366 168.99 163.896 169.205L163.375 171.167C163.027 171.001 162.625 170.869 162.171 170.769C161.715 170.67 161.231 170.621 160.718 170.621C159.427 170.621 158.437 171.027 157.751 171.838C157.063 172.648 156.719 173.832 156.719 175.388C156.719 176.083 156.799 176.721 156.956 177.301C157.112 177.88 157.361 178.376 157.701 178.79C158.04 179.204 158.475 179.522 159.005 179.746C159.534 179.969 160.18 180.081 160.941 180.081C161.554 180.081 162.108 180.023 162.605 179.907C163.101 179.791 163.49 179.668 163.772 179.535L164.095 181.471C163.962 181.555 163.772 181.633 163.524 181.708C163.275 181.782 162.994 181.848 162.679 181.906C162.365 181.964 162.029 182.014 161.674 182.055C161.318 182.097 160.974 182.118 160.643 182.118C159.601 182.118 158.685 181.952 157.899 181.621C157.113 181.29 156.451 180.826 155.913 180.23C155.375 179.635 154.973 178.926 154.709 178.107C154.444 177.287 154.311 176.381 154.311 175.388C154.311 174.395 154.456 173.485 154.746 172.657C155.036 171.829 155.445 171.113 155.975 170.509C156.505 169.905 157.154 169.433 157.924 169.094C158.694 168.754 159.551 168.584 160.495 168.584ZM256.889 168.585C258.627 168.585 259.959 169.127 260.886 170.211C261.813 171.295 262.277 172.946 262.277 175.164V175.55C262.277 175.707 262.269 175.852 262.252 175.984H253.412C253.511 177.325 253.9 178.343 254.58 179.038C255.258 179.733 256.318 180.081 257.758 180.081C258.569 180.081 259.252 180.011 259.806 179.871C260.36 179.73 260.778 179.593 261.06 179.461L261.384 181.397C261.102 181.546 260.609 181.704 259.906 181.869C259.202 182.035 258.403 182.118 257.509 182.118C256.384 182.118 255.411 181.948 254.592 181.608C253.773 181.27 253.097 180.801 252.568 180.206C252.038 179.61 251.645 178.902 251.388 178.083C251.132 177.264 251.004 176.365 251.004 175.388C251.004 174.246 251.169 173.249 251.5 172.396C251.83 171.544 252.27 170.836 252.816 170.273C253.362 169.711 253.992 169.289 254.704 169.007C255.415 168.725 256.144 168.585 256.889 168.585ZM269.528 168.585C269.892 168.585 270.256 168.605 270.62 168.646C270.983 168.688 271.323 168.738 271.637 168.796C271.952 168.854 272.23 168.916 272.47 168.982C272.71 169.048 272.897 169.105 273.029 169.155L272.606 171.142C272.358 171.01 271.969 170.873 271.439 170.732C270.91 170.592 270.272 170.521 269.528 170.521C268.882 170.521 268.319 170.649 267.839 170.906C267.359 171.163 267.119 171.564 267.119 172.11C267.119 172.392 267.172 172.641 267.28 172.855C267.388 173.071 267.553 173.265 267.777 173.438C268 173.612 268.277 173.775 268.608 173.923C268.939 174.072 269.337 174.23 269.8 174.395C270.412 174.627 270.959 174.854 271.439 175.078C271.919 175.301 272.329 175.563 272.669 175.86C273.007 176.158 273.268 176.518 273.451 176.94C273.633 177.362 273.723 177.88 273.723 178.492C273.723 179.684 273.281 180.586 272.395 181.198C271.51 181.811 270.247 182.118 268.608 182.118C267.466 182.118 266.572 182.021 265.926 181.832C265.281 181.642 264.843 181.496 264.611 181.397L265.033 179.411C265.297 179.51 265.719 179.66 266.299 179.858C266.878 180.057 267.648 180.156 268.608 180.156C269.552 180.156 270.251 180.032 270.707 179.784C271.162 179.535 271.389 179.138 271.389 178.592C271.389 178.029 271.166 177.582 270.719 177.25C270.273 176.92 269.535 176.547 268.509 176.134C268.013 175.935 267.536 175.731 267.081 175.524C266.626 175.318 266.233 175.074 265.902 174.792C265.571 174.511 265.306 174.171 265.107 173.774C264.909 173.376 264.809 172.888 264.809 172.309C264.809 171.168 265.232 170.261 266.076 169.591C266.92 168.92 268.071 168.585 269.528 168.585ZM211.92 178.07C211.92 178.451 211.953 178.765 212.019 179.013C212.085 179.262 212.193 179.461 212.342 179.61C212.491 179.758 212.69 179.87 212.938 179.944C213.186 180.019 213.493 180.081 213.857 180.131L213.534 182.068C212.11 182.035 211.1 181.729 210.505 181.149C209.908 180.57 209.611 179.667 209.611 178.442V162.948L211.92 162.551V178.07ZM185.896 168.635C186.922 168.635 187.775 168.779 188.454 169.069C189.132 169.358 189.675 169.764 190.081 170.285C190.486 170.807 190.772 171.432 190.937 172.161C191.103 172.889 191.186 173.692 191.186 174.569V181.82H188.877V175.065C188.877 174.271 188.822 173.592 188.715 173.028C188.607 172.467 188.429 172.011 188.181 171.664C187.933 171.316 187.602 171.063 187.188 170.906C186.774 170.749 186.261 170.671 185.648 170.671C185.4 170.671 185.143 170.679 184.879 170.695C184.614 170.712 184.36 170.732 184.121 170.757C183.881 170.782 183.666 170.81 183.476 170.844C183.286 170.877 183.149 170.902 183.066 170.919V181.82H180.757V169.279C181.286 169.147 181.99 169.007 182.867 168.858C183.744 168.709 184.754 168.635 185.896 168.635ZM247.751 181.82H245.441V168.907H247.751V181.82ZM287.456 162.551C288.134 162.551 288.717 162.6 289.206 162.699C289.693 162.799 290.037 162.889 290.236 162.972L289.814 164.96C289.616 164.86 289.334 164.764 288.97 164.674C288.606 164.583 288.159 164.538 287.63 164.538C286.553 164.538 285.8 164.832 285.37 165.419C284.939 166.007 284.723 166.797 284.723 167.79V168.907H289.69V170.845H284.723V181.82H282.415V167.74C282.415 166.085 282.82 164.807 283.632 163.904C284.442 163.002 285.718 162.551 287.456 162.551ZM311.418 168.635C311.616 168.635 311.844 168.647 312.1 168.672C312.357 168.696 312.61 168.729 312.858 168.77C313.106 168.811 313.334 168.854 313.541 168.895C313.747 168.937 313.9 168.974 314 169.007L313.603 171.018C313.421 170.952 313.118 170.873 312.697 170.782C312.275 170.691 311.732 170.645 311.07 170.645C310.64 170.645 310.213 170.691 309.792 170.782C309.37 170.873 309.091 170.935 308.959 170.969V181.82H306.65V169.454C307.196 169.255 307.875 169.069 308.685 168.895C309.497 168.722 310.408 168.635 311.418 168.635ZM140.133 166.697H134.719V181.819H132.311V166.697H126.897V164.611H140.133V166.697ZM168.887 169.156C169.317 168.99 169.777 168.862 170.265 168.77C170.754 168.679 171.238 168.635 171.718 168.635C172.745 168.635 173.597 168.779 174.276 169.069C174.955 169.358 175.497 169.764 175.903 170.285C176.308 170.806 176.593 171.432 176.759 172.16C176.924 172.888 177.008 173.692 177.008 174.569V181.819H174.698V175.065C174.698 174.27 174.645 173.592 174.537 173.029C174.429 172.468 174.252 172.011 174.004 171.664C173.755 171.316 173.423 171.063 173.009 170.906C172.596 170.749 172.083 170.67 171.47 170.67C171.222 170.67 170.964 170.686 170.7 170.72C170.435 170.753 170.182 170.79 169.943 170.832C169.703 170.873 169.487 170.919 169.298 170.969C169.108 171.018 168.97 171.06 168.887 171.092V181.819H166.579V162.948L168.887 162.551V169.156ZM200.348 170.621C199.223 170.621 198.333 171.047 197.679 171.899C197.025 172.751 196.698 173.907 196.698 175.363C196.698 176.819 197.025 177.976 197.679 178.828C198.333 179.68 199.223 180.106 200.348 180.106C201.474 180.106 202.364 179.681 203.018 178.828C203.672 177.976 203.999 176.82 203.999 175.363C203.999 173.907 203.672 172.751 203.018 171.899C202.364 171.046 201.474 170.621 200.348 170.621ZM221.778 170.621C220.652 170.621 219.762 171.047 219.108 171.9C218.454 172.752 218.128 173.908 218.128 175.364C218.128 176.82 218.454 177.976 219.108 178.828C219.762 179.681 220.652 180.106 221.778 180.106C222.904 180.106 223.793 179.681 224.447 178.828C225.101 177.976 225.428 176.82 225.428 175.364C225.428 173.908 225.101 172.752 224.447 171.9C223.793 171.048 222.904 170.621 221.778 170.621ZM297.339 170.621C296.213 170.621 295.322 171.047 294.669 171.9C294.015 172.752 293.688 173.908 293.688 175.364C293.688 176.82 294.015 177.976 294.669 178.828C295.322 179.681 296.213 180.106 297.339 180.106C298.464 180.106 299.353 179.681 300.008 178.828C300.662 177.976 300.989 176.82 300.989 175.364C300.989 173.908 300.662 172.752 300.008 171.9C299.353 171.048 298.464 170.621 297.339 170.621ZM236.652 170.67C235.411 170.67 234.454 171.076 233.784 171.886C233.114 172.698 232.778 173.774 232.778 175.115C232.778 175.859 232.872 176.498 233.063 177.027C233.253 177.557 233.511 177.994 233.833 178.343C234.155 178.69 234.529 178.947 234.95 179.113C235.372 179.279 235.807 179.361 236.254 179.361C236.866 179.361 237.429 179.274 237.942 179.1C238.455 178.926 238.861 178.724 239.159 178.492V170.943C238.927 170.877 238.617 170.815 238.228 170.757C237.839 170.699 237.314 170.67 236.652 170.67ZM146.291 170.546C145.761 170.546 145.294 170.65 144.888 170.857C144.482 171.064 144.139 171.333 143.857 171.664C143.576 171.995 143.356 172.376 143.2 172.805C143.042 173.236 142.939 173.675 142.889 174.122H149.296C149.312 173.08 149.051 172.222 148.513 171.553C147.975 170.882 147.235 170.546 146.291 170.546ZM256.864 170.546C256.335 170.546 255.866 170.65 255.461 170.857C255.055 171.064 254.712 171.333 254.43 171.664C254.149 171.995 253.929 172.376 253.772 172.805C253.614 173.236 253.511 173.675 253.462 174.122H259.868C259.884 173.079 259.623 172.222 259.086 171.553C258.548 170.882 257.808 170.546 256.864 170.546ZM246.584 163.544C246.997 163.544 247.35 163.681 247.639 163.954C247.928 164.226 248.074 164.595 248.074 165.058C248.074 165.522 247.928 165.89 247.639 166.163C247.35 166.436 246.997 166.573 246.584 166.573C246.17 166.573 245.818 166.436 245.529 166.163C245.24 165.89 245.095 165.522 245.094 165.058C245.094 164.595 245.239 164.226 245.529 163.954C245.818 163.681 246.17 163.544 246.584 163.544ZM169.011 141.142C169.888 141.142 170.7 141.304 171.445 141.628C172.189 141.95 172.831 142.41 173.369 143.006C173.907 143.601 174.326 144.318 174.624 145.153C174.921 145.989 175.071 146.913 175.071 147.923C175.071 148.949 174.921 149.876 174.624 150.703C174.326 151.531 173.907 152.243 173.369 152.839C172.831 153.435 172.189 153.894 171.445 154.217C170.7 154.539 169.888 154.702 169.011 154.702C168.134 154.702 167.323 154.539 166.578 154.217C165.834 153.894 165.192 153.435 164.654 152.839C164.116 152.243 163.698 151.531 163.4 150.703C163.102 149.876 162.953 148.949 162.953 147.923C162.953 146.913 163.102 145.989 163.4 145.153C163.698 144.318 164.116 143.601 164.654 143.006C165.192 142.409 165.834 141.95 166.578 141.628C167.323 141.304 168.134 141.142 169.011 141.142ZM236.95 141.142C238.687 141.142 240.02 141.686 240.947 142.769C241.874 143.854 242.338 145.505 242.338 147.722V148.108C242.338 148.265 242.329 148.411 242.312 148.543H233.472C233.572 149.884 233.961 150.901 234.64 151.596C235.319 152.292 236.378 152.639 237.818 152.639C238.629 152.639 239.312 152.57 239.867 152.429C240.421 152.289 240.839 152.152 241.121 152.019L241.444 153.956C241.162 154.105 240.669 154.263 239.967 154.428C239.262 154.593 238.464 154.677 237.57 154.677C236.444 154.676 235.471 154.506 234.652 154.167C233.833 153.828 233.158 153.359 232.629 152.763C232.099 152.168 231.705 151.459 231.449 150.64C231.192 149.821 231.064 148.924 231.064 147.947C231.064 146.804 231.229 145.807 231.56 144.954C231.891 144.102 232.33 143.393 232.877 142.831C233.423 142.268 234.053 141.847 234.764 141.565C235.476 141.283 236.205 141.142 236.95 141.142ZM205.563 141.466H210.456V143.402H205.563V149.362C205.563 150.007 205.613 150.542 205.713 150.964C205.812 151.386 205.96 151.717 206.159 151.957C206.358 152.197 206.606 152.367 206.904 152.467C207.201 152.566 207.55 152.615 207.947 152.615C208.643 152.615 209.201 152.536 209.624 152.379C210.045 152.222 210.339 152.11 210.505 152.044L210.952 153.957C210.72 154.072 210.314 154.217 209.735 154.391C209.156 154.565 208.494 154.652 207.749 154.652C206.872 154.652 206.147 154.54 205.576 154.316C205.005 154.093 204.545 153.757 204.197 153.31C203.85 152.864 203.606 152.313 203.466 151.659C203.325 151.006 203.255 150.248 203.255 149.386V137.865L205.563 137.469V141.466ZM194.613 141.143C195.54 141.143 196.322 141.263 196.96 141.503C197.597 141.742 198.111 142.084 198.5 142.522C198.888 142.96 199.165 143.482 199.332 144.086C199.497 144.69 199.579 145.357 199.579 146.085V154.155C199.381 154.188 199.103 154.234 198.748 154.292C198.392 154.35 197.99 154.404 197.544 154.453C197.096 154.503 196.612 154.547 196.091 154.59C195.57 154.631 195.051 154.651 194.539 154.651C193.81 154.651 193.139 154.576 192.527 154.428C191.915 154.278 191.385 154.043 190.938 153.72C190.491 153.398 190.143 152.971 189.895 152.441C189.647 151.912 189.523 151.273 189.523 150.529C189.523 149.818 189.668 149.205 189.958 148.692C190.247 148.179 190.641 147.765 191.137 147.45C191.634 147.136 192.213 146.904 192.876 146.755C193.537 146.606 194.232 146.531 194.961 146.531C195.192 146.531 195.433 146.543 195.681 146.568C195.929 146.593 196.165 146.627 196.388 146.668C196.612 146.709 196.807 146.747 196.972 146.78C197.138 146.814 197.254 146.838 197.32 146.854V146.209C197.32 145.828 197.278 145.451 197.196 145.079C197.113 144.707 196.964 144.375 196.749 144.086C196.534 143.796 196.24 143.564 195.868 143.39C195.495 143.217 195.011 143.13 194.415 143.13C193.654 143.13 192.986 143.184 192.416 143.291C191.845 143.399 191.419 143.51 191.137 143.626L190.864 141.715C191.162 141.582 191.659 141.454 192.354 141.33C193.049 141.205 193.802 141.143 194.613 141.143ZM140.306 141.193C141.333 141.193 142.185 141.337 142.864 141.628C143.543 141.917 144.085 142.323 144.491 142.844C144.896 143.365 145.181 143.991 145.346 144.72C145.512 145.448 145.595 146.25 145.595 147.128V154.379H143.286V147.624C143.286 146.829 143.233 146.151 143.125 145.587C143.017 145.025 142.839 144.57 142.592 144.222C142.343 143.875 142.011 143.622 141.597 143.465C141.184 143.308 140.67 143.229 140.058 143.229C139.81 143.229 139.552 143.237 139.288 143.254C139.023 143.271 138.77 143.291 138.531 143.315C138.291 143.341 138.075 143.369 137.885 143.402C137.695 143.436 137.558 143.461 137.475 143.477V154.379H135.167V141.838C135.696 141.706 136.4 141.565 137.277 141.417C138.155 141.267 139.164 141.193 140.306 141.193ZM154.56 141.193C155.586 141.193 156.439 141.337 157.118 141.628C157.797 141.917 158.339 142.323 158.745 142.844C159.15 143.365 159.435 143.991 159.6 144.72C159.766 145.448 159.849 146.25 159.849 147.128V154.379H157.54V147.624C157.54 146.829 157.486 146.151 157.379 145.587C157.271 145.025 157.093 144.57 156.845 144.222C156.597 143.875 156.265 143.622 155.851 143.465C155.438 143.308 154.924 143.229 154.312 143.229C154.064 143.229 153.806 143.237 153.542 143.254C153.277 143.271 153.024 143.291 152.785 143.315C152.545 143.341 152.329 143.369 152.139 143.402C151.949 143.436 151.812 143.461 151.729 143.477V154.379H149.421V141.838C149.95 141.706 150.654 141.565 151.531 141.417C152.409 141.267 153.418 141.193 154.56 141.193ZM178.869 141.466C179.068 142.277 179.303 143.142 179.577 144.06C179.85 144.979 180.139 145.89 180.446 146.792C180.752 147.694 181.063 148.568 181.378 149.412C181.692 150.256 181.99 151.009 182.271 151.672C182.552 151.009 182.85 150.256 183.165 149.412C183.479 148.568 183.79 147.694 184.096 146.792C184.403 145.89 184.693 144.979 184.966 144.06C185.239 143.142 185.475 142.277 185.674 141.466H188.057C187.412 143.883 186.653 146.201 185.785 148.419C184.916 150.637 184.075 152.625 183.264 154.379H181.179C180.368 152.625 179.528 150.637 178.659 148.419C177.79 146.201 177.032 143.883 176.386 141.466H178.869ZM220.561 141.466C220.761 142.277 220.996 143.142 221.269 144.06C221.543 144.979 221.832 145.89 222.138 146.792C222.444 147.694 222.755 148.568 223.069 149.412C223.383 150.256 223.681 151.009 223.963 151.672C224.244 151.009 224.543 150.256 224.857 149.412C225.172 148.568 225.482 147.694 225.788 146.792C226.094 145.89 226.384 144.979 226.657 144.06C226.93 143.142 227.166 142.277 227.365 141.466H229.749C229.103 143.883 228.346 146.201 227.477 148.419C226.608 150.637 225.767 152.625 224.957 154.379H222.871C222.059 152.625 221.219 150.637 220.35 148.419C219.481 146.201 218.724 143.883 218.078 141.466H220.561ZM131.045 154.378H128.636V137.17H131.045V154.378ZM215.694 154.378H213.384V141.466H215.694V154.378ZM195.16 148.394C194.812 148.394 194.443 148.419 194.054 148.469C193.666 148.518 193.31 148.621 192.987 148.778C192.664 148.936 192.394 149.151 192.179 149.425C191.964 149.697 191.857 150.058 191.857 150.505C191.857 151.332 192.122 151.908 192.651 152.23C193.181 152.553 193.902 152.715 194.812 152.715C195.358 152.715 195.842 152.702 196.264 152.678C196.686 152.653 197.039 152.607 197.32 152.541V148.692C197.154 148.61 196.884 148.539 196.512 148.48C196.14 148.423 195.689 148.394 195.16 148.394ZM169.011 143.179C167.886 143.18 166.996 143.606 166.342 144.459C165.688 145.311 165.361 146.466 165.361 147.923C165.361 149.379 165.688 150.534 166.342 151.386C166.996 152.239 167.886 152.665 169.011 152.665C170.137 152.665 171.027 152.239 171.681 151.386C172.335 150.534 172.662 149.379 172.662 147.923C172.662 146.466 172.335 145.311 171.681 144.459C171.027 143.606 170.137 143.179 169.011 143.179ZM236.925 143.104C236.395 143.104 235.926 143.208 235.521 143.415C235.115 143.621 234.773 143.891 234.491 144.222C234.21 144.554 233.989 144.934 233.833 145.364C233.675 145.795 233.572 146.234 233.522 146.68H239.928C239.945 145.638 239.684 144.78 239.146 144.11C238.608 143.44 237.868 143.104 236.925 143.104ZM214.527 136.102C214.941 136.102 215.293 136.238 215.583 136.511C215.872 136.784 216.017 137.154 216.017 137.617C216.017 138.08 215.872 138.45 215.583 138.722C215.293 138.996 214.941 139.132 214.527 139.132C214.114 139.132 213.762 138.996 213.472 138.722C213.183 138.45 213.038 138.08 213.038 137.617C213.038 137.154 213.183 136.784 213.472 136.511C213.762 136.238 214.114 136.102 214.527 136.102ZM211.729 108.091H226.884V90.8015H236.469V108.091L241.822 113.011V115.686H236.469V126.9H226.884V115.686H200.77V108.454L221.929 75.1775H232.202L211.729 108.091ZM36.6901 29.5017C37.7596 26.4271 41.3821 25.1095 44.1774 26.7771L47.3698 28.6824C54.4575 32.911 61.6534 37.2065 68.5202 42.0779C68.5475 42.0972 68.575 42.1162 68.6023 42.1355C71.8909 44.4716 75.1023 46.9417 78.1901 49.6004V49.5984C78.2643 49.6622 78.3378 49.7267 78.4118 49.7908C78.6505 49.9974 78.8885 50.2049 79.1257 50.4138C79.3937 50.6499 79.6605 50.8877 79.9265 51.1267C81.79 52.8021 83.6043 54.5515 85.3562 56.3904C85.4122 56.4492 85.4682 56.5082 85.5241 56.5672C85.6881 56.7402 85.8515 56.914 86.0144 57.0886C86.1201 57.2019 86.2255 57.3155 86.3308 57.4295C86.4682 57.5783 86.6053 57.7277 86.7419 57.8777C86.8378 57.9829 86.9335 58.0883 87.029 58.1941C87.4864 58.7012 87.9395 59.2146 88.3874 59.7351C88.4457 59.8028 88.5031 59.8713 88.5612 59.9392C88.7094 60.1125 88.8575 60.286 89.0046 60.4607C89.1246 60.6033 89.2437 60.7468 89.363 60.8904C89.4387 60.9816 89.5141 61.0732 89.5896 61.1648C89.7203 61.3236 89.8513 61.4823 89.9812 61.6424C90.0803 61.7645 90.1785 61.8876 90.2771 62.0105C90.3853 62.1455 90.4947 62.2799 90.6023 62.4158L91.1667 63.1375L91.3747 63.4197C91.6596 63.8257 92.379 64.8666 93.2478 66.2263C93.2513 66.2319 93.255 66.2374 93.2585 66.2429C93.3933 66.4541 93.5317 66.6729 93.6726 66.8982C93.7007 66.9432 93.7292 66.9884 93.7575 67.034C93.8821 67.2341 94.0081 67.4392 94.1355 67.6482C94.1717 67.7077 94.2075 67.7678 94.2439 67.8279C94.3588 68.0178 94.4748 68.2106 94.5905 68.406C94.6371 68.4847 94.6836 68.5639 94.7302 68.6433C94.8414 68.8329 94.9526 69.0244 95.0632 69.2175C95.0975 69.2776 95.1315 69.3379 95.1657 69.3982C95.2783 69.5965 95.3901 69.7962 95.5007 69.9968C95.5701 70.1227 95.6384 70.2493 95.7067 70.3758C95.7832 70.5172 95.8595 70.6587 95.9343 70.8006C96.0094 70.943 96.0829 71.0858 96.156 71.2283C96.2242 71.3613 96.292 71.494 96.3581 71.6267C96.4317 71.7744 96.5032 71.9222 96.5739 72.0691C96.6351 72.1962 96.6949 72.3228 96.7536 72.449C96.8499 72.6561 96.9451 72.8606 97.0339 73.0642C97.1525 73.3362 97.2641 73.6046 97.3669 73.8679L97.5153 74.2595C97.6198 74.5467 97.719 74.8348 97.8161 75.1228C97.8351 75.179 97.8531 75.2355 97.8718 75.2918C97.9514 75.5315 98.0287 75.7713 98.1032 76.0115C98.1226 76.074 98.1418 76.1365 98.1608 76.199C98.2256 76.4117 98.2885 76.6246 98.3493 76.8377C98.3753 76.9285 98.4012 77.0192 98.4265 77.1101C98.5025 77.3844 98.5766 77.6586 98.6462 77.9334C98.6601 77.9883 98.6726 78.0435 98.6862 78.0984C98.7421 78.3232 98.7958 78.5481 98.8474 78.7732C98.8712 78.8773 98.8938 78.9816 98.9167 79.0857C98.957 79.2689 98.9954 79.4522 99.0329 79.6355C99.0565 79.7504 99.0798 79.8653 99.1023 79.9802C99.1273 80.1088 99.1509 80.2374 99.1745 80.366C99.2813 80.9453 99.3748 81.5247 99.4538 82.1043C99.4667 82.1987 99.4798 82.293 99.4919 82.3875C99.5165 82.5792 99.5386 82.771 99.5603 82.9627C99.5683 83.0343 99.576 83.1059 99.5837 83.1775C99.6036 83.3631 99.6233 83.5486 99.6403 83.7341C99.6458 83.7937 99.6508 83.8533 99.656 83.9129C99.7131 84.5687 99.7525 85.2237 99.7751 85.8777C99.7764 85.9168 99.7788 85.9558 99.78 85.9949C99.7799 85.9995 99.7791 86.004 99.779 86.0086C100.272 101.909 90.6282 117.06 74.8845 122.791C70.1348 124.52 65.2587 125.232 60.4948 125.045C60.417 125.042 60.3392 125.038 60.2614 125.035C60.109 125.028 59.9566 125.02 59.8044 125.011C59.6607 125.003 59.5172 124.994 59.3737 124.984C59.2386 124.975 59.1034 124.966 58.9685 124.955C58.8502 124.945 58.7321 124.934 58.614 124.924C58.3482 124.9 58.0829 124.873 57.8181 124.844C57.6806 124.828 57.5432 124.813 57.406 124.797C57.2818 124.781 57.1578 124.765 57.0339 124.749C56.8869 124.729 56.7401 124.709 56.5935 124.688C56.4543 124.668 56.3153 124.647 56.1765 124.626C56.0611 124.608 55.9459 124.589 55.8308 124.57C55.2696 124.477 54.7112 124.372 54.156 124.255C54.0709 124.237 53.986 124.219 53.9011 124.2C53.7399 124.165 53.5792 124.128 53.4187 124.091C53.2892 124.06 53.1601 124.029 53.031 123.998C52.914 123.969 52.797 123.941 52.6804 123.912C52.5398 123.876 52.3996 123.839 52.2595 123.802C51.9677 123.724 51.6771 123.643 51.3874 123.558C51.3194 123.539 51.2511 123.52 51.1833 123.5C51.0414 123.458 50.8999 123.414 50.7585 123.37C50.6183 123.326 50.4783 123.282 50.3386 123.237C50.2356 123.204 50.1326 123.171 50.03 123.136C49.8595 123.08 49.6899 123.021 49.5202 122.962C49.4219 122.927 49.3233 122.894 49.2253 122.859C48.9812 122.772 48.738 122.683 48.4958 122.591C48.4129 122.559 48.3305 122.526 48.2478 122.494C48.0836 122.43 47.9198 122.366 47.7565 122.3C47.6201 122.244 47.4841 122.188 47.3483 122.132C47.2528 122.092 47.1574 122.051 47.0622 122.011C46.9091 121.945 46.7564 121.879 46.6042 121.811C46.4971 121.764 46.3905 121.715 46.2839 121.667C46.0924 121.58 45.9016 121.491 45.7116 121.401C45.5475 121.323 45.3835 121.245 45.2204 121.165C45.1085 121.11 44.9969 121.054 44.8855 120.998C44.7578 120.933 44.6306 120.868 44.5036 120.803C44.3728 120.735 44.2421 120.667 44.112 120.597C43.997 120.536 43.8827 120.473 43.7683 120.411C43.6536 120.348 43.5386 120.286 43.4245 120.222C43.2023 120.098 42.9812 119.971 42.7614 119.843C42.6865 119.799 42.6124 119.753 42.5378 119.709C42.3747 119.612 42.2122 119.513 42.0505 119.414C41.9586 119.357 41.8675 119.299 41.7761 119.242C41.6347 119.153 41.4935 119.064 41.3532 118.973C41.2578 118.912 41.162 118.85 41.0671 118.788C40.9004 118.678 40.735 118.566 40.57 118.454C40.5073 118.411 40.444 118.369 40.3815 118.326C40.1671 118.178 39.9543 118.027 39.7429 117.875C39.6715 117.823 39.601 117.771 39.53 117.719C39.3641 117.597 39.1989 117.475 39.0349 117.35C38.969 117.3 38.9032 117.25 38.8376 117.2C38.6528 117.058 38.4691 116.915 38.2868 116.769C38.2491 116.739 38.2111 116.71 38.1735 116.679C37.9567 116.505 37.7412 116.329 37.528 116.15C37.4952 116.123 37.4632 116.094 37.4304 116.066C37.2562 115.919 37.0835 115.77 36.9118 115.619C36.8326 115.549 36.7541 115.479 36.6755 115.409C36.5413 115.289 36.4077 115.168 36.2751 115.047C36.2037 114.981 36.1322 114.916 36.0612 114.849C35.9205 114.718 35.7811 114.585 35.6423 114.452C35.5567 114.37 35.4713 114.287 35.3864 114.204C35.2192 114.04 35.0527 113.875 34.8884 113.708C34.8174 113.636 34.7479 113.562 34.6774 113.489C34.5424 113.349 34.4081 113.209 34.2751 113.067C34.2131 113.001 34.1512 112.935 34.0896 112.868C33.974 112.743 33.8597 112.617 33.7458 112.49C33.6585 112.393 33.5705 112.296 33.4841 112.198C33.1297 111.795 32.7832 111.385 32.445 110.966C32.3796 110.884 32.3155 110.802 32.2507 110.72C32.1387 110.579 32.0269 110.438 31.9167 110.295C31.8486 110.206 31.781 110.117 31.7136 110.028C31.6112 109.893 31.5105 109.756 31.4099 109.619C31.3335 109.515 31.2567 109.411 31.1814 109.306C31.0291 109.095 30.8784 108.881 30.7302 108.666C30.697 108.618 30.6645 108.569 30.6315 108.52C30.5074 108.338 30.3846 108.154 30.2634 107.97C30.2054 107.881 30.1479 107.792 30.0905 107.703C29.9765 107.526 29.8639 107.347 29.7526 107.168C29.7193 107.114 29.6852 107.061 29.6521 107.007C29.3552 106.522 29.0691 106.029 28.7927 105.528C28.7328 105.42 28.6739 105.31 28.6149 105.201C28.5407 105.063 28.467 104.925 28.3942 104.786C28.3319 104.667 28.2698 104.547 28.2087 104.428C28.118 104.25 28.0292 104.07 27.9411 103.89C27.9084 103.824 27.8748 103.757 27.8425 103.69C27.7185 103.433 27.5968 103.175 27.4782 102.914C27.441 102.832 27.4056 102.749 27.3689 102.667C27.2871 102.484 27.2057 102.3 27.1267 102.115C27.0791 102.004 27.0326 101.892 26.986 101.78C26.9194 101.62 26.8544 101.459 26.7898 101.298C26.745 101.186 26.6997 101.074 26.656 100.962C26.5765 100.758 26.4988 100.553 26.4226 100.346C26.3996 100.284 26.3749 100.222 26.3523 100.16C26.1395 99.5752 25.9457 98.9367 25.7663 98.2683C25.7274 98.1233 25.6904 97.9765 25.653 97.8289C25.6161 97.6831 25.5791 97.5363 25.5437 97.3884C25.5043 97.2244 25.466 97.0593 25.4284 96.8933C25.3981 96.7593 25.3678 96.6249 25.3386 96.49C25.3069 96.3436 25.2761 96.1967 25.2458 96.0496C25.2145 95.8977 25.1829 95.7457 25.153 95.5935C25.1174 95.4122 25.0842 95.2306 25.0505 95.0496C25.0252 94.9135 24.9995 94.7779 24.9753 94.6424C24.9506 94.5042 24.9266 94.3665 24.903 94.2293C24.8737 94.0587 24.8447 93.889 24.8171 93.7205C24.8 93.6159 24.7838 93.5116 24.7673 93.408C24.6419 92.6195 24.5343 91.8621 24.445 91.1707C24.4187 90.9665 24.3971 90.7677 24.3737 90.5759C24.2188 89.3065 24.1248 88.3298 24.0886 87.909L24.0661 87.5593C24.0467 87.0655 24.0328 86.5725 24.0222 86.0808C24.0217 86.0587 24.0207 86.0366 24.0202 86.0144C24.0203 86.0115 24.0201 86.0085 24.0202 86.0056C23.6272 67.0595 29.644 49.7589 35.4685 33.0134L36.6901 29.5017ZM276.242 31.9627C286.778 31.9627 295.836 33.04 303.42 35.1961L302.223 47.6472C295.279 47.4075 286.658 47.2879 276.362 47.2879C271.574 47.2879 268.379 47.7063 266.784 48.5457C265.187 49.3832 264.39 51.479 264.39 54.8299C264.39 57.5439 264.988 59.5007 266.185 60.698C267.383 61.8952 269.657 63.053 273.009 64.1697L288.695 69.5574C295.077 71.7927 299.589 74.8452 302.223 78.7156C304.857 82.5881 306.174 87.6353 306.175 93.8621C306.174 103.121 303.938 109.407 299.469 112.718C294.997 116.032 287.018 117.687 275.524 117.687C266.186 117.687 256.727 116.649 247.148 114.573L248.226 101.404C265.226 101.804 274.326 102.002 275.524 102.002C280.392 102.002 283.645 101.484 285.282 100.445C286.916 99.4089 287.735 97.255 287.735 93.9802C287.735 91.1888 287.177 89.2131 286.06 88.0554C284.94 86.8992 282.905 85.8401 279.953 84.8826L263.311 79.0144C257.165 76.7809 252.776 73.7464 250.142 69.9148C247.508 66.0839 246.192 61.055 246.192 54.8299C246.192 45.7307 248.407 39.6461 252.836 36.572C257.266 33.5013 265.067 31.9627 276.242 31.9627ZM145.88 116.13H127.681V33.5193H145.88V116.13ZM218.03 48.365H193.366V116.13H175.049V48.365H150.384V33.5193H218.03V48.365ZM46.8649 45.8084C46.1887 47.8103 45.5335 49.8044 44.905 51.7918C41.3037 63.1796 38.6604 74.3852 38.9694 86.0799C38.9757 86.3169 38.9812 86.5543 38.9899 86.7918C39.2121 89.2234 39.7949 93.4053 40.3933 95.0496C43.8933 104.665 53.1973 110.523 62.9157 110.112C63.704 110.079 64.4949 110.004 65.2858 109.887C65.6469 109.834 66.0081 109.772 66.3689 109.701C66.9708 109.582 67.5716 109.437 68.1706 109.267C68.7067 109.115 69.2413 108.943 69.7731 108.75C70.1357 108.618 70.4927 108.477 70.8444 108.329C70.8634 108.321 70.8822 108.312 70.9011 108.304C71.4231 108.083 71.9331 107.844 72.4304 107.589C72.7841 107.407 73.1315 107.217 73.4724 107.018C74.1248 106.639 74.7536 106.23 75.3571 105.794C75.38 105.777 75.4027 105.761 75.4255 105.744C76.159 105.209 76.8552 104.635 77.5124 104.024C77.5266 104.011 77.5403 103.997 77.5544 103.984C77.9465 103.618 78.3246 103.239 78.6882 102.848C78.9571 102.559 79.2185 102.264 79.4714 101.963C79.6902 101.702 79.9025 101.436 80.1091 101.166C80.3483 100.853 80.579 100.535 80.8015 100.211C81.0921 99.7877 81.3682 99.3555 81.6296 98.9148C81.7482 98.7147 81.8638 98.5129 81.9763 98.3093C82.2186 97.8711 82.4466 97.4253 82.6599 96.9724C82.8388 96.5923 83.0077 96.2075 83.1657 95.8181C83.2861 95.5217 83.4005 95.2229 83.5085 94.9216C84.5115 92.1223 84.9779 89.1206 84.8298 86.0808C84.8299 86.0786 84.8297 86.0762 84.8298 86.074C84.7202 83.8378 84.2782 81.5813 83.4733 79.3699C82.875 77.7263 80.6351 74.1494 79.2409 72.1414C76.5188 68.6446 73.5144 65.4787 70.2888 62.5447L54.5876 105.696C54.5532 105.791 54.4435 105.815 54.3493 105.777C47.0339 102.829 47.1968 97.8393 49.3581 93.7498L68.363 60.8425C66.2868 59.0575 64.1274 57.3573 61.9001 55.7166L60.3249 54.574C56.6249 51.93 52.751 49.4325 48.7673 46.9763V46.9754C48.1356 46.5859 47.5019 46.1962 46.8649 45.8084ZM48.5183 50.3533C52.3018 52.7116 55.944 55.0979 59.4001 57.6062C53.903 61.8798 48.8778 66.5964 44.5603 72.1424C43.9613 73.0048 43.2066 74.1588 42.4919 75.324C43.4886 67.0469 45.7505 58.8391 48.5183 50.3533ZM79.6237 26.7771C82.4191 25.1098 86.0418 26.428 87.111 29.5027L88.3317 33.0144C92.4119 44.7449 96.5851 56.7482 98.5847 69.3982C96.7107 65.8425 94.3597 62.4498 93.8308 61.6961L93.8112 61.6687L93.7917 61.6424L93.5837 61.3591L93.5388 61.3006C85.2913 50.6485 75.1373 42.6946 64.6755 35.825C68.5777 33.3669 72.5209 31.0148 76.4304 28.6824L79.6237 26.7771Z" fill="white"/>
</svg>
