<svg width="320" height="240" viewBox="0 0 320 240" fill="none" xmlns="http://www.w3.org/2000/svg">
<path fill-rule="evenodd" clip-rule="evenodd" d="M158.657 17.4917L157.232 21.8484L152.732 21.905L148.232 21.9615L151.732 24.4676C153.657 25.8461 155.27 27.0755 155.315 27.1997C155.361 27.3239 154.795 29.2933 154.058 31.5762C153.322 33.8592 152.754 35.7268 152.798 35.7268C152.841 35.7268 154.45 34.592 156.373 33.2049C158.295 31.8179 159.961 30.683 160.073 30.683C160.186 30.683 161.847 31.8156 163.764 33.1997C165.682 34.5838 167.283 35.684 167.323 35.6442C167.378 35.5885 165.137 28.5018 164.72 27.414C164.671 27.2882 166.267 26.01 168.265 24.5733L171.898 21.9615L167.386 21.8564L162.874 21.7514L161.478 17.4431L160.081 13.1349L158.657 17.4917ZM110.818 30.3153L109.454 34.571L104.967 34.676L100.48 34.7811L103.93 37.2849C105.828 38.6621 107.448 39.8457 107.53 39.9149C107.613 39.9842 107.065 41.9193 106.313 44.2151C105.561 46.5109 104.984 48.4275 105.031 48.4739C105.095 48.538 110.623 44.5894 112.015 43.4852C112.15 43.378 113.627 44.3296 115.798 45.9218C117.756 47.3586 119.423 48.5368 119.501 48.5404C119.58 48.5437 119.092 46.8967 118.417 44.8802C117.743 42.8638 117.13 40.9354 117.055 40.5949L116.919 39.9758L120.471 37.3785L124.024 34.7811L119.568 34.7246L115.111 34.6681L113.706 30.3638C112.934 27.9964 112.275 26.0596 112.242 26.0596C112.21 26.0596 111.569 27.9747 110.818 30.3153ZM206.386 30.3153L204.978 34.676H200.441H195.904L199.243 37.1078C201.079 38.4452 202.717 39.6721 202.883 39.8339L203.185 40.1286L201.86 44.2428C201.132 46.5056 200.573 48.3941 200.618 48.4393C200.663 48.4847 202.304 47.3517 204.264 45.9218C206.335 44.4105 207.917 43.3921 208.042 43.4901C209.861 44.921 214.987 48.524 215.025 48.3989C215.054 48.3067 214.477 46.3909 213.743 44.1413L212.41 40.0515L213.275 39.4019C213.751 39.0446 215.365 37.8587 216.862 36.7667L219.584 34.7811L215.119 34.676L210.655 34.571L209.225 30.2627L207.794 25.9545L206.386 30.3153ZM77.0472 61.5995C76.9444 61.8757 76.306 63.7785 75.6286 65.8279L74.3969 69.5542L69.9058 69.6108L65.4148 69.6673L69.007 72.2865C70.9825 73.7271 72.599 74.99 72.599 75.0927C72.599 75.1955 72.0236 77.0745 71.3202 79.2681C70.6168 81.462 70.0864 83.3017 70.1412 83.3565C70.1961 83.4114 71.7407 82.352 73.5741 81.0023C75.4073 79.6525 77.0182 78.5051 77.1537 78.4523C77.2893 78.3996 78.9727 79.5096 80.8946 80.9191C82.8162 82.3287 84.4296 83.4408 84.4798 83.3906C84.5301 83.3404 83.9479 81.4321 83.1861 79.1502C82.4245 76.8681 81.835 74.9717 81.8762 74.9357C81.9174 74.9 83.5583 73.7 85.5229 72.269L89.0949 69.6673L84.5843 69.5622L80.0735 69.4571L78.7652 65.3887C78.0457 63.1511 77.4068 61.2702 77.3456 61.2091C77.2843 61.1477 77.15 61.3236 77.0472 61.5995ZM242.657 61.6113C242.532 61.9196 241.898 63.8346 241.247 65.867L240.064 69.5622H235.535H231.006L231.226 69.8268C231.347 69.9724 232.965 71.1781 234.822 72.5063C236.679 73.8345 238.2 74.9818 238.201 75.0559C238.202 75.1299 237.593 77.0657 236.848 79.3574C236.103 81.6494 235.513 83.5446 235.538 83.569C235.562 83.5936 237.217 82.4302 239.215 80.9839L242.847 78.3541L246.515 80.9967C248.532 82.4501 250.182 83.582 250.182 83.512C250.182 83.4421 249.558 81.4922 248.794 79.179C247.945 76.605 247.488 74.9223 247.618 74.842C248.644 74.2063 254.584 69.8415 254.589 69.7198C254.593 69.633 252.579 69.5622 250.115 69.5622H245.635L244.26 65.3065L242.885 61.0508L242.657 61.6113ZM191.001 63.4844C189.38 63.955 184.622 69.8121 179.201 78.0106C173.781 86.2082 168.808 94.9186 163.687 105.184L160.437 111.699L159.323 112.75C158.71 113.328 157.283 114.321 156.152 114.956C155.021 115.592 153.775 116.467 153.383 116.901L152.669 117.69V118.529V119.367L153.694 120.414L154.718 121.46L154.545 122.359C154.272 123.78 153.529 125.786 150.987 131.979C144.225 148.446 143.044 153.847 144.83 160.14C146.671 166.633 152.472 169.121 158.103 165.832C164.846 161.894 169.624 155.132 173.143 144.545C174.36 140.886 175.76 135.542 176.304 132.484C177.308 126.835 176.78 121.408 174.877 117.81C173.636 115.465 171.37 113.677 169.236 113.361C168.736 113.286 168.113 113.093 167.853 112.93L167.38 112.635V111.919V111.204L168.168 110.549C169.325 109.587 173.656 107.534 176.312 106.688C179.987 105.517 181.965 105.204 185.733 105.193L189.06 105.184L189.367 105.604C189.805 106.201 189.628 106.661 188.062 108.998C185.261 113.178 183.599 117.347 183.163 121.287C182.655 125.885 184.101 129.02 187.467 130.612C189.075 131.373 190.356 131.609 192.809 131.598L195.016 131.588L197.059 131.062C198.182 130.772 199.919 130.202 200.918 129.795C206.149 127.662 213.116 122.66 218.183 117.4L220.318 115.183L220.569 114.345L220.82 113.507L220.55 112.856C220.158 111.909 219.281 111.532 217.705 111.632L216.397 111.716L215.668 112.215C215.267 112.49 214.688 113.111 214.381 113.595C212.368 116.778 206.643 121.381 201.455 123.988C196.537 126.46 193.027 126.925 191.156 125.351C190.542 124.834 189.867 123.295 189.867 122.413V121.958L191.391 121.367C196.695 119.311 202.543 115.49 206.969 111.188C210.922 107.346 212.162 105.066 212.19 101.582L212.204 99.8724L211.736 98.9044C210.652 96.6669 208.103 96.1375 204.43 97.3873C202.098 98.1806 198.67 100.1 195.976 102.121C194.555 103.187 193.941 103.212 192.504 102.258C191.908 101.862 190.811 101.323 190.066 101.06L188.711 100.582L186.084 100.576C182.119 100.568 178.502 101.553 173.278 104.065L170.665 105.321L170.178 105.099C169.886 104.966 169.692 104.695 169.692 104.419C169.692 103.442 175.196 94.0286 179.937 86.8975C184.438 80.1266 188.512 74.7771 192.776 70.0353C193.946 68.735 194.963 67.4297 195.037 67.1343C195.408 65.6562 194.339 63.8892 192.818 63.4668C191.962 63.2287 191.88 63.2295 191.001 63.4844ZM160.832 78.4716C158.622 79.2612 157.048 80.7243 155.972 82.989L155.334 84.3315L155.249 85.8261L155.164 87.3205L155.573 87.9678C155.798 88.3238 156.339 88.7847 156.777 88.9921L157.571 89.3691L158.82 89.2559C161.47 89.0157 164.217 86.9927 165.538 84.3094L166.215 82.9352L166.292 81.5551L166.369 80.1752L165.893 79.5708C164.916 78.3321 162.62 77.8332 160.832 78.4716ZM141.741 85.8961C140.958 86.1903 140.064 87.0507 137.454 90.0208C117.61 112.604 102.557 135.558 97.3978 151.103C95.5654 156.624 95.3931 158.213 96.4853 159.511C97.253 160.423 98.0449 160.771 99.3588 160.771H100.5L105.832 158.159C115.318 153.512 120.277 152.046 132.86 150.17L136.273 149.661L137.126 149.182C138.087 148.642 138.799 147.643 138.799 146.835C138.799 146.537 138.571 146.028 138.292 145.704L137.785 145.114L135.648 145.041C129.224 144.822 115.572 147.793 109.211 150.794C108.138 151.3 106.833 152.003 106.311 152.355C105.259 153.064 104.531 153.163 104.032 152.665C103.54 152.172 103.626 151.356 104.414 149.07C108.61 136.889 120.73 119.225 141.056 95.6669C143.179 93.2066 145.147 90.8529 145.43 90.4361C146.037 89.5413 146.116 88.1576 145.615 87.1886C145.077 86.1479 142.955 85.4398 141.741 85.8961ZM150.662 99.0213C149.83 99.7522 146.702 103.864 144.216 107.496C140.184 113.385 136.302 120.705 133.665 127.391L132.284 130.895V131.838V132.782L132.957 133.349L133.63 133.915L134.731 133.824C136.151 133.706 137.307 132.95 137.915 131.742C138.169 131.236 139.221 128.826 140.254 126.385C144.036 117.443 147.532 111.157 152.092 105.099C153 103.895 153.842 102.722 153.964 102.493C155.05 100.464 154.165 98.3538 152.228 98.3538H151.423L150.662 99.0213ZM202.581 102.532C201.146 103.192 199.282 104.749 196.537 107.582C193.128 111.1 191.807 112.7 191.181 114.065L190.675 115.17L190.813 115.799C190.974 116.534 191.63 117.058 192.389 117.058C193.192 117.058 195.663 115.798 197.328 114.54C199.2 113.125 203.12 109.656 204.434 108.251C205.604 107.001 206.049 106.068 206.049 104.869C206.049 102.505 204.667 101.574 202.581 102.532ZM64.2492 109.282C64.1364 109.571 63.4941 111.532 62.8221 113.639L61.5998 117.47L57.1463 117.527L52.6929 117.583L56.1554 120.105C58.0599 121.492 59.6529 122.722 59.6957 122.837C59.7384 122.953 59.1701 124.915 58.4327 127.198C57.6953 129.481 57.1304 131.349 57.1774 131.349C57.2243 131.349 58.8814 130.165 60.8598 128.718C63.2134 126.997 64.5382 126.153 64.6925 126.275C65.8662 127.209 71.6216 131.345 71.6739 131.293C71.7111 131.256 71.1325 129.338 70.3877 127.031C69.6431 124.724 69.0322 122.829 69.0301 122.818C69.028 122.808 70.6384 121.626 72.6087 120.191L76.1908 117.583L71.7214 117.478L67.252 117.373L65.8532 113.065L64.4543 108.757L64.2492 109.282ZM254.18 113.18L252.82 117.47L248.299 117.527L243.778 117.583L247.401 120.181C249.393 121.61 251.023 122.805 251.023 122.838C251.023 122.87 250.413 124.771 249.668 127.063C248.923 129.355 248.344 131.262 248.383 131.301C248.422 131.34 250.024 130.231 251.944 128.838C253.864 127.445 255.519 126.305 255.621 126.305C255.724 126.305 257.39 127.445 259.323 128.838C261.256 130.232 262.867 131.343 262.903 131.308C262.938 131.272 262.361 129.399 261.621 127.145C260.882 124.891 260.275 122.986 260.273 122.912C260.271 122.837 261.889 121.608 263.868 120.18L267.467 117.583L262.961 117.527L258.455 117.47L257.136 113.324C256.411 111.043 255.756 109.112 255.68 109.034C255.603 108.955 254.929 110.821 254.18 113.18ZM163.018 116.53C162.273 117.069 161.991 117.807 160.954 121.925C159.777 126.602 159.027 128.664 156.767 133.453C152.442 142.617 150.305 149.525 150.301 154.361L150.299 156.673L150.77 157.898C151.64 160.162 152.953 161.191 154.97 161.191C157.02 161.191 157.846 160.555 161.113 156.462C164.977 151.622 168.07 145.022 169.878 137.758C170.962 133.402 171.222 131.638 171.226 128.616L171.228 125.779L170.78 123.945C170.203 121.58 169.081 119.369 167.817 118.105C166.596 116.884 165.775 116.439 164.479 116.296L163.492 116.187L163.018 116.53ZM75.7579 160.977L74.4213 165.176L69.8848 165.232L65.3486 165.289L68.9738 167.906C70.9678 169.345 72.5984 170.574 72.5975 170.638C72.5969 170.701 71.9868 172.594 71.2422 174.844C70.4974 177.094 69.9254 178.973 69.9708 179.018C70.0162 179.063 71.5955 177.983 73.4802 176.618C75.3651 175.252 77.0491 174.135 77.2225 174.135C77.3959 174.135 79.0798 175.252 80.9647 176.618C82.8494 177.983 84.4258 179.067 84.4674 179.025C84.5091 178.983 83.9376 177.105 83.1977 174.851C82.4577 172.597 81.8508 170.701 81.8491 170.638C81.8474 170.574 83.4772 169.345 85.4712 167.906L89.0964 165.289L84.5595 165.232L80.0226 165.176L78.6766 160.977C77.9362 158.667 77.2775 156.778 77.2126 156.778C77.1477 156.778 76.493 158.667 75.7579 160.977ZM241.335 160.933L239.959 165.079L235.456 165.184L230.953 165.289L232.529 166.462C233.396 167.107 235.023 168.31 236.145 169.136L238.185 170.638L237.995 171.221C236.026 177.254 235.447 179.099 235.506 179.151C235.544 179.186 237.171 178.038 239.121 176.599C241.07 175.161 242.772 174.026 242.903 174.077C243.035 174.128 244.642 175.274 246.475 176.624C248.308 177.974 249.859 179.028 249.92 178.966C249.982 178.904 249.432 177.002 248.698 174.738C247.849 172.12 247.442 170.569 247.579 170.477C247.698 170.398 249.341 169.198 251.23 167.811L254.664 165.289L250.123 165.232L245.581 165.176L244.29 161.134C243.58 158.912 242.934 157.024 242.855 156.94C242.775 156.856 242.091 158.653 241.335 160.933ZM110.803 195.919L109.416 200.175L104.973 200.28L100.531 200.385L104.098 202.982C106.06 204.411 107.63 205.687 107.586 205.819C105.543 212.069 104.941 213.988 105.004 214.052C105.047 214.094 106.403 213.163 108.017 211.982C109.632 210.802 111.251 209.624 111.615 209.367L112.276 208.898L115.868 211.525C117.843 212.969 119.496 214.151 119.541 214.151C119.586 214.151 119.017 212.288 118.276 210.01C117.536 207.733 116.971 205.762 117.022 205.63C117.073 205.497 118.657 204.263 120.543 202.887L123.971 200.385L119.556 200.329L115.141 200.272L113.79 196.126C113.047 193.845 112.384 191.908 112.315 191.821C112.247 191.733 111.567 193.577 110.803 195.919ZM206.355 195.947L204.952 200.272L200.523 200.329L196.094 200.385L199.589 202.907C201.511 204.294 203.089 205.574 203.095 205.751C203.102 205.928 202.538 207.772 201.842 209.849C201.147 211.926 200.603 213.733 200.634 213.865C200.665 213.997 202.156 213.024 203.948 211.703C205.739 210.381 207.354 209.214 207.536 209.11L207.868 208.921L211.423 211.519C213.379 212.948 215.009 214.087 215.047 214.049C215.085 214.012 214.507 212.088 213.763 209.775L212.41 205.569L215.975 202.977L219.541 200.385L215.113 200.329L210.685 200.272L209.308 196.033C208.55 193.701 207.891 191.754 207.844 191.707C207.797 191.66 207.126 193.568 206.355 195.947ZM158.548 208.752L157.176 212.995L152.713 213.1L148.25 213.205L151.841 215.798C154.157 217.472 155.393 218.492 155.323 218.674C154.965 219.607 152.676 226.837 152.724 226.885C152.755 226.916 154.405 225.771 156.39 224.34L159.999 221.737L163.427 224.206C167.465 227.116 167.401 227.074 167.289 226.718C167.242 226.568 166.619 224.668 165.906 222.497L164.608 218.55L164.821 218.294C164.938 218.154 166.546 216.951 168.394 215.622L171.755 213.205L167.292 213.148L162.829 213.092L161.51 208.945C160.785 206.665 160.13 204.733 160.055 204.654C159.981 204.574 159.302 206.418 158.548 208.752Z" fill="white"/>
</svg>
