<svg width="333" height="240" viewBox="0 0 333 240" fill="none" xmlns="http://www.w3.org/2000/svg">
<g clip-path="url(#clip0_381_672)">
<path fill-rule="evenodd" clip-rule="evenodd" d="M0 120V240L166.077 239.948L332.154 239.895L332.207 119.947L332.26 0H166.13H0V120ZM0.104448 120.105C0.104448 186.105 0.128406 213.136 0.157618 180.175C0.18683 147.213 0.18683 93.2133 0.157618 60.1749C0.128406 27.1364 0.104448 54.1051 0.104448 120.105ZM164.657 17.4916L163.232 21.8484L158.732 21.9049L154.232 21.9615L157.732 24.4676C159.657 25.846 161.269 27.0754 161.315 27.1997C161.361 27.3239 160.795 29.2932 160.058 31.5762C159.322 33.8591 158.754 35.7268 158.798 35.7268C158.841 35.7268 160.45 34.5919 162.373 33.2049C164.295 31.8179 165.961 30.683 166.073 30.683C166.186 30.683 167.847 31.8156 169.764 33.1997C171.682 34.5837 173.283 35.6839 173.322 35.6442C173.378 35.5885 171.137 28.5018 170.719 27.414C170.671 27.2881 172.267 26.0099 174.265 24.5733L177.898 21.9615L173.386 21.8564L168.874 21.7513L167.478 17.4431L166.081 13.1349L164.657 17.4916ZM116.818 30.3152L115.454 34.5709L110.967 34.676L106.48 34.7811L109.93 37.2849C111.828 38.6621 113.447 39.8457 113.53 39.9148C113.613 39.9842 113.065 41.9193 112.313 44.2151C111.561 46.5108 110.984 48.4275 111.031 48.4739C111.095 48.538 116.623 44.5894 118.015 43.4852C118.15 43.378 119.627 44.3296 121.798 45.9218C123.756 47.3586 125.423 48.5367 125.501 48.5403C125.579 48.5437 125.092 46.8967 124.417 44.8802C123.743 42.8637 123.13 40.9353 123.055 40.5949L122.919 39.9758L126.471 37.3784L130.024 34.7811L125.567 34.7246L121.111 34.668L119.706 30.3638C118.934 27.9964 118.275 26.0595 118.242 26.0595C118.209 26.0595 117.569 27.9747 116.818 30.3152ZM212.386 30.3152L210.977 34.676H206.441H201.904L205.243 37.1077C207.079 38.4452 208.717 39.6721 208.883 39.8339L209.185 40.1285L207.86 44.2428C207.132 46.5056 206.573 48.394 206.618 48.4392C206.663 48.4846 208.304 47.3517 210.264 45.9218C212.335 44.4105 213.917 43.3921 214.042 43.49C215.861 44.921 220.987 48.5239 221.025 48.3989C221.054 48.3066 220.477 46.3908 219.743 44.1413L218.409 40.0514L219.275 39.4018C219.751 39.0446 221.365 37.8586 222.862 36.7667L225.584 34.7811L221.119 34.676L216.655 34.5709L215.225 30.2627L213.794 25.9545L212.386 30.3152ZM83.0471 61.5995C82.9444 61.8757 82.3059 63.7784 81.6286 65.8279L80.3968 69.5542L75.9058 69.6107L71.4147 69.6673L75.0069 72.2864C76.9824 73.7271 78.5989 74.9899 78.5989 75.0927C78.5989 75.1954 78.0235 77.0745 77.3201 79.2681C76.6167 81.4619 76.0863 83.3016 76.1412 83.3565C76.196 83.4113 77.7407 82.3519 79.5741 81.0023C81.4073 79.6525 83.0181 78.505 83.1537 78.4523C83.2892 78.3995 84.9726 79.5096 86.8945 80.9191C88.8162 82.3286 90.4296 83.4408 90.4798 83.3905C90.53 83.3403 89.9479 81.4321 89.1861 79.1502C88.4245 76.8681 87.835 74.9716 87.8761 74.9357C87.9173 74.9 89.5582 73.7 91.5228 72.269L95.0949 69.6673L90.5842 69.5622L86.0734 69.4571L84.7652 65.3886C84.0456 63.1511 83.4067 61.2702 83.3456 61.209C83.2842 61.1477 83.1499 61.3236 83.0471 61.5995ZM248.657 61.6113C248.532 61.9196 247.898 63.8345 247.247 65.867L246.064 69.5622H241.535H237.006L237.226 69.8268C237.347 69.9724 238.965 71.1781 240.822 72.5063C242.679 73.8345 244.2 74.9817 244.201 75.0559C244.202 75.1299 243.593 77.0656 242.848 79.3574C242.103 81.6494 241.513 83.5446 241.538 83.569C241.562 83.5936 243.217 82.4301 245.215 80.9838L248.847 78.3541L252.515 80.9966C254.532 82.4501 256.182 83.582 256.182 83.512C256.182 83.442 255.558 81.4922 254.794 79.179C253.945 76.605 253.488 74.9222 253.618 74.842C254.644 74.2062 260.584 69.8415 260.589 69.7198C260.593 69.633 258.579 69.5622 256.115 69.5622H251.635L250.26 65.3065L248.885 61.0508L248.657 61.6113ZM197.001 63.4844C195.38 63.955 190.622 69.8121 185.201 78.0105C179.781 86.2081 174.808 94.9185 169.687 105.184L166.437 111.699L165.323 112.75C164.71 113.327 163.283 114.32 162.152 114.956C161.021 115.592 159.775 116.467 159.382 116.901L158.669 117.69V118.528V119.367L159.694 120.414L160.718 121.46L160.545 122.359C160.272 123.779 159.529 125.786 156.986 131.979C150.225 148.446 149.044 153.847 150.83 160.14C152.671 166.633 158.472 169.121 164.103 165.832C170.846 161.894 175.623 155.132 179.143 144.545C180.36 140.886 181.76 135.542 182.304 132.484C183.308 126.835 182.78 121.408 180.877 117.81C179.636 115.465 177.369 113.677 175.236 113.36C174.736 113.286 174.113 113.093 173.853 112.93L173.38 112.635V111.919V111.204L174.168 110.549C175.325 109.587 179.656 107.534 182.312 106.688C185.987 105.517 187.965 105.204 191.733 105.193L195.059 105.184L195.367 105.604C195.805 106.201 195.628 106.661 194.062 108.998C191.261 113.178 189.599 117.347 189.163 121.287C188.655 125.885 190.101 129.02 193.466 130.612C195.075 131.373 196.356 131.609 198.809 131.598L201.016 131.588L203.059 131.062C204.182 130.772 205.919 130.202 206.918 129.795C212.149 127.662 219.116 122.66 224.183 117.4L226.318 115.183L226.569 114.345L226.82 113.507L226.55 112.856C226.158 111.909 225.281 111.532 223.705 111.632L222.397 111.716L221.668 112.215C221.267 112.49 220.688 113.111 220.381 113.595C218.368 116.778 212.643 121.381 207.455 123.988C202.537 126.46 199.027 126.924 197.156 125.351C196.542 124.834 195.867 123.295 195.867 122.413V121.958L197.391 121.367C202.695 119.311 208.543 115.49 212.969 111.188C216.922 107.346 218.161 105.066 218.19 101.582L218.204 99.8724L217.735 98.9044C216.652 96.6668 214.103 96.1374 210.43 97.3873C208.097 98.1806 204.67 100.1 201.976 102.121C200.555 103.187 199.941 103.212 198.504 102.258C197.908 101.862 196.811 101.323 196.066 101.06L194.711 100.582L192.084 100.576C188.119 100.568 184.502 101.553 179.278 104.065L176.665 105.321L176.178 105.099C175.886 104.966 175.692 104.695 175.692 104.419C175.692 103.441 181.196 94.0285 185.937 86.8974C190.438 80.1266 194.512 74.777 198.776 70.0352C199.946 68.735 200.963 67.4297 201.037 67.1342C201.408 65.6562 200.339 63.8892 198.818 63.4668C197.962 63.2287 197.88 63.2295 197.001 63.4844ZM166.832 78.4716C164.622 79.2612 163.048 80.7243 161.972 82.9889L161.334 84.3314L161.249 85.8261L161.164 87.3205L161.573 87.9678C161.798 88.3238 162.339 88.7847 162.777 88.9921L163.571 89.3691L164.82 89.2558C167.47 89.0156 170.217 86.9926 171.538 84.3094L172.215 82.9351L172.292 81.555L172.369 80.1751L171.893 79.5707C170.916 78.332 168.62 77.8331 166.832 78.4716ZM147.741 85.896C146.958 86.1903 146.064 87.0506 143.454 90.0208C123.61 112.604 108.557 135.558 103.398 151.103C101.565 156.624 101.393 158.213 102.485 159.511C103.253 160.423 104.045 160.771 105.359 160.771H106.5L111.832 158.159C121.318 153.512 126.277 152.046 138.86 150.17L142.273 149.661L143.126 149.182C144.087 148.642 144.799 147.643 144.799 146.835C144.799 146.537 144.571 146.028 144.292 145.704L143.785 145.114L141.648 145.041C135.224 144.822 121.572 147.793 115.211 150.794C114.138 151.3 112.833 152.003 112.311 152.355C111.259 153.064 110.531 153.163 110.032 152.665C109.54 152.172 109.626 151.356 110.414 149.07C114.61 136.888 126.73 119.225 147.056 95.6669C149.179 93.2066 151.147 90.8528 151.43 90.4361C152.037 89.5412 152.116 88.1576 151.615 87.1885C151.077 86.1478 148.955 85.4398 147.741 85.896ZM156.662 99.0212C155.83 99.7522 152.702 103.863 150.216 107.496C146.184 113.385 142.302 120.705 139.665 127.391L138.284 130.895V131.838V132.782L138.957 133.349L139.63 133.915L140.731 133.824C142.151 133.706 143.306 132.95 143.914 131.742C144.169 131.236 145.221 128.826 146.254 126.385C150.036 117.443 153.532 111.157 158.092 105.099C159 103.895 159.842 102.722 159.964 102.493C161.05 100.464 160.164 98.3538 158.228 98.3538H157.423L156.662 99.0212ZM208.581 102.532C207.146 103.192 205.282 104.749 202.537 107.582C199.128 111.1 197.807 112.7 197.181 114.065L196.675 115.17L196.813 115.799C196.974 116.534 197.63 117.058 198.389 117.058C199.192 117.058 201.663 115.798 203.327 114.54C205.2 113.125 209.12 109.656 210.434 108.251C211.604 107 212.049 106.068 212.049 104.869C212.049 102.505 210.667 101.574 208.581 102.532ZM70.2492 109.282C70.1363 109.571 69.4941 111.531 68.822 113.639L67.5997 117.47L63.1463 117.527L58.6928 117.583L62.1554 120.105C64.0598 121.492 65.6528 122.722 65.6957 122.837C65.7384 122.953 65.1701 124.915 64.4326 127.198C63.6952 129.481 63.1303 131.349 63.1774 131.349C63.2242 131.349 64.8813 130.165 66.8598 128.718C69.2133 126.997 70.5381 126.153 70.6924 126.275C71.8661 127.209 77.6215 131.345 77.6738 131.293C77.711 131.256 77.1325 129.338 76.3877 127.031C75.6431 124.724 75.0322 122.829 75.0301 122.818C75.028 122.808 76.6384 121.626 78.6086 120.191L82.1908 117.583L77.7213 117.478L73.2519 117.373L71.8531 113.065L70.4543 108.757L70.2492 109.282ZM260.18 113.18L258.82 117.47L254.299 117.527L249.778 117.583L253.4 120.181C255.393 121.61 257.023 122.805 257.023 122.838C257.023 122.87 256.413 124.771 255.668 127.063C254.922 129.355 254.344 131.262 254.383 131.301C254.422 131.34 256.024 130.231 257.944 128.838C259.864 127.445 261.518 126.305 261.621 126.305C261.724 126.305 263.39 127.445 265.323 128.838C267.256 130.232 268.867 131.343 268.903 131.308C268.938 131.272 268.361 129.399 267.621 127.145C266.881 124.891 266.275 122.986 266.273 122.912C266.271 122.837 267.889 121.607 269.868 120.179L273.467 117.583L268.961 117.527L264.455 117.47L263.136 113.324C262.411 111.043 261.756 109.112 261.679 109.034C261.603 108.955 260.929 110.821 260.18 113.18ZM169.018 116.53C168.273 117.069 167.991 117.807 166.954 121.925C165.777 126.601 165.027 128.664 162.767 133.453C158.442 142.617 156.305 149.525 156.301 154.361L156.299 156.673L156.77 157.898C157.64 160.162 158.953 161.191 160.97 161.191C163.019 161.191 163.846 160.555 167.113 156.462C170.977 151.622 174.07 145.022 175.878 137.758C176.962 133.402 177.222 131.637 177.225 128.616L177.228 125.779L176.78 123.945C176.203 121.58 175.081 119.369 173.817 118.105C172.596 116.884 171.775 116.439 170.479 116.296L169.492 116.186L169.018 116.53ZM81.7578 160.977L80.4212 165.176L75.8848 165.232L71.3485 165.289L74.9737 167.906C76.9677 169.345 78.5983 170.574 78.5975 170.638C78.5968 170.701 77.9868 172.594 77.2422 174.844C76.4974 177.094 75.9253 178.973 75.9707 179.018C76.0161 179.063 77.5954 177.983 79.4801 176.618C81.365 175.252 83.049 174.135 83.2224 174.135C83.3958 174.135 85.0798 175.252 86.9647 176.618C88.8494 177.983 90.4258 179.066 90.4674 179.025C90.509 178.983 89.9376 177.105 89.1976 174.851C88.4577 172.597 87.8507 170.701 87.849 170.638C87.8474 170.574 89.4771 169.345 91.4711 167.906L95.0963 165.289L90.5594 165.232L86.0226 165.176L84.6765 160.977C83.9361 158.667 83.2775 156.778 83.2125 156.778C83.1476 156.778 82.493 158.667 81.7578 160.977ZM247.335 160.933L245.959 165.079L241.456 165.184L236.953 165.289L238.529 166.462C239.396 167.107 241.023 168.31 242.145 169.136L244.185 170.638L243.995 171.221C242.026 177.254 241.447 179.099 241.506 179.151C241.544 179.186 243.171 178.038 245.12 176.599C247.07 175.161 248.772 174.026 248.903 174.077C249.034 174.128 250.642 175.274 252.475 176.624C254.308 177.974 255.859 179.028 255.92 178.966C255.982 178.904 255.432 177.002 254.698 174.738C253.849 172.12 253.442 170.569 253.579 170.477C253.698 170.398 255.34 169.198 257.23 167.811L260.664 165.289L256.123 165.232L251.581 165.176L250.29 161.134C249.58 158.912 248.934 157.024 248.855 156.94C248.775 156.856 248.091 158.653 247.335 160.933ZM116.803 195.919L115.416 200.175L110.973 200.28L106.531 200.385L110.098 202.982C112.06 204.411 113.629 205.687 113.586 205.819C111.543 212.069 110.941 213.988 111.004 214.052C111.047 214.094 112.403 213.163 114.017 211.982C115.632 210.802 117.251 209.624 117.614 209.367L118.276 208.898L121.868 211.524C123.843 212.969 125.496 214.151 125.541 214.151C125.586 214.151 125.017 212.288 124.276 210.01C123.535 207.733 122.971 205.762 123.022 205.63C123.073 205.497 124.657 204.263 126.543 202.887L129.971 200.385L125.556 200.329L121.141 200.272L119.79 196.126C119.047 193.845 118.383 191.908 118.315 191.821C118.247 191.733 117.567 193.577 116.803 195.919ZM212.355 195.947L210.952 200.272L206.523 200.329L202.094 200.385L205.589 202.907C207.511 204.294 209.089 205.574 209.095 205.751C209.102 205.928 208.538 207.772 207.842 209.849C207.146 211.926 206.603 213.733 206.634 213.865C206.665 213.997 208.156 213.024 209.947 211.702C211.739 210.381 213.354 209.214 213.536 209.11L213.868 208.921L217.423 211.519C219.379 212.948 221.009 214.087 221.047 214.049C221.085 214.012 220.507 212.088 219.763 209.775L218.41 205.569L221.975 202.977L225.541 200.385L221.113 200.329L216.685 200.272L215.308 196.033C214.55 193.701 213.891 191.754 213.844 191.707C213.796 191.66 213.126 193.568 212.355 195.947ZM164.548 208.752L163.176 212.995L158.713 213.1L154.25 213.205L157.841 215.798C160.157 217.472 161.393 218.492 161.323 218.674C160.965 219.607 158.676 226.837 158.724 226.885C158.755 226.916 160.405 225.771 162.39 224.34L165.999 221.737L169.427 224.206C173.465 227.116 173.401 227.074 173.289 226.718C173.242 226.568 172.619 224.668 171.906 222.497L170.608 218.55L170.821 218.294C170.938 218.153 172.546 216.951 174.394 215.622L177.755 213.205L173.292 213.148L168.829 213.092L167.51 208.945C166.785 206.665 166.13 204.733 166.055 204.654C165.981 204.574 165.302 206.418 164.548 208.752Z" fill="white"/>
</g>
<defs>
<clipPath id="clip0_381_672">
<rect width="332.049" height="240" fill="white"/>
</clipPath>
</defs>
</svg>
