<svg width="211" height="80" viewBox="0 0 211 80" fill="none" xmlns="http://www.w3.org/2000/svg">
<path d="M20 80L0 58.6667V0H190.667L210.667 21.3333V80H20Z" fill="#284636"/>
<path d="M184 6.66675V52.0001H6.6665V6.66675H184Z" fill="white"/>
<path fill-rule="evenodd" clip-rule="evenodd" d="M82.1439 23.0938C83.6546 23.0939 84.9433 23.4315 86.0098 24.1069C87.0764 24.7824 87.8953 25.7604 88.4642 27.0404C89.0508 28.3026 89.3431 29.8501 89.3431 31.6811C89.3431 31.9653 89.3252 32.2318 89.2897 32.4806C89.272 32.7292 89.2541 32.9601 89.2363 33.1733H78.7155C78.8424 34.1424 79.1023 34.9255 79.5033 35.5209C80.0899 36.3742 81.0063 36.8009 82.2507 36.8009C82.9615 36.8008 83.5834 36.6402 84.1165 36.3204C84.6676 35.9826 85.1395 35.512 85.5306 34.9076H89.6908C89.3353 36.0984 88.8014 37.1113 88.0905 37.9467C87.3794 38.7823 86.5166 39.4228 85.5033 39.8673C84.5079 40.2938 83.3881 40.5066 82.1439 40.5066C80.5439 40.5066 79.1653 40.1609 78.0098 39.4675C76.8721 38.7742 75.9926 37.7687 75.3704 36.4532C74.7661 35.1377 74.4642 33.5558 74.4642 31.7071C74.4642 29.9472 74.7743 28.4272 75.3965 27.1472C76.0365 25.8494 76.9349 24.8536 78.0905 24.1602C79.246 23.4493 80.5974 23.0938 82.1439 23.0938ZM82.1439 26.8009C80.9884 26.8009 80.1077 27.2358 79.5033 28.1069C79.1416 28.633 78.892 29.2912 78.7533 30.0808H85.4173C85.2859 29.2335 85.0394 28.5491 84.6764 28.0274C84.1254 27.2097 83.2815 26.8009 82.1439 26.8009Z" fill="#284636"/>
<path fill-rule="evenodd" clip-rule="evenodd" d="M140.261 39.9988H135.941V38.4519H134.954C134.634 39.0563 134.145 39.5365 133.488 39.892C132.83 40.2476 132.1 40.4259 131.3 40.4259C129.985 40.4258 128.838 40.0787 127.86 39.3855C126.882 38.6744 126.128 37.6783 125.594 36.3985C125.061 35.1009 124.794 33.5724 124.794 31.8126C124.794 30.0348 125.061 28.5053 125.594 27.2253C126.128 25.9278 126.882 24.9316 127.86 24.2384C128.838 23.5273 129.985 23.1721 131.3 23.172C132.1 23.172 132.83 23.3503 133.488 23.7058C134.145 24.0436 134.634 24.5238 134.954 25.1459H135.941V17.3855H140.261V39.9988ZM132.58 27.0118C131.443 27.0119 130.553 27.4386 129.913 28.2917C129.273 29.1273 128.954 30.3015 128.954 31.8126C128.954 33.3233 129.274 34.4967 129.913 35.3321C130.553 36.1675 131.443 36.5859 132.58 36.586C133.736 36.586 134.634 36.1677 135.274 35.3321C135.914 34.4788 136.234 33.2963 136.234 31.7852C136.234 30.2744 135.914 29.1012 135.274 28.2657C134.634 27.4302 133.736 27.0118 132.58 27.0118Z" fill="#284636"/>
<path fill-rule="evenodd" clip-rule="evenodd" d="M158.532 23.0938C160.807 23.0938 162.551 23.6274 163.76 24.6941C164.968 25.7429 165.572 27.2716 165.572 29.28V40.0001H161.359V38.3738H160.373C160.053 39.0313 159.59 39.5378 158.986 39.8933C158.382 40.2311 157.599 40.4011 156.639 40.4011C155.643 40.4011 154.764 40.2049 153.999 39.8139C153.235 39.4051 152.64 38.8451 152.213 38.1342C151.786 37.4054 151.572 36.5697 151.572 35.6277C151.572 34.1879 152.017 33.023 152.906 32.1342C153.812 31.2454 155.11 30.6678 156.799 30.4011L161.359 29.6746V29.6003C161.359 28.6938 161.119 28.0092 160.639 27.547C160.176 27.0672 159.466 26.8269 158.506 26.8269C157.866 26.8269 157.297 26.9339 156.799 27.1472C156.301 27.3605 155.902 27.672 155.6 28.0808C155.297 28.4719 155.093 28.952 154.986 29.5209H150.826C150.951 28.1876 151.342 27.0408 151.999 26.0808C152.657 25.1209 153.537 24.3828 154.639 23.8673C155.759 23.3518 157.057 23.0939 158.532 23.0938ZM157.732 33.4402C157.164 33.5291 156.719 33.7336 156.399 34.0535C156.097 34.3557 155.946 34.7384 155.946 35.2006C155.946 35.6983 156.106 36.0989 156.426 36.4011C156.764 36.6851 157.244 36.8268 157.865 36.8269C158.523 36.8269 159.11 36.6854 159.626 36.4011C160.159 36.1167 160.577 35.7423 160.88 35.28C161.199 34.8002 161.359 34.2758 161.359 33.7071V32.8972L157.732 33.4402Z" fill="#284636"/>
<path d="M29.653 35.7332H38.4798V40.0001H25.1465V18.6667H29.653V35.7332Z" fill="#284636"/>
<path d="M110.575 36.1602H115.402V40.0001H101.455V36.1602H106.256V27.4402H101.455V23.6003H110.575V36.1602Z" fill="#284636"/>
<path d="M58.9121 36.1589H63.7116V39.9988H49.765V36.1589H54.5918V21.2253H49.765V17.3855H58.9121V36.1589Z" fill="#284636"/>
<path d="M108.202 16.5339C109.091 16.534 109.766 16.7563 110.229 17.2006C110.708 17.645 110.949 18.2761 110.949 19.0938C110.949 19.9116 110.709 20.5426 110.229 20.9871C109.766 21.4314 109.091 21.6537 108.202 21.6537C107.331 21.6537 106.655 21.4315 106.175 20.9871C105.695 20.5426 105.455 19.9115 105.455 19.0938C105.455 18.2762 105.695 17.645 106.175 17.2006C106.655 16.7562 107.331 16.5339 108.202 16.5339Z" fill="#284636"/>
</svg>
