<svg width="466" height="240" viewBox="0 0 466 240" fill="none" xmlns="http://www.w3.org/2000/svg">
<path d="M295.883 153.731V184.937H264.139V195.563H306.509V153.731H295.883Z" fill="white"/>
<path d="M154.515 43.8372V85.8038H165.275V54.5978H196.885V43.8372H154.515Z" fill="white"/>
<path d="M56.7264 110.823L48.5214 112.84C47.4453 109.747 45.4277 108.267 42.4685 108.267C40.0473 108.267 38.9713 109.209 38.9713 111.226C38.9713 112.302 39.3748 113.109 40.3163 113.647C41.2579 114.185 43.141 114.858 45.8312 115.665C48.9249 116.606 51.2115 117.279 52.6911 118.086C54.1707 118.759 55.3813 119.835 56.4574 121.18C57.3989 122.525 57.937 124.139 57.937 125.888C57.937 128.981 56.5919 131.537 53.7672 133.689C51.077 135.841 47.3108 136.783 42.334 136.783C33.0529 136.783 27.9416 133.555 27 126.964L36.1466 125.753C36.9536 128.981 38.9713 130.73 42.603 130.73C45.5622 130.73 47.0418 129.654 47.0418 127.502C47.0418 126.426 46.6383 125.619 45.6967 125.081C44.8896 124.542 43.141 123.87 40.5854 123.332C35.8776 122.121 32.6494 120.642 30.9007 118.893C29.0176 117.145 28.2106 115.127 28.2106 112.84C28.2106 109.612 29.5557 107.056 32.3803 105.173C35.205 103.29 38.7022 102.349 42.872 102.349C50.001 102.214 54.7088 105.039 56.7264 110.823Z" fill="white"/>
<path d="M82.8213 115.665C82.8213 115.261 82.8213 114.992 82.8213 114.723C82.8213 110.419 80.9382 108.267 77.441 108.267C73.9437 108.267 72.0606 110.688 72.0606 115.665H82.8213ZM93.7165 121.045H72.0606V122.928C72.0606 125.887 72.5987 127.905 73.5402 128.981C74.6163 130.057 75.8269 130.461 77.441 130.461C80.9382 130.461 82.9558 128.578 83.3593 124.811L93.582 125.349C91.6989 133.016 86.3185 136.917 77.3065 136.917C71.6571 136.917 67.3528 135.437 64.5281 132.344C61.569 129.25 60.0894 125.215 60.0894 120.104C60.0894 114.32 61.7035 109.881 64.6626 106.787C67.7563 103.693 71.9261 102.214 77.1719 102.214C81.8797 102.214 85.7805 103.559 88.8742 106.249C92.1024 108.939 93.7165 113.782 93.7165 121.045Z" fill="white"/>
<path d="M98.8281 103.021H109.723V107.46C111.606 103.962 114.969 102.214 119.677 102.214C124.519 102.214 127.478 103.962 128.555 107.46C130.438 103.962 133.8 102.214 138.643 102.214C141.333 102.214 143.485 102.617 145.099 103.424C146.713 104.231 147.789 105.308 148.462 106.653C149.134 108.132 149.403 110.553 149.403 114.454V136.11H137.97V115.261C137.97 112.84 137.701 111.226 137.298 110.419C136.76 109.612 135.818 109.343 134.338 109.343C132.455 109.343 131.245 109.881 130.707 110.822C130.169 111.764 129.9 113.782 129.9 116.741V136.11H118.466V114.992C118.466 112.706 118.197 111.091 117.794 110.419C117.39 109.746 116.449 109.343 114.969 109.343C113.221 109.343 112.01 109.881 111.337 110.822C110.799 111.898 110.396 113.782 110.396 116.606V135.976H98.9626L98.8281 103.021Z" fill="white"/>
<path d="M165.813 122.659C165.813 125.753 166.082 127.905 166.755 128.847C167.427 129.788 168.638 130.192 170.656 130.192C172.404 130.192 173.615 129.519 174.556 128.309C175.363 127.098 175.767 124.005 175.767 119.028C175.767 114.992 175.498 112.168 174.691 110.688C173.884 109.209 172.673 108.536 170.925 108.536C169.58 108.536 168.235 109.074 167.293 109.881C166.351 110.823 165.813 112.84 165.813 116.203V122.659ZM154.515 103.021H165.141V107.863C167.427 104.232 170.521 102.483 174.556 102.483C178.323 102.483 181.416 103.828 183.972 106.518C186.393 109.209 187.738 113.378 187.738 118.893C187.738 124.677 186.528 129.116 184.107 132.075C181.685 135.034 178.188 136.514 173.749 136.514C170.521 136.514 167.966 135.572 165.948 133.555V147.275H154.649L154.515 103.021Z" fill="white"/>
<path d="M214.237 115.665C214.237 115.261 214.237 114.992 214.237 114.723C214.237 110.419 212.488 108.267 208.856 108.267C205.359 108.267 203.61 110.688 203.476 115.665H214.237ZM224.997 121.045H203.341V122.928C203.341 125.887 203.879 127.905 204.821 128.981C205.763 130.057 207.108 130.461 208.722 130.461C212.219 130.461 214.102 128.578 214.64 124.811L224.863 125.349C222.98 133.016 217.599 136.917 208.453 136.917C202.803 136.917 198.634 135.437 195.674 132.344C192.715 129.25 191.37 125.215 191.37 120.104C191.37 114.32 192.85 109.881 196.078 106.787C199.172 103.693 203.207 102.214 208.453 102.214C213.161 102.214 217.061 103.559 220.155 106.249C223.518 108.939 224.997 113.782 224.997 121.045Z" fill="white"/>
<path d="M231.184 103.021H241.138V110.957C243.021 105.308 246.249 102.483 250.822 102.483C251.36 102.483 252.033 102.483 252.84 102.618V111.764C252.033 111.63 251.36 111.63 250.957 111.63C245.307 111.63 242.617 114.992 242.617 121.852V136.11H231.184V103.021Z" fill="white"/>
<path d="M276.917 112.437C276.917 109.074 275.707 107.325 273.42 107.325C271.94 107.325 270.999 107.729 270.326 108.536C269.788 109.343 269.519 110.822 269.519 112.706C269.519 115.934 270.864 117.548 273.42 117.548C274.765 117.548 275.572 117.279 276.11 116.337C276.648 115.53 276.917 114.185 276.917 112.437ZM268.443 133.958C266.022 134.899 264.946 136.245 264.946 137.859C264.946 140.145 268.04 141.221 274.227 141.221C279.473 141.221 282.163 140.011 282.163 137.859C282.163 137.052 281.894 136.245 281.356 135.707C280.818 135.168 280.011 134.899 279.204 134.63C278.262 134.496 276.379 134.361 273.554 134.361C271.671 134.227 270.057 134.092 268.443 133.958ZM292.251 97.7751V103.693C291.444 103.559 290.637 103.424 289.83 103.424C287.543 103.424 286.064 104.366 285.526 106.249C287.543 107.863 288.485 110.015 288.485 112.706C288.485 115.53 287.14 117.951 284.45 119.7C281.759 121.449 278.262 122.39 273.958 122.39C272.344 122.39 270.595 122.256 268.712 121.852C266.964 122.659 266.156 123.601 266.156 124.542C266.156 125.349 266.694 125.887 267.636 126.156C268.578 126.425 271.268 126.56 275.707 126.829C279.607 127.098 282.701 127.367 284.719 127.771C286.736 128.309 288.35 129.116 289.695 130.595C291.041 131.94 291.713 133.823 291.713 135.976C291.713 143.239 285.257 146.871 272.209 146.871C261.18 146.871 255.799 144.315 255.799 139.069C255.799 136.245 257.951 134.092 262.39 133.016C258.893 131.671 257.144 129.788 257.144 127.367C257.144 124.677 259.431 122.256 264.139 120.238C260.238 118.624 258.22 115.934 258.22 112.168C258.22 108.939 259.566 106.518 262.256 104.77C264.946 103.021 268.712 102.214 273.285 102.214C276.379 102.214 279.204 102.617 281.894 103.559C282.163 101.272 282.836 99.6582 284.046 98.7167C285.122 97.7751 286.871 97.2371 289.292 97.2371C290.234 97.3716 291.31 97.5061 292.251 97.7751Z" fill="white"/>
<path d="M295.479 103.155H305.299V110.957C307.047 105.442 310.141 102.752 314.714 102.752C315.252 102.752 315.925 102.752 316.597 102.886V111.764C315.79 111.63 315.252 111.63 314.714 111.63C309.334 111.63 306.644 114.992 306.644 121.583V135.438H295.479V103.155Z" fill="white"/>
<path d="M340.54 115.53C340.54 115.127 340.675 114.858 340.675 114.589C340.675 110.419 338.926 108.267 335.429 108.267C332.066 108.267 330.317 110.688 330.183 115.396H340.54V115.53ZM351.166 120.776H330.183V122.525C330.183 125.484 330.721 127.367 331.663 128.443C332.604 129.385 333.949 129.923 335.429 129.923C338.792 129.923 340.809 128.04 341.213 124.408L351.166 124.946C349.418 132.479 344.037 136.245 335.294 136.245C329.914 136.245 325.744 134.765 322.92 131.806C320.095 128.847 318.615 124.812 318.615 119.835C318.615 114.185 320.095 109.881 323.189 106.922C326.148 103.963 330.183 102.483 335.294 102.483C339.868 102.483 343.768 103.828 346.728 106.384C349.687 108.94 351.166 113.782 351.166 120.776Z" fill="white"/>
<path d="M376.319 115.53C376.319 115.127 376.319 114.858 376.319 114.589C376.319 110.419 374.57 108.267 371.073 108.267C367.71 108.267 365.962 110.688 365.827 115.396H376.319V115.53ZM386.945 120.776H365.962V122.525C365.962 125.484 366.365 127.367 367.441 128.443C368.383 129.385 369.728 129.923 371.342 129.923C374.705 129.923 376.588 128.04 377.126 124.408L387.079 124.946C385.331 132.479 379.95 136.245 371.207 136.245C365.693 136.245 361.657 134.765 358.833 131.806C356.008 128.847 354.528 124.812 354.528 119.835C354.528 114.185 356.008 109.881 359.102 106.922C362.061 103.963 366.096 102.483 371.207 102.483C375.781 102.483 379.547 103.828 382.641 106.384C385.465 108.94 386.945 113.782 386.945 120.776Z" fill="white"/>
<path d="M390.98 103.156H401.606V107.46C403.489 104.097 406.717 102.483 411.694 102.483C414.25 102.483 416.537 103.021 418.151 103.828C419.899 104.77 420.975 105.98 421.379 107.46C421.782 108.94 422.051 111.226 422.051 114.185V135.438H410.887V114.051C410.887 111.899 410.618 110.554 409.946 110.016C409.273 109.478 408.332 109.209 407.121 109.209C405.103 109.209 403.893 109.747 403.22 110.688C402.548 111.63 402.279 113.513 402.279 116.203V135.303H391.114L390.98 103.156Z" fill="white"/>
<path d="M430.795 96.2957V98.3133H431.333C432.006 98.3133 432.409 97.9098 432.409 97.2373C432.409 96.5647 432.006 96.2957 431.333 96.2957H430.795ZM428.509 94.6816H431.333C432.006 94.6816 432.678 94.8161 433.082 94.8161C433.485 94.9506 433.889 95.2197 434.158 95.6232C434.427 96.0267 434.696 96.5647 434.696 97.1028C434.696 98.1788 434.292 98.8514 433.351 99.2549L434.965 102.752H432.544L431.468 99.6584H430.93V102.752H428.643L428.509 94.6816ZM425.953 98.7169C425.953 100.196 426.491 101.542 427.567 102.618C428.778 103.694 429.988 104.232 431.602 104.232C433.082 104.232 434.427 103.694 435.503 102.618C436.579 101.542 437.117 100.196 437.117 98.7169C437.117 97.2373 436.579 95.8922 435.503 94.9506C434.427 93.8746 433.082 93.3365 431.602 93.3365C429.988 93.3365 428.778 93.8746 427.567 94.9506C426.491 96.0267 425.953 97.2373 425.953 98.7169ZM424.07 98.7169C424.07 96.8337 424.877 95.0851 426.356 93.8746C427.836 92.5295 429.585 91.8569 431.602 91.8569C433.62 91.8569 435.369 92.5295 436.848 93.8746C438.328 95.2196 439 96.8337 439 98.7169C439 100.734 438.193 102.214 436.848 103.694C435.369 105.039 433.62 105.711 431.602 105.711C429.585 105.711 427.702 105.039 426.356 103.694C424.877 102.349 424.07 100.734 424.07 98.7169Z" fill="white"/>
</svg>
