<svg width="519" height="240" viewBox="0 0 519 240" fill="none" xmlns="http://www.w3.org/2000/svg">
<path d="M118.547 40.9408C117.798 42.3205 117.049 43.858 116.891 44.4099C116.024 47.0117 115.472 49.9289 115.433 51.7029C115.393 54.5018 115.275 54.6201 112.279 54.2259C108.219 53.7528 103.488 54.5807 100.058 56.4335L99.0728 56.9854L100.098 57.0248C101.517 57.0248 105.735 58.444 108.495 59.8632C112.713 61.9525 115.117 63.8842 118.744 67.9841L120.242 69.7186L120.834 68.7725C121.977 67.1168 126.234 63.1352 128.639 61.5583C131.438 59.7055 136.799 57.4979 139.322 57.1431C141.491 56.8671 141.215 56.6306 136.918 55.172C134.355 54.3441 133.094 54.147 130.216 54.147C128.284 54.1865 126.313 54.2653 125.88 54.3441C125.17 54.4624 125.052 54.1865 124.855 51.5058C124.697 49.8895 124.382 47.6425 124.106 46.5781C123.593 44.5676 120.636 38.4966 120.124 38.4966C120.006 38.4966 119.296 39.6004 118.547 40.9408Z" fill="white"/>
<path d="M325.551 78.5886C322.2 79.653 321.136 82.6096 323.225 84.8567C324.92 86.6701 328.389 86.3153 329.493 84.2653C330.045 83.2404 329.966 81.0328 329.375 80.2443C328.98 79.6924 326.576 78.2732 326.26 78.3521C326.182 78.3521 325.866 78.4703 325.551 78.5886Z" fill="white"/>
<path d="M427.929 78.9829C424.066 80.5203 425.564 86.2759 429.742 85.9999C431.911 85.8817 433.251 84.4625 433.29 82.2549C433.33 80.8357 433.133 80.402 432.186 79.6924C430.728 78.5098 429.624 78.3127 427.929 78.9829Z" fill="white"/>
<path d="M255.538 79.5347C255.262 80.0078 256.011 80.678 256.839 80.678C257.864 80.678 259.283 81.6241 259.48 82.4125C259.598 82.8462 259.716 88.0498 259.756 93.9631C259.795 102.675 259.953 105.041 260.465 106.578C261.885 110.717 264.881 113.083 269.69 113.832C275.84 114.778 281.122 113.319 283.645 109.968C285.853 107.012 286.129 105.198 286.129 93.766C286.129 87.8133 286.287 83.0433 286.523 82.4519C286.799 81.7818 287.469 81.1904 288.494 80.7962C289.362 80.4414 290.071 79.929 290.071 79.6136C290.071 79.2194 288.928 79.1011 284.552 79.1011C279.506 79.1011 279.033 79.1799 279.033 79.8107C279.033 80.3232 279.388 80.5203 280.295 80.5991C283.803 80.8751 284.197 82.3337 284.04 94.8698C283.882 105.593 283.567 107.209 281.28 109.495C279.822 110.993 278.718 111.427 275.722 111.703C273.238 111.939 272.134 111.545 270.203 109.85C268.034 107.879 267.798 106.342 267.798 92.7804V82.176L268.744 81.427C269.257 81.0328 270.124 80.678 270.715 80.678C271.858 80.678 272.489 80.3232 272.647 79.5742C272.765 78.9434 255.971 78.8646 255.538 79.5347Z" fill="white"/>
<path d="M102.266 79.8501C101.95 80.3626 102.226 146.867 102.542 148.602C103.054 151.164 104.197 153.805 105.853 156.013C108.337 159.324 109.914 160.625 113.225 162.044C115.906 163.227 116.655 163.385 120.124 163.424C122.804 163.464 124.421 163.306 125.327 162.912C126.076 162.596 127.338 162.084 128.126 161.729C130.373 160.744 133.803 157.747 135.38 155.343C138.376 150.809 138.297 152.11 138.297 113.713V79.4953H133.094H127.85L127.929 112.688C128.008 144.423 128.008 146 127.259 148.089C125.801 152.386 121.543 154.042 116.812 152.228C115.511 151.716 114.211 150.336 113.422 148.602C112.712 147.025 112.673 145.606 112.673 113.24V79.4953H107.588C104.749 79.4953 102.384 79.653 102.266 79.8501Z" fill="white"/>
<path d="M445.156 82.2548C444.683 83.2797 438.297 90.5333 437.863 90.5333C437.666 90.5333 437.508 90.8881 437.508 91.2824C437.508 91.8737 437.824 92.1102 438.809 92.1891L440.071 92.3073L440.189 101.295C440.268 111.466 440.465 112.255 442.949 113.28C446.142 114.62 450.242 113.161 452.134 110.087C453.553 107.721 452.646 107.012 450.833 109.062C449.611 110.481 448.428 110.56 447.6 109.377C447.088 108.628 446.97 107.09 446.97 100.31V92.1102H449.374C451.74 92.1102 451.74 92.1102 451.621 91.0064C451.503 89.9814 451.424 89.942 449.256 89.9814H446.97V85.7239C446.97 81.8606 446.891 81.4663 446.26 81.4663C445.826 81.4663 445.353 81.8211 445.156 82.2548Z" fill="white"/>
<path d="M486.391 83.3191C485.642 84.3441 483.75 86.5517 482.173 88.2074C480.596 89.8631 479.295 91.4006 479.295 91.6765C479.295 91.9131 479.887 92.1102 480.675 92.1102H482.055V101.177C482.055 109.929 482.094 110.323 482.962 111.624C484.263 113.634 487.456 114.423 490.215 113.358C491.595 112.846 493.724 110.796 494.473 109.298C495.182 107.879 495.182 107.879 494.433 107.879C494.118 107.879 493.369 108.391 492.817 109.062C491.753 110.323 490.333 110.599 489.584 109.692C489.269 109.337 489.111 106.341 489.033 100.625L488.954 92.1102H491.201C493.606 92.1102 494.079 91.7948 493.684 90.4939C493.448 89.7843 493.172 89.7055 491.398 89.8237L489.348 89.942L489.151 85.8027C488.914 80.8356 488.441 80.4413 486.391 83.3191Z" fill="white"/>
<path d="M305.84 89.9814C305.091 90.2968 303.79 91.2035 303.001 92.0313L301.503 93.4505V91.5977V89.7054L296.773 89.7843C292.554 89.8631 292.042 89.942 292.042 90.5727C292.042 90.9669 292.515 91.4006 293.225 91.6765C293.895 91.8736 294.407 92.3073 294.407 92.5832C294.447 92.8592 294.447 97.0379 294.486 101.847C294.526 111.033 294.368 111.821 292.791 111.821C292.357 111.821 292.042 112.097 292.042 112.491C292.042 113.122 292.594 113.201 298.034 113.161C302.213 113.161 304.066 113.004 304.184 112.688C304.263 112.412 303.869 112.058 303.356 111.86C302.804 111.624 302.252 111.269 302.095 111.033C301.976 110.796 301.858 107.209 301.858 103.03V95.461L303.238 94.1601C304.893 92.6621 306.628 92.5044 307.811 93.687C308.56 94.436 308.599 94.9879 308.599 102.517C308.599 109.337 308.52 110.678 307.968 111.19C307.653 111.545 307.101 111.821 306.786 111.821C306.116 111.821 306.037 112.846 306.746 113.083C307.141 113.201 313.211 113.201 316.996 113.043C318.218 113.004 318.533 111.821 317.311 111.821C315.813 111.821 315.656 110.993 315.577 102.32C315.498 94.6726 315.419 93.7659 314.709 92.5044C313.172 89.8237 308.954 88.641 305.84 89.9814Z" fill="white"/>
<path d="M367.377 89.7449C365.445 90.2179 362.962 92.0707 361.582 94.1207C358.625 98.5359 358.862 106.46 362.016 110.126C366.707 115.606 374.985 114.857 378.967 108.588C379.598 107.563 379.598 107.485 378.967 107.248C378.573 107.09 377.863 107.406 377.075 108.115C376.365 108.746 375.458 109.456 374.985 109.732C373.803 110.362 370.61 110.086 369.624 109.219C368.599 108.234 367.416 105.947 367.14 104.291C367.022 103.542 366.825 102.478 366.707 101.847L366.47 100.783H372.817C376.286 100.783 379.203 100.625 379.322 100.468C379.598 99.9551 378.533 95.2639 377.784 93.7659C376.168 90.6516 371.359 88.7593 367.377 89.7449ZM372.147 92.1496C372.659 92.8198 372.975 94.0418 373.093 95.9735L373.29 98.8119H369.861H366.431L366.667 96.4466C366.943 94.1207 367.811 91.8342 368.678 91.2035C369.545 90.6121 371.398 91.1246 372.147 92.1496Z" fill="white"/>
<path d="M395.446 89.9815C394.736 90.3363 393.514 91.3219 392.765 92.1497C392.016 93.017 391.346 93.6872 391.306 93.6872C391.228 93.6872 391.188 92.8593 391.188 91.8343V89.9421L386.379 89.9027C381.845 89.8238 381.53 89.8633 381.53 90.5728C381.53 90.9671 381.806 91.3219 382.121 91.3219C382.436 91.3219 383.067 91.6767 383.501 92.1103C384.25 92.8593 384.289 93.4112 384.289 101.69C384.289 109.732 384.21 110.56 383.58 111.151C383.185 111.545 382.555 111.821 382.161 111.821C381.727 111.821 381.53 112.058 381.609 112.491C381.727 113.122 382.358 113.201 388.35 113.201C394.263 113.201 394.933 113.122 394.933 112.531C394.933 112.058 394.539 111.821 393.672 111.742C391.582 111.545 391.346 110.599 391.464 102.872C391.582 96.7226 391.661 96.013 392.41 94.9881C393.593 93.4112 394.539 93.4112 396.037 95.0669C396.747 95.8159 397.456 96.4467 397.614 96.4861C397.772 96.4861 398.363 96.565 398.954 96.6438C399.782 96.7621 400.295 96.4861 401.044 95.6188C402.463 93.9237 402.344 92.3468 400.689 90.6911C399.151 89.1537 397.535 88.9566 395.446 89.9815Z" fill="white"/>
<path d="M408.454 90.1786C407.548 90.6517 406.326 91.6766 405.695 92.5833C404.788 93.9631 404.591 94.5938 404.591 96.6832C404.591 100.152 405.734 101.493 411.293 104.41C415.59 106.617 416.142 107.169 416.181 109.101C416.26 111.821 412.949 112.925 409.598 111.309C408.336 110.678 407.705 110.008 406.956 108.51C406.405 107.445 405.971 106.302 405.971 105.987C405.971 105.671 405.616 105.514 405.104 105.593C404.236 105.711 404.197 105.908 404.079 109.732C403.96 113.398 404 113.792 404.631 113.792C405.025 113.792 405.656 113.477 406.05 113.122C406.72 112.531 406.956 112.491 408.652 113.004C411.648 113.911 415.511 113.871 417.246 112.925C420.833 110.993 422.331 106.617 420.557 103.148C419.69 101.414 418.862 100.783 414.447 98.4572C410.623 96.4072 409.519 95.4611 409.519 94.0814C409.519 92.8987 410.78 91.3613 411.805 91.2824C414.723 91.0065 416.772 92.1891 418.113 94.9092C418.586 95.8553 419.217 96.6438 419.571 96.6832C420.084 96.762 420.163 96.1707 420.163 93.0564C420.163 90.1392 420.044 89.3508 419.611 89.3508C419.295 89.3508 418.941 89.6267 418.822 89.9815C418.586 90.6123 417.403 90.5728 414.644 89.745C412.554 89.1536 410.307 89.3113 408.454 90.1786Z" fill="white"/>
<path d="M460.964 90.021C458.402 90.8094 457.061 91.795 456.273 93.4507C455.406 95.2641 455.485 96.5256 456.47 97.7871C457.101 98.6149 457.613 98.812 458.954 98.812C459.86 98.812 460.925 98.5755 461.28 98.2995C462.265 97.5505 462.383 95.8948 461.516 94.3179C460.491 92.3863 460.57 92.1497 462.107 91.519C463.448 90.9277 465.34 91.0459 466.759 91.795C467.626 92.2286 468.257 94.4756 468.257 97.0775V99.088L465.025 100.192C456.47 103.07 453.987 105.356 454.893 109.456C455.445 111.979 455.839 112.491 457.81 113.201C460.412 114.226 462.975 113.832 465.852 112.058C468.375 110.52 468.73 110.402 468.454 111.112C467.784 113.004 472.594 114.62 475.077 113.359C477.482 112.097 478.665 109.929 476.654 110.402C475.984 110.599 475.511 110.52 475.314 110.165C475.117 109.89 474.959 106.539 474.959 102.715C474.959 98.8909 474.841 95.1852 474.722 94.4756C473.934 90.5729 466.72 88.247 460.964 90.021ZM468.021 104.804C467.902 108.194 467.824 108.549 466.877 109.338C465.852 110.244 464.157 110.52 463.29 109.929C461.634 108.865 461.713 105.238 463.408 103.464C464.433 102.399 467.469 100.744 467.902 101.02C468.021 101.059 468.06 102.794 468.021 104.804Z" fill="white"/>
<path d="M321.136 90.0209C319.677 90.2575 319.716 91.1247 321.215 91.6372L322.358 92.0709L322.476 100.468C322.594 109.968 322.437 111.309 320.978 111.663C320.387 111.821 320.032 112.137 320.111 112.531C320.268 113.437 331.858 113.516 331.858 112.61C331.858 112.294 331.464 111.821 330.991 111.624C330.084 111.23 330.084 111.151 329.887 100.586C329.769 94.7121 329.611 89.9027 329.572 89.8238C329.454 89.7055 322.318 89.8632 321.136 90.0209Z" fill="white"/>
<path d="M334.066 90.3758C333.908 90.7305 334.184 91.1248 334.775 91.4007C335.997 91.9132 337.89 95.816 341.95 106.026C344.512 112.413 345.183 113.792 345.774 113.713C346.286 113.635 347.035 112.176 348.455 108.667C349.519 105.947 350.583 103.385 350.781 102.951C351.017 102.518 351.963 100.152 352.949 97.6688C354.92 92.6622 355.669 91.3219 356.457 91.3219C357.049 91.3219 357.64 90.2575 357.167 90.021C357.009 89.9815 355.314 89.9027 353.343 89.9421C350.386 89.9421 349.795 90.0604 349.677 90.5729C349.598 91.0459 349.953 91.2825 350.938 91.4796C352.594 91.7949 352.752 92.1892 352.16 94.4756C351.687 96.289 348.888 103.07 348.415 103.661C348.1 104.055 344.079 93.8054 344.079 92.5834C344.079 91.9132 344.355 91.6372 345.261 91.4401C346.089 91.2825 346.444 91.0065 346.365 90.5729C346.168 89.6662 334.421 89.4296 334.066 90.3758Z" fill="white"/>
<path d="M423.711 90.5334C423.711 90.9671 424.184 91.519 424.815 91.7949L425.879 92.3074L425.997 100.783C426.037 105.435 425.997 109.653 425.879 110.165C425.761 110.639 425.209 111.269 424.657 111.506C424.105 111.742 423.75 112.215 423.79 112.57C423.908 113.083 424.775 113.162 429.388 113.201C432.384 113.201 434.946 113.122 435.064 113.004C435.577 112.649 435.537 111.821 435.064 111.821C433.448 111.782 433.369 111.466 433.172 100.507L432.975 89.9421L428.363 89.8633C424.026 89.7844 423.711 89.8238 423.711 90.5334Z" fill="white"/>
<path d="M50.5838 107.367C46.1686 109.653 43.0937 112.137 41.4774 114.699L40.4918 116.197L38.639 114.581C36.2343 112.452 31.07 109.653 28.1528 108.904C26.8519 108.549 25.7481 108.352 25.6693 108.431C25.5904 108.51 25.7875 109.692 26.1423 111.072C27.0096 114.305 29.0595 118.365 31.2671 121.085L33.0805 123.293L30.1239 126.052C27.8375 128.181 26.8125 129.522 25.4722 132.123C24.5655 133.937 23.8953 135.514 24.0135 135.671C24.1712 135.79 25.1174 135.356 26.1423 134.646C30.5181 131.69 38.6784 129.679 44.1975 130.192L47.0358 130.428L47.0753 125.382C47.0753 122.583 47.3118 119.508 47.5877 118.523C48.6127 114.817 50.1502 111.19 52.0424 107.958C52.9097 106.499 52.5155 106.342 50.5838 107.367Z" fill="white"/>
<path d="M186.47 107.367C186.549 107.564 187.338 109.101 188.205 110.836C189.782 113.832 191.241 118.089 191.674 120.691C191.753 121.322 191.871 123.805 191.871 126.21L191.911 130.547L196.168 130.586C202.87 130.586 208.744 132.281 213.396 135.474C215.209 136.696 215.248 136.736 214.972 135.829C214.184 133.03 211.976 129.6 209.177 126.723L206.103 123.569L207.916 121.361C210.478 118.208 212.883 113.162 213.474 109.732C213.671 108.431 213.987 108.431 209.099 109.929C206.3 110.796 201.569 113.635 199.834 115.527L198.888 116.552L196.523 113.95C194.039 111.269 190.767 108.786 188.205 107.721C186.51 107.012 186.273 106.972 186.47 107.367Z" fill="white"/>
<path d="M392.765 129.127C391.188 129.797 390.36 132.636 391.227 134.331C391.937 135.711 392.528 136.105 394.302 136.381C395.682 136.617 395.958 136.499 397.14 135.316C398.165 134.292 398.481 133.661 398.481 132.518C398.481 129.758 395.563 128.023 392.765 129.127Z" fill="white"/>
<path d="M268.034 129.522C267.206 130.034 267.837 130.625 269.572 130.901C271.503 131.217 271.622 131.532 271.622 137.327C271.622 143.161 271.7 142.885 270.478 141.703C269.848 141.151 268.586 140.402 267.64 140.047C266.063 139.456 265.748 139.416 263.777 140.008C261.057 140.796 258.691 142.925 257.43 145.724C256.563 147.537 256.405 148.562 256.326 152.031C256.247 155.934 256.326 156.328 257.43 158.654C259.835 163.7 264.92 165.474 269.375 162.872C271.03 161.926 271.7 161.808 271.779 162.478C271.779 162.675 271.858 163.148 271.858 163.503C271.937 164.055 272.331 164.016 275.8 163.345C277.89 162.951 280.176 162.478 280.807 162.32L281.99 162.005L280.531 161.335C279.703 160.98 278.993 160.665 278.954 160.586C278.915 160.546 278.757 153.49 278.639 144.935L278.442 129.364L273.514 129.285C270.794 129.246 268.35 129.364 268.034 129.522ZM270.676 143.95C271.503 144.935 271.543 145.29 271.543 151.677C271.543 158.97 271.346 159.797 269.217 160.862C268.074 161.453 267.088 161.374 265.748 160.665C264.486 159.995 264.171 159.048 263.737 154.002C263.501 151.046 263.58 149.469 264.131 146.315C264.368 145.133 265.708 143.004 266.379 142.807C267.758 142.412 269.769 142.964 270.676 143.95Z" fill="white"/>
<path d="M319.006 129.758C318.691 130.507 319.203 131.256 319.795 131.019C320.071 130.901 320.859 131.098 321.529 131.414L322.791 132.005L322.83 144.896C322.87 151.952 322.948 158.22 323.027 158.851C323.185 160.428 321.687 162.005 320.11 161.966C319.164 161.966 318.849 162.123 318.849 162.596C318.849 163.227 319.992 163.266 333.238 163.266C341.122 163.227 347.705 163.148 347.824 163.03C348.021 162.833 348.651 159.443 349.44 154.594C349.558 153.924 349.716 153.096 349.834 152.701C349.992 152.228 349.834 152.031 349.282 152.031C348.77 152.031 348.257 152.662 347.587 154.081C346.326 156.841 343.527 159.837 341.319 160.783C338.796 161.887 332.41 161.966 331.621 160.941C331.227 160.389 331.109 157.432 331.109 147.537C331.069 135.041 331.306 132.123 332.331 131.493C332.607 131.295 333.592 131.059 334.538 130.901C335.8 130.704 336.194 130.507 336.115 129.995C335.997 129.443 335.012 129.364 327.6 129.285C320.701 129.206 319.164 129.324 319.006 129.758Z" fill="white"/>
<path d="M352.436 129.561C351.766 130.073 352.081 130.704 353.146 131.098C353.816 131.295 354.328 131.65 354.328 131.808C354.447 161.059 354.447 160.862 353.579 161.532C353.106 161.926 352.515 162.281 352.239 162.399C352.003 162.478 351.884 162.715 352.081 162.872C352.279 163.109 360.991 163.267 363.908 163.069C364.539 163.03 364.105 162.242 363.238 161.808C362.686 161.571 362.134 161.098 362.016 160.744C361.858 160.389 361.779 153.253 361.819 144.857C361.858 129.797 361.858 129.64 361.03 129.364C360.123 129.088 352.83 129.246 352.436 129.561Z" fill="white"/>
<path d="M414.644 129.916C414.644 130.547 414.88 130.744 415.748 130.744C416.378 130.744 417.206 130.98 417.64 131.296C418.31 131.808 418.389 132.439 418.507 137.327L418.665 142.767L417.719 141.939C415.235 139.653 412.436 139.18 409.361 140.56C405.261 142.373 402.817 147.261 402.975 153.293C403.093 156.683 404 159.048 406.129 161.414C408.809 164.37 413.343 164.922 416.418 162.715C418.507 161.217 418.901 161.177 418.744 162.557C418.625 163.858 419.177 164.292 420.399 163.858C420.912 163.661 422.844 163.227 424.736 162.912C426.628 162.557 428.244 162.202 428.323 162.123C428.678 161.769 428.008 161.098 427.298 161.098C426.904 161.098 426.352 160.862 426.116 160.586C425.84 160.192 425.642 155.225 425.603 144.699L425.485 129.364L420.084 129.246C414.801 129.127 414.644 129.127 414.644 129.916ZM417.522 144.147L418.586 145.33V151.834V158.339L417.522 159.522C415.59 161.611 412.988 161.769 411.727 159.837C410.071 157.314 410.071 147.656 411.727 144.462C412.87 142.255 415.629 142.097 417.522 144.147Z" fill="white"/>
<path d="M69.1912 150.691C75.9717 157.59 90.2424 172.097 100.926 182.898L120.361 202.57L151.74 170.678C169.007 153.175 183.081 138.786 183.041 138.707C183.002 138.667 181.031 139.416 178.705 140.402C170.623 143.792 162.857 148.404 153.948 155.146C142.476 163.858 128.481 181.125 122.923 193.503C120.282 199.298 120.439 199.219 118.744 195.553C115.551 188.496 110.466 180.297 105.262 173.713C101.478 168.943 90.9914 158.496 86.655 155.106C78.6524 148.917 69.2306 143.398 61.0309 140.047C59.6117 139.456 58.1137 138.786 57.68 138.549C57.2464 138.313 62.4501 143.792 69.1912 150.691Z" fill="white"/>
<path d="M292.555 139.85C290.82 140.165 288.297 141.585 286.878 143.043C284.276 145.763 283.251 152.583 284.749 157.156C285.735 160.113 286.642 161.256 289.283 162.636C293.777 165.04 298.192 164.37 301.819 160.822C304.776 157.866 304.578 156.328 301.543 158.772C299.611 160.31 296.063 160.901 294.684 159.955C292.87 158.733 291.885 156.644 291.451 153.135L291.175 151.046H297.443H303.672L303.711 149.587C303.829 145.093 300.321 140.678 296.063 139.968C295.472 139.85 294.841 139.732 294.605 139.653C294.408 139.613 293.462 139.692 292.555 139.85ZM296.379 142.176C297.285 143.083 297.483 143.871 297.68 147.025L297.798 149.311L294.447 149.193C290.623 149.075 290.899 149.39 291.451 145.369C291.727 143.043 292.279 141.9 293.225 141.624C294.605 141.269 295.63 141.427 296.379 142.176Z" fill="white"/>
<path d="M374.552 139.968C373.645 140.205 372.66 140.638 372.384 140.875C372.147 141.151 371.714 141.387 371.438 141.387C370.413 141.387 367.85 144.896 367.141 147.222C365.8 151.795 366.865 158.26 369.427 161.019C372.187 163.976 377.588 164.922 381.254 163.069C383.343 162.044 386.852 158.575 386.457 157.945C386.063 157.274 385.472 157.511 383.895 158.851C382.358 160.152 381.648 160.389 379.046 160.389C376.405 160.389 374.316 157.353 373.764 152.701L373.606 151.243L376.878 151.164C378.691 151.125 380.781 151.046 381.53 151.006C382.279 150.967 383.658 150.927 384.526 150.888C385.472 150.888 386.26 150.612 386.379 150.336C386.457 150.06 386.26 148.68 385.905 147.261C384.92 143.319 382.397 140.757 378.77 140.047C378.021 139.889 377.114 139.692 376.799 139.613C376.484 139.574 375.459 139.692 374.552 139.968ZM378.731 142.058C379.598 142.807 380.268 145.369 380.15 147.695L380.071 149.075H376.76C373.054 149.075 373.291 149.351 373.803 145.566C374.276 141.939 376.602 140.323 378.731 142.058Z" fill="white"/>
<path d="M435.695 140.993C432.384 142.649 431.122 145.29 432.423 147.813C433.093 149.035 433.527 149.272 435.419 149.272C436.72 149.272 437.233 149.075 437.863 148.247C438.77 147.064 438.731 146 437.627 144.108C436.917 142.925 436.917 142.885 437.863 142.136C438.928 141.269 440.583 141.19 442.397 141.939C444.013 142.61 444.486 143.91 444.289 147.104L444.131 149.508L441.293 150.376C438.336 151.322 434.315 153.253 433.014 154.357C431.989 155.224 431.24 156.801 431.083 158.457C430.491 163.7 437.43 165.868 442.712 162.084L444.526 160.744L444.762 161.729C445.393 164.213 449.769 164.804 452.607 162.793C454.46 161.532 454.46 160.901 452.686 160.901H451.503L451.306 152.82C451.109 144.344 450.912 143.319 449.099 141.703C447.916 140.678 444.289 139.811 441.056 139.811C438.494 139.811 437.666 140.008 435.695 140.993ZM444.328 154.87C444.289 156.88 444.25 158.654 444.21 158.812C444.21 159.364 442.397 160.31 441.135 160.468C439.204 160.665 438.494 159.916 438.494 157.629C438.494 156.565 438.731 155.264 439.007 154.751C439.716 153.411 442.357 151.637 444.21 151.282C444.328 151.243 444.368 152.899 444.328 154.87Z" fill="white"/>
<path d="M388.389 140.836C388.507 141.19 388.625 141.545 388.625 141.624C388.625 141.703 388.941 141.782 389.335 141.782C390.872 141.782 390.991 142.412 390.991 151.874C390.991 161.493 390.951 161.808 389.138 162.044C388.744 162.123 388.428 162.399 388.428 162.715C388.428 163.464 400.136 163.464 400.373 162.715C400.452 162.439 400.136 162.123 399.663 162.005C399.19 161.887 398.638 161.335 398.441 160.822C398.244 160.31 398.087 155.422 398.087 150.021V140.205H393.119C388.744 140.205 388.192 140.284 388.389 140.836Z" fill="white"/>
</svg>
