<svg width="320" height="240" viewBox="0 0 320 240" fill="none" xmlns="http://www.w3.org/2000/svg">
<path d="M151.122 21.2495C149.825 23.2551 148.923 25.1696 148.224 27.3981C147.596 29.3937 147.444 30.0319 147.232 31.45C147.009 32.9492 147.009 32.9492 146.928 34.7117C146.877 35.8665 146.827 36.2616 146.725 36.2616C146.654 36.2616 146.31 36.2008 145.955 36.1198C144.497 35.7855 141.296 35.6639 139.797 35.8766C136.991 36.2717 134.57 36.9605 132.615 37.9127L131.338 38.5306L132.068 38.6522C133.304 38.8649 135.643 39.4727 136.656 39.8373C138.551 40.5261 138.804 40.6274 140.232 41.3162C141.671 42.0152 144.213 43.6055 145.317 44.5172C147.556 46.3405 149.156 47.941 150.706 49.896C151.081 50.3823 151.476 50.8685 151.567 50.99L151.739 51.2028L151.891 50.9799C153.391 48.9033 155.67 46.4621 157.523 44.9832C158.536 44.1728 160.714 42.6736 161.677 42.1165C164.442 40.5261 168.099 39.2194 171.35 38.6623L172.161 38.5205L170.996 37.9633C169.436 37.2239 168.95 37.0415 167.41 36.6161C164.908 35.9374 162.943 35.6943 160.684 35.7855C159.286 35.8463 158.607 35.9273 156.997 36.221L156.612 36.292V35.3398C156.612 33.5266 156.278 31.1157 155.731 28.9682C155.244 27.0335 154.677 25.5242 153.735 23.6502C152.945 22.1004 151.902 20.3581 151.77 20.3581C151.729 20.3581 151.446 20.7632 151.122 21.2495Z" fill="white"/>
<path d="M134.388 60.7449C134.357 60.7854 134.327 75.4227 134.337 93.2812C134.347 129.859 134.286 127.276 135.137 130.315C135.502 131.602 135.704 132.108 136.403 133.465C138.835 138.166 143.504 141.701 148.589 142.683C149.015 142.764 149.552 142.866 149.774 142.906C149.997 142.947 150.98 142.977 151.952 142.967C156.855 142.947 160.968 141.144 164.523 137.477C167.086 134.853 168.778 131.358 169.345 127.58C169.396 127.297 169.426 112.143 169.426 93.8991V60.7246H164.462H159.499L159.448 93.4433C159.418 111.434 159.367 126.253 159.327 126.365C159.296 126.476 159.205 126.79 159.134 127.074C158.638 129.12 156.896 131.196 154.961 132.068C153.644 132.665 151.79 132.878 150.453 132.594C147.586 131.966 145.206 129.566 144.639 126.719C144.558 126.324 144.507 116.812 144.467 93.4433L144.406 60.7246L139.432 60.7044C136.697 60.6942 134.428 60.7145 134.388 60.7449Z" fill="white"/>
<path d="M85.5527 87.2642C82.6556 88.1962 79.4648 90.1512 77.0539 92.4709C76.2233 93.2711 74.6127 95.2261 74.0961 96.0466C73.7719 96.5835 73.7314 96.6037 73.5389 96.3708C73.4579 96.2796 72.8704 95.7326 72.2119 95.1451C69.325 92.5924 66.357 90.8704 62.7104 89.6548C61.5049 89.2598 59.3169 88.7533 59.2156 88.8445C59.1346 88.9356 59.6613 91.2756 60.0361 92.481C61.2719 96.4113 63.2574 99.825 66.1139 102.904C66.6609 103.492 66.7723 103.664 66.6508 103.725C66.3266 103.917 64.4425 105.396 63.7436 106.024C62.7407 106.916 60.7148 109.377 60.0767 110.461C59.3676 111.677 59.0941 112.193 58.5977 113.277C58.0811 114.381 57.3923 116.275 57.4733 116.346C57.4936 116.367 57.7772 116.164 58.1115 115.901C59.8032 114.543 62.8623 112.933 65.5466 111.981C67.603 111.251 70.3683 110.633 72.5867 110.4C74.7646 110.177 78.7759 110.299 80.113 110.633C80.346 110.694 80.5689 110.714 80.5993 110.694C80.6195 110.664 80.5993 110.431 80.5385 110.167C80.3258 109.225 80.1536 105.761 80.2447 104.181C80.2852 103.34 80.346 102.55 80.3764 102.408C80.3967 102.266 80.4473 101.881 80.4878 101.547C80.7208 99.3185 81.1969 97.3736 82.2403 94.4056C82.8278 92.7342 84.0332 90.4044 85.3095 88.4494C85.7856 87.7201 86.13 87.1123 86.0693 87.1224C86.0085 87.1326 85.7755 87.1933 85.5527 87.2642Z" fill="white"/>
<path d="M216.073 87.5581C216.073 87.5783 216.458 88.176 216.934 88.885C218.16 90.6982 219.588 93.6156 220.277 95.7327C221.026 98.0524 221.3 99.1869 221.766 101.952C222.029 103.583 221.907 109.458 221.583 110.785C221.512 111.039 221.533 111.039 221.857 110.988C222.049 110.947 222.495 110.897 222.86 110.866C223.224 110.836 223.852 110.765 224.258 110.714C225.888 110.502 229.322 110.664 231.683 111.059C235.907 111.778 240.536 113.713 243.97 116.195C244.345 116.478 244.679 116.681 244.699 116.66C244.8 116.559 243.929 114.169 243.392 113.075C242.542 111.342 241.275 109.468 239.938 107.939C239.087 106.977 237.142 105.224 236.261 104.626C235.856 104.353 235.522 104.079 235.522 104.039C235.522 103.988 235.866 103.563 236.302 103.097C239.249 99.8858 241.275 96.229 242.44 92.0252C242.724 91.0021 243.068 89.3611 243.007 89.3004C242.916 89.2092 240.505 89.7663 239.3 90.1614C235.593 91.3769 232.108 93.494 229.272 96.2594C228.867 96.6545 228.512 96.9584 228.482 96.928C228.461 96.8976 228.168 96.5025 227.854 96.0568C226.81 94.588 226.446 94.1727 225.23 92.9875C223.336 91.1541 221.776 90.0196 219.638 88.9458C218.362 88.2975 217.694 88.0139 216.731 87.71C216.053 87.4973 216.073 87.5074 216.073 87.5581Z" fill="white"/>
<path d="M93.4638 121.776C95.358 123.69 102.013 130.447 108.253 136.798C120.338 149.106 143.291 172.434 148.66 177.854L151.902 181.135L156.713 176.223C159.357 173.528 167.268 165.495 174.288 158.364C181.308 151.243 192.055 140.323 198.174 134.114C204.292 127.904 210.339 121.806 211.595 120.57C212.862 119.335 213.864 118.312 213.824 118.312C213.723 118.312 211.545 119.132 210.096 119.73C209.397 120.013 208.486 120.378 208.07 120.54C207.067 120.935 201.304 123.792 199.967 124.562C199.379 124.896 198.65 125.311 198.346 125.473C194.416 127.641 187.993 132.017 184.023 135.258C177.215 140.799 169.912 148.467 164.3 155.943C161.413 159.782 160.127 161.727 157.827 165.668C156.764 167.481 154.89 171.107 154.029 173.022C153.198 174.855 152.033 177.165 151.942 177.165C151.851 177.165 150.575 174.653 149.845 173.062C148.589 170.266 146.502 166.306 145.054 163.925C138.865 153.796 128.765 142.39 119.132 134.661C116.62 132.655 111.434 129.039 108.273 127.094C103.877 124.389 98.2348 121.533 93.7575 119.73C89.4119 117.977 89.4524 117.744 93.4638 121.776Z" fill="white"/>
<path d="M64.1791 200.311C64.1284 200.331 63.9562 200.372 63.7942 200.402C63.47 200.483 62.7609 201.091 62.5685 201.466C62.1228 202.327 62.3355 203.421 63.0547 204.089C63.5713 204.565 63.8448 204.656 64.6349 204.656C65.4757 204.656 66.1746 204.16 66.519 203.35C66.9647 202.276 66.519 201.05 65.4959 200.534C65.2022 200.392 64.4019 200.25 64.1791 200.311Z" fill="white"/>
<path d="M122.424 200.321C122.374 200.331 122.191 200.372 122.039 200.402C121.533 200.513 120.874 201.233 120.692 201.861C120.074 203.988 122.566 205.578 124.227 204.12C125.038 203.4 125.2 202.114 124.582 201.243C124.329 200.888 123.782 200.473 123.478 200.402C123.164 200.331 122.556 200.28 122.424 200.321Z" fill="white"/>
<path d="M245.084 200.351C244.233 200.493 243.423 201.456 243.403 202.367C243.382 203.066 243.605 203.613 244.112 204.079C244.375 204.322 244.73 204.555 244.892 204.606C245.307 204.727 246.188 204.656 246.533 204.474C246.826 204.332 247.677 203.471 247.677 203.33C247.687 203.279 247.708 203.076 247.738 202.853C247.85 202.124 247.698 201.597 247.242 201.101C247.019 200.858 246.715 200.595 246.573 200.524C246.219 200.341 245.591 200.27 245.084 200.351Z" fill="white"/>
<path d="M24.8252 201.06C24.8252 201.455 24.8252 201.455 25.3114 201.526C25.9192 201.607 26.4459 201.78 26.6688 201.962C27.1145 202.337 27.1449 202.691 27.155 208.546C27.1651 211.595 27.1854 214.34 27.2158 214.644C27.3677 216.417 28.2287 218.109 29.424 218.99C30.1432 219.527 30.5991 219.739 31.7133 220.074C32.625 220.337 32.7871 220.357 34.6509 220.357C36.8794 220.367 37.3961 220.276 38.7028 219.638C40.1412 218.939 41.3061 217.43 41.6809 215.758C41.7619 215.394 41.8632 214.958 41.9139 214.796C41.9544 214.624 41.9949 211.919 42.0152 208.769C42.0354 204.616 42.0759 202.945 42.157 202.661C42.3596 202.033 42.6635 201.84 44.1424 201.415C44.2133 201.405 44.2538 201.233 44.2437 201.03L44.2234 200.665H41.1136H37.9937V201.02C37.9937 201.324 38.0342 201.374 38.2773 201.425C39.4524 201.668 39.8069 201.81 40.1412 202.165C40.3438 202.367 40.5565 202.701 40.6173 202.894C40.7388 203.259 40.7794 214.107 40.6679 214.847C40.4248 216.366 39.7765 217.551 38.875 218.169C37.2239 219.273 34.8231 219.375 33.3746 218.402C32.8782 218.068 32.1692 217.015 31.9666 216.336C31.6931 215.374 31.6627 214.533 31.6627 208.718C31.6627 202.985 31.6627 202.945 31.8855 202.468C32.159 201.881 32.4528 201.719 33.5569 201.547L34.3977 201.415V201.071V200.716L29.6165 200.686L24.8252 200.665V201.06Z" fill="white"/>
<path d="M174.258 201.04L174.288 201.425L174.947 201.476C175.686 201.537 176.122 201.749 176.264 202.144C176.324 202.286 176.365 203.694 176.365 205.295V208.182L175.706 207.574C175.139 207.057 174.916 206.926 174.207 206.703C173.255 206.399 172.576 206.419 171.563 206.753C169.993 207.29 168.565 208.83 168.089 210.542C167.724 211.828 167.603 212.628 167.613 213.682C167.623 216.002 168.17 217.501 169.487 218.828C170.388 219.729 171.229 220.135 172.364 220.216C173.782 220.317 174.693 219.993 175.879 218.98L176.456 218.483L176.486 219.375C176.507 220.104 176.547 220.256 176.669 220.236C176.75 220.216 176.892 220.185 176.973 220.165C177.054 220.145 177.489 220.043 177.935 219.922C178.381 219.81 178.948 219.689 179.201 219.658C180.508 219.466 181.794 219.334 181.855 219.365C181.946 219.425 182.037 219.091 181.997 218.848C181.977 218.737 181.906 218.656 181.845 218.666C181.784 218.686 181.49 218.605 181.197 218.494C180.275 218.149 180.326 218.676 180.346 208.992L180.366 200.665H177.297H174.228L174.258 201.04ZM175.018 208.273C175.2 208.334 175.575 208.627 175.858 208.931L176.365 209.498V213.186C176.365 217.329 176.405 217.116 175.585 217.906C174.663 218.818 173.458 218.919 172.799 218.149C172.08 217.319 171.888 216.397 171.867 213.682C171.867 212.456 171.898 211.251 171.938 210.998C171.989 210.744 172.05 210.41 172.07 210.248C172.11 209.914 172.526 209.043 172.82 208.688C173.255 208.151 174.157 207.979 175.018 208.273Z" fill="white"/>
<path d="M202.803 201.071C202.803 201.466 202.813 201.476 203.157 201.486C203.35 201.496 203.542 201.506 203.593 201.516C203.633 201.526 203.846 201.567 204.069 201.618C204.636 201.729 204.991 202.013 205.183 202.519C205.325 202.894 205.335 203.765 205.315 210.491L205.284 218.038L205.062 218.352C204.768 218.767 204.221 219.02 203.461 219.091L202.853 219.152L202.823 219.527L202.792 219.912H211.048C217.632 219.912 219.314 219.891 219.324 219.79C219.324 219.719 219.344 219.567 219.365 219.456C219.385 219.344 219.618 218.017 219.871 216.518C220.124 215.009 220.357 213.702 220.388 213.601C220.438 213.459 220.378 213.429 220.003 213.429H219.567L219.213 214.32C218.23 216.761 216.437 218.382 214.209 218.807C213.429 218.959 211.889 219.03 211.271 218.959C210.592 218.868 210.086 218.554 209.974 218.139C209.843 217.643 209.863 203.289 210.005 202.742C210.136 202.215 210.582 201.688 210.896 201.668C211.018 201.658 211.139 201.648 211.19 201.628C211.23 201.618 211.595 201.577 212 201.526L212.73 201.445V201.06V200.665H207.766H202.803V201.071Z" fill="white"/>
<path d="M221.735 200.686C221.593 201.202 221.705 201.425 222.13 201.526C222.282 201.557 222.545 201.688 222.707 201.82L223.011 202.063L223.042 209.954C223.072 218.088 223.062 218.473 222.667 218.767C222.576 218.838 222.312 218.98 222.09 219.091C221.684 219.284 221.654 219.344 221.735 219.841C221.735 219.881 223.234 219.901 225.068 219.891L228.38 219.861L228.41 219.557C228.431 219.284 228.39 219.233 227.904 219C227.57 218.838 227.316 218.645 227.235 218.473C227.134 218.26 227.104 216.336 227.083 209.458L227.063 200.716L224.409 200.686C222.94 200.675 221.745 200.675 221.735 200.686Z" fill="white"/>
<path d="M256.966 200.736C256.935 200.787 256.925 200.949 256.935 201.121C256.946 201.415 256.966 201.425 257.452 201.455C258.232 201.496 258.678 201.648 258.88 201.962C259.052 202.215 259.073 202.489 259.093 205.122C259.103 206.703 259.083 208.04 259.052 208.09C259.022 208.141 258.769 207.948 258.475 207.665C257.908 207.108 256.885 206.571 256.236 206.51C255.446 206.429 254.454 206.622 253.653 207.017C252.134 207.756 250.969 209.417 250.523 211.453C250.311 212.456 250.25 214.614 250.432 215.374C250.483 215.617 250.554 215.91 250.574 216.042C250.858 217.501 252.174 219.162 253.653 219.912C254.17 220.175 255.548 220.317 256.287 220.195C256.986 220.074 257.969 219.557 258.566 218.99C258.87 218.696 259.123 218.504 259.134 218.554C259.134 218.605 259.134 218.888 259.123 219.182C259.113 219.476 259.134 219.841 259.174 220.003L259.235 220.286L259.914 220.104C261.2 219.739 263.408 219.385 264.522 219.365C264.644 219.365 264.695 219.273 264.695 219.04C264.695 218.747 264.664 218.716 264.087 218.564C263.398 218.372 263.175 218.129 263.084 217.45C263.054 217.217 263.023 213.348 263.023 208.85V200.665H260.015C258.364 200.665 256.986 200.696 256.966 200.736ZM257.644 208.263C258.131 208.445 258.688 208.951 258.911 209.417C259.123 209.833 259.123 209.995 259.123 213.297C259.113 217.065 259.134 216.913 258.465 217.713C257.847 218.453 257.29 218.676 256.216 218.605C255.862 218.585 255.325 218.038 255.041 217.41C254.616 216.447 254.525 215.748 254.514 213.327C254.514 211.423 254.545 211.068 254.828 210.086C255.142 209.002 255.548 208.455 256.216 208.222C256.621 208.08 257.219 208.1 257.644 208.263Z" fill="white"/>
<path d="M131.794 202.063C131.794 202.347 129.829 204.727 128.593 205.953C127.347 207.179 127.185 207.371 127.185 207.675V208.009L127.925 208.04L128.654 208.07V212.851C128.654 217.987 128.694 218.443 129.181 219.101C129.758 219.891 130.771 220.256 132.149 220.195C133.202 220.145 133.83 219.881 134.59 219.182C135.056 218.747 135.947 217.42 135.947 217.156C135.947 217.075 135.826 216.954 135.674 216.883C135.41 216.761 135.37 216.771 135.187 217.045C135.076 217.197 134.792 217.521 134.57 217.764C134.205 218.129 134.093 218.19 133.719 218.19C133.172 218.19 132.766 217.795 132.615 217.085C132.554 216.771 132.513 215.009 132.533 212.345L132.554 208.111L133.901 208.08L135.238 208.05V207.422V206.794L133.962 206.824C132.969 206.855 132.655 206.834 132.584 206.723C132.544 206.652 132.503 205.568 132.513 204.312L132.533 202.033L132.169 202.002C131.956 201.982 131.794 202.013 131.794 202.063Z" fill="white"/>
<path d="M155.072 202.56C154.252 203.856 152.175 206.196 151.203 206.946C150.727 207.31 150.727 207.31 150.838 208.03C150.838 208.05 151.162 208.06 151.547 208.06H152.256L152.266 212.689C152.266 215.242 152.287 217.491 152.307 217.683C152.449 218.818 152.884 219.456 153.857 219.932C154.272 220.135 154.485 220.165 155.498 220.165C156.632 220.165 156.683 220.155 157.301 219.821C158.061 219.405 158.881 218.544 159.337 217.683L159.661 217.086L159.327 216.913C159.013 216.751 158.993 216.751 158.841 216.974C158.76 217.106 158.476 217.43 158.223 217.703C157.807 218.139 157.706 218.19 157.321 218.19C156.977 218.19 156.845 218.129 156.602 217.876C156.45 217.703 156.288 217.42 156.258 217.248C156.227 217.065 156.187 214.928 156.176 212.487L156.156 208.06H157.544H158.932V207.523C158.932 207.229 158.901 206.946 158.861 206.885C158.82 206.834 158.213 206.794 157.493 206.794H156.207L156.176 204.413L156.156 202.033L155.802 202.003C155.467 201.982 155.427 202.023 155.072 202.56Z" fill="white"/>
<path d="M53.8571 206.561C53.067 206.733 52.1452 207.28 51.3956 208.03L50.6663 208.749L50.6359 207.787L50.6055 206.834L47.9718 206.824H45.3381L45.3077 207.189C45.2774 207.523 45.2976 207.554 45.5407 207.554C45.6825 207.554 45.9763 207.645 46.1992 207.756C46.8069 208.07 46.8272 208.273 46.7867 213.702L46.7563 218.382L46.4524 218.696C46.2802 218.879 45.9662 219.051 45.7129 219.122C45.3077 219.223 45.2774 219.253 45.3077 219.547L45.3381 219.861L48.4783 219.881C50.2105 219.891 51.7299 219.881 51.8717 219.851C52.0642 219.81 52.125 219.74 52.125 219.547C52.1047 219.253 52.0338 219.172 51.7502 219.132C51.4564 219.081 51.0918 218.848 50.9702 218.615C50.8993 218.473 50.798 211.332 50.8486 210.005C50.8588 209.792 51.7806 208.87 52.1959 208.658C53.219 208.131 54.1509 208.465 54.4953 209.468C54.6675 209.975 54.6473 218.25 54.4751 218.595C54.394 218.757 54.161 218.919 53.8166 219.051C53.3405 219.233 53.2899 219.284 53.2899 219.577V219.902H56.582C58.3952 219.902 59.8741 219.871 59.8843 219.831C59.945 219.233 59.9349 219.213 59.5196 219.112C59.0131 218.97 58.8004 218.808 58.6586 218.453C58.5978 218.281 58.5573 216.741 58.5573 214.31C58.5573 212.183 58.5168 210.066 58.456 209.6C58.304 208.222 57.7368 207.361 56.6934 206.885C55.9236 206.541 54.6473 206.389 53.8571 206.561Z" fill="white"/>
<path d="M88.8345 206.48C88.8143 206.5 88.5914 206.54 88.3382 206.571C87.0618 206.733 85.4816 207.645 84.7422 208.647C84.2458 209.316 83.7292 210.42 83.5367 211.21C83.2632 212.335 83.2835 214.664 83.5874 215.91C84.0432 217.805 85.5931 219.456 87.4569 220.023C88.1153 220.226 89.4423 220.297 90.2527 220.165C91.3467 220.003 92.3799 219.425 93.322 218.473C93.8588 217.926 94.6185 216.923 94.6185 216.751C94.6185 216.711 94.4767 216.599 94.3045 216.518L93.9905 216.356L93.3017 217.025C92.5015 217.794 91.9443 218.068 91.0428 218.159C90.1413 218.24 89.3613 217.997 88.8447 217.48C88.1052 216.741 87.5379 215.262 87.3759 213.601L87.305 212.922H90.9111H94.5172V212.527C94.5172 211.909 94.2336 210.471 93.9905 209.822C93.6968 209.053 93.1092 208.171 92.623 207.766C92.076 207.3 90.8908 206.743 90.1413 206.581C89.5132 206.449 88.9156 206.399 88.8345 206.48ZM89.7867 207.493C90.4553 207.776 90.7997 208.414 90.9212 209.61C91.0124 210.44 91.0023 210.42 90.9921 211.2L90.9719 211.859L89.1283 211.838L87.2746 211.818L87.2847 211.332C87.305 210.035 87.6291 208.465 87.9735 208.009C88.4293 207.412 89.1283 207.209 89.7867 207.493Z" fill="white"/>
<path d="M103.958 206.662C103.3 206.865 102.155 207.756 101.557 208.536C101.365 208.789 101.203 208.961 101.193 208.911C101.193 208.86 101.183 208.404 101.183 207.908C101.173 207.402 101.162 206.946 101.142 206.895C101.112 206.834 100.109 206.794 98.4173 206.794H95.7329V207.148C95.7329 207.493 95.7532 207.513 96.2597 207.635C96.6142 207.716 96.8674 207.847 97.0194 208.04L97.2422 208.313L97.2524 213.206C97.2524 218.544 97.2422 218.645 96.675 218.929C96.523 219.01 96.2394 219.111 96.0672 219.152C95.7836 219.203 95.7329 219.263 95.7329 219.506C95.7329 219.75 95.7836 219.8 96.0874 219.851C96.2799 219.891 97.9918 219.912 99.8861 219.912L103.33 219.891V219.557C103.33 219.233 103.32 219.223 102.753 219.111C101.942 218.959 101.952 218.959 101.75 218.797C101.335 218.443 101.304 218.139 101.294 214.573C101.294 212.395 101.324 210.967 101.395 210.653C101.527 210.096 101.973 209.387 102.368 209.134C102.895 208.789 103.036 208.83 103.685 209.519C104.606 210.501 104.971 210.673 105.832 210.542C106.703 210.41 107.22 209.711 107.19 208.698C107.159 207.675 106.936 207.28 106.096 206.794C105.538 206.459 104.758 206.419 103.958 206.662Z" fill="white"/>
<path d="M112.396 206.51C110.329 206.844 109.195 207.766 108.739 209.478C108.536 210.228 108.607 211.474 108.901 212.061C109.468 213.246 110.228 213.834 112.7 215.049C114.351 215.86 114.898 216.224 115.131 216.68C115.627 217.632 115.202 218.777 114.229 219.152C113.743 219.334 112.72 219.304 112.051 219.091C110.795 218.676 109.782 217.501 109.458 216.062C109.357 215.627 109.337 215.607 108.972 215.576L108.597 215.546V217.551C108.597 218.656 108.567 219.648 108.547 219.76C108.476 220.033 108.607 220.215 108.921 220.266C109.134 220.307 109.225 220.256 109.387 219.962C109.691 219.466 109.965 219.425 111.059 219.76C112.497 220.195 113.014 220.276 114.067 220.205C114.817 220.165 115.171 220.084 115.658 219.871C116.468 219.506 117.258 218.686 117.724 217.734C118.048 217.055 118.068 216.974 118.068 215.91C118.068 214.897 118.038 214.756 117.785 214.29C117.44 213.651 116.63 212.851 115.84 212.395C115.506 212.203 114.553 211.707 113.733 211.301C112.132 210.511 111.737 210.177 111.515 209.458C111.261 208.627 111.92 207.624 112.801 207.493C114.31 207.27 115.607 208.08 116.417 209.752C116.802 210.552 116.833 210.592 117.147 210.592H117.481L117.501 208.566L117.521 206.541H117.167C116.964 206.541 116.802 206.581 116.802 206.632C116.802 206.996 116.022 207.169 115.414 206.936C114.705 206.672 112.953 206.419 112.396 206.51Z" fill="white"/>
<path d="M142.329 206.47C142.298 206.49 141.974 206.541 141.6 206.581C140.455 206.682 139.087 207.24 138.378 207.878C137.841 208.364 137.325 209.59 137.426 210.116C137.446 210.238 137.497 210.491 137.527 210.673C137.568 210.866 137.75 211.17 137.933 211.352C138.753 212.183 140.343 212.061 140.921 211.139C141.275 210.572 141.194 209.579 140.759 209.174C140.627 209.043 140.455 208.779 140.394 208.587C140.283 208.242 140.293 208.212 140.627 207.898C141.498 207.108 143.484 207.29 144.112 208.232C144.395 208.648 144.476 209.235 144.486 210.744V211.95L143.585 212.223C143.089 212.375 142.258 212.659 141.751 212.861C141.235 213.064 140.779 213.226 140.739 213.226C140.708 213.226 140.192 213.469 139.604 213.753C137.72 214.695 136.92 215.748 136.93 217.308C136.94 217.947 136.991 218.2 137.203 218.645C137.7 219.648 138.996 220.337 140.252 220.256C141.65 220.155 143.089 219.598 143.95 218.828C144.223 218.585 144.456 218.392 144.476 218.392C144.507 218.392 144.588 218.585 144.659 218.818C144.963 219.841 145.591 220.236 146.897 220.236C147.617 220.236 147.779 220.195 148.437 219.871C148.832 219.669 149.369 219.324 149.612 219.111L150.058 218.727L149.835 218.402C149.612 218.098 149.592 218.088 149.42 218.24C149.126 218.504 148.761 218.524 148.548 218.281C148.366 218.078 148.356 217.835 148.336 214.097C148.326 211.919 148.285 209.914 148.255 209.64C148.133 208.637 147.505 207.817 146.492 207.31C145.753 206.936 144.942 206.682 144.253 206.601C143.2 206.48 142.38 206.419 142.329 206.47ZM144.456 215.08V217.136L144.081 217.501C143.068 218.463 141.782 218.494 141.316 217.572C140.84 216.65 141.002 215.343 141.691 214.543C142.288 213.854 143.615 213.054 144.233 213.034L144.456 213.024V215.08Z" fill="white"/>
<path d="M188.368 206.551C187.021 206.784 185.654 207.533 184.934 208.415C183.8 209.792 183.314 211.291 183.314 213.429C183.303 215.87 184.033 217.734 185.431 218.878C186.636 219.851 187.558 220.205 188.976 220.226C191.286 220.256 192.673 219.486 194.335 217.248C194.649 216.812 194.638 216.68 194.254 216.468C193.99 216.336 193.97 216.346 193.301 217.004C192.532 217.764 191.914 218.088 191.042 218.159C189.898 218.271 188.986 217.855 188.399 216.954C187.862 216.133 187.305 214.229 187.305 213.196V212.922H190.901H194.497V212.426C194.497 211.271 194.041 209.691 193.423 208.759C192.916 207.979 192.481 207.594 191.559 207.108C190.536 206.571 189.391 206.368 188.368 206.551ZM189.908 207.533C190.678 207.949 190.88 208.577 191.012 210.957L191.053 211.798L189.31 211.828C188.348 211.849 187.477 211.838 187.386 211.818C187.234 211.788 187.213 211.697 187.264 211.109C187.446 208.739 187.831 207.756 188.723 207.422C189.027 207.31 189.594 207.361 189.908 207.533Z" fill="white"/>
<path d="M234.853 206.551C234.519 206.612 233.931 206.763 233.496 206.895C232.918 207.077 231.652 208.07 231.146 208.739C230.122 210.096 229.798 211.241 229.798 213.479C229.798 214.087 229.829 214.776 229.859 214.999C230.062 216.204 230.497 217.349 231.034 218.058C231.348 218.473 232.513 219.405 233.04 219.679C234.559 220.449 236.697 220.449 238.176 219.679C239.351 219.071 241.356 216.913 240.981 216.66C240.495 216.336 240.505 216.326 239.746 217.025C238.743 217.957 238.338 218.129 237.193 218.139C236.372 218.139 236.231 218.109 235.805 217.855C235.228 217.521 234.569 216.64 234.347 215.921C234.033 214.898 233.8 213.814 233.8 213.368V212.922H237.406H241.002L240.951 212.223C240.921 211.828 240.819 211.251 240.738 210.927C240.657 210.613 240.586 210.289 240.586 210.218C240.586 210.157 240.434 209.792 240.262 209.407C239.29 207.381 236.99 206.166 234.853 206.551ZM236.271 207.493C236.788 207.706 237.112 208.212 237.274 209.073C237.355 209.488 237.436 210.056 237.436 210.339C237.446 210.613 237.477 210.917 237.497 210.998C237.517 211.079 237.507 211.302 237.466 211.494L237.396 211.838L235.623 211.818C234.65 211.808 233.83 211.767 233.8 211.747C233.698 211.636 233.8 209.964 233.951 209.296C234.316 207.706 235.177 207.037 236.271 207.493Z" fill="white"/>
<path d="M271.452 206.5C271.441 206.51 271.137 206.541 270.773 206.571C269.598 206.672 268.362 207.169 267.552 207.868C267.379 208.02 267.096 208.404 266.924 208.729C266.62 209.286 266.61 209.377 266.64 210.116C266.691 211.028 266.853 211.322 267.491 211.646C267.774 211.798 268.078 211.859 268.554 211.859C269.122 211.859 269.284 211.818 269.638 211.575C270.064 211.271 270.135 211.17 270.266 210.603C270.368 210.197 270.165 209.448 269.871 209.134C269.324 208.556 269.466 207.898 270.195 207.594C270.742 207.371 271.907 207.371 272.444 207.594C273.396 207.999 273.629 208.526 273.68 210.39C273.69 211.139 273.68 211.798 273.629 211.859C273.589 211.909 272.88 212.193 272.039 212.477C269.415 213.378 268.656 213.712 267.673 214.401C266.559 215.181 266.083 216.052 266.093 217.308C266.093 218.656 266.721 219.557 267.977 220.033C268.808 220.357 270.398 220.266 271.381 219.841C272.262 219.456 272.667 219.223 273.123 218.808C273.396 218.564 273.629 218.382 273.65 218.402C273.66 218.423 273.731 218.605 273.812 218.797C274.217 219.881 274.804 220.266 276.05 220.266C276.749 220.266 276.901 220.226 277.57 219.881C277.985 219.669 278.522 219.324 278.765 219.111L279.211 218.727L278.988 218.402L278.755 218.088L278.512 218.281C278.38 218.392 278.188 218.463 278.086 218.443C277.995 218.423 277.884 218.402 277.843 218.402C277.59 218.372 277.55 217.795 277.55 214.107C277.55 210.177 277.519 209.742 277.144 208.8C276.689 207.655 275.291 206.855 273.275 206.591C272.778 206.52 271.502 206.46 271.452 206.5ZM273.609 215.08V217.136L273.234 217.501C273.022 217.703 272.697 217.936 272.505 218.038C272.049 218.261 271.198 218.271 270.854 218.048C270.449 217.784 270.165 217.015 270.216 216.346C270.287 215.333 270.439 214.958 271.056 214.34C271.654 213.743 272.92 213.024 273.366 213.024H273.609V215.08Z" fill="white"/>
<path d="M61.0796 206.794C61.0695 206.794 61.0492 206.966 61.0391 207.169C61.0087 207.493 61.0289 207.553 61.2011 207.553C61.4544 207.553 62.1229 207.888 62.3154 208.121C62.5281 208.384 62.5281 218.129 62.3154 218.534C62.1736 218.787 61.4443 219.203 61.1302 219.203C61.0188 219.203 60.9986 219.365 61.0796 219.831C61.0897 219.932 67.7753 219.932 67.7854 219.841C67.8867 219.273 67.8462 219.223 67.2789 219.051C67.0865 218.99 66.8433 218.818 66.7218 218.666C66.5091 218.382 66.5091 218.301 66.4888 212.689C66.4787 209.559 66.4584 206.946 66.4584 206.895C66.4584 206.834 65.4961 206.794 63.7741 206.794C62.2951 206.794 61.0897 206.794 61.0796 206.794Z" fill="white"/>
<path d="M68.9803 206.794C68.9702 206.794 68.9601 206.946 68.95 207.128C68.9297 207.401 68.9702 207.472 69.1829 207.523C70.0541 207.726 70.3478 208.303 73.1436 215.201C73.8223 216.873 74.5415 218.645 74.734 219.152C74.9366 219.658 75.1392 220.114 75.1898 220.175C75.2607 220.276 75.8381 220.296 75.9191 220.205C75.9394 220.185 76.5269 218.757 77.2259 217.025C80.9738 207.756 80.8523 208.019 81.5006 207.685C81.6728 207.594 81.8754 207.493 81.9564 207.452C82.1387 207.361 82.1894 207.148 82.0678 206.966C82.007 206.854 81.5512 206.824 80.0216 206.834C78.9378 206.834 77.9957 206.834 77.9248 206.844C77.8336 206.844 77.8032 206.956 77.8235 207.169C77.8539 207.493 77.8741 207.503 78.411 207.584C79.1302 207.685 79.3733 207.918 79.3531 208.485C79.3328 208.941 79.272 209.124 78.1679 212.01C77.7931 212.983 77.4284 213.945 77.3575 214.138C77.2056 214.533 76.922 214.654 76.8308 214.371C76.8004 214.269 76.7295 214.097 76.6789 213.986C76.6282 213.874 76.3243 213.074 75.99 212.213C75.6659 211.352 75.1898 210.106 74.9264 209.458C74.3896 208.07 74.3997 207.837 75.0379 207.665C75.2506 207.604 75.5443 207.553 75.6862 207.553C75.9698 207.553 76.0913 207.391 76.0306 207.087C76.0103 206.976 75.99 206.875 75.99 206.844C75.9799 206.814 74.4098 206.794 72.4852 206.794C70.5606 206.794 68.9803 206.794 68.9803 206.794Z" fill="white"/>
<path d="M119.264 207.017C119.183 207.381 119.274 207.493 119.75 207.624C120.004 207.685 120.307 207.868 120.449 208.009L120.703 208.283L120.723 213.206C120.753 218.899 120.784 218.686 119.892 219.04C119.305 219.273 119.244 219.334 119.315 219.669L119.355 219.912L122.708 219.881L126.051 219.861L126.071 219.537C126.081 219.354 126.061 219.203 126.031 219.192C125.443 219.122 124.937 218.797 124.856 218.463C124.825 218.342 124.795 215.677 124.775 212.537L124.754 206.834L122.04 206.814L119.325 206.794L119.264 207.017Z" fill="white"/>
<path d="M242.166 206.844C242.156 206.875 242.146 207.027 242.156 207.189C242.166 207.432 242.227 207.493 242.663 207.645C243.585 207.959 243.534 207.634 243.524 213.246C243.524 216.235 243.483 218.271 243.423 218.433C243.321 218.716 242.835 219.061 242.399 219.152C242.187 219.203 242.126 219.273 242.126 219.486C242.126 219.638 242.177 219.79 242.237 219.831C242.379 219.912 248.133 219.942 248.568 219.851C248.842 219.8 248.893 219.739 248.893 219.506C248.893 219.284 248.832 219.213 248.508 219.121C248.295 219.051 248.011 218.888 247.869 218.737L247.626 218.473L247.576 212.649L247.525 206.834L244.861 206.814C243.392 206.804 242.177 206.814 242.166 206.844Z" fill="white"/>
</svg>
