<svg width="406" height="240" viewBox="0 0 406 240" fill="none" xmlns="http://www.w3.org/2000/svg">
<path d="M108.354 194.029C110.372 194.029 111.891 194.472 112.907 195.357C113.931 196.243 114.468 197.424 114.52 198.901L111.272 199.044C111.133 198.217 110.833 197.625 110.372 197.267C109.919 196.901 109.235 196.718 108.32 196.718C107.377 196.718 106.638 196.912 106.104 197.3C105.76 197.548 105.588 197.881 105.588 198.298C105.588 198.678 105.749 199.004 106.07 199.274C106.48 199.618 107.476 199.977 109.056 200.35C110.636 200.723 111.802 201.111 112.556 201.514C113.317 201.909 113.909 202.454 114.333 203.148C114.765 203.836 114.981 204.688 114.981 205.705C114.981 206.627 114.725 207.49 114.213 208.295C113.701 209.099 112.976 209.699 112.04 210.094C111.104 210.481 109.937 210.676 108.54 210.676C106.507 210.676 104.945 210.208 103.855 209.271C102.765 208.328 102.114 206.956 101.901 205.156L105.062 204.849C105.252 205.909 105.635 206.689 106.213 207.187C106.798 207.684 107.585 207.933 108.572 207.933C109.618 207.933 110.405 207.713 110.932 207.274C111.466 206.828 111.733 206.308 111.733 205.716C111.732 205.335 111.619 205.013 111.393 204.75C111.173 204.479 110.785 204.245 110.23 204.048C109.849 203.916 108.982 203.682 107.629 203.346C105.888 202.914 104.666 202.384 103.964 201.755C102.976 200.87 102.483 199.79 102.483 198.518C102.483 197.698 102.713 196.934 103.174 196.225C103.642 195.508 104.311 194.962 105.182 194.589C106.06 194.216 107.117 194.029 108.354 194.029ZM153.277 203.017C153.277 204.399 153.318 205.295 153.399 205.705C153.538 206.363 153.867 206.894 154.386 207.296C154.912 207.691 155.629 207.889 156.536 207.889C157.458 207.889 158.153 207.702 158.621 207.329C159.089 206.949 159.372 206.484 159.467 205.936C159.562 205.387 159.609 204.476 159.609 203.203V194.304H162.858V202.753C162.858 204.684 162.769 206.048 162.594 206.846C162.418 207.643 162.093 208.317 161.617 208.865C161.149 209.414 160.52 209.852 159.73 210.182C158.94 210.503 157.908 210.665 156.636 210.665C155.1 210.665 153.932 210.489 153.135 210.138C152.345 209.779 151.72 209.319 151.259 208.756C150.798 208.185 150.494 207.589 150.348 206.967C150.136 206.045 150.029 204.684 150.029 202.885V194.304H153.277V203.017ZM174.035 194.029C176.003 194.029 177.601 194.611 178.83 195.774C179.562 196.462 180.111 197.45 180.477 198.737L177.262 199.505C177.072 198.671 176.673 198.013 176.066 197.53C175.466 197.048 174.734 196.806 173.871 196.806C172.679 196.806 171.709 197.234 170.963 198.09C170.224 198.946 169.855 200.332 169.855 202.248C169.855 204.282 170.221 205.731 170.952 206.594C171.684 207.457 172.634 207.889 173.805 207.889C174.668 207.889 175.41 207.614 176.032 207.065C176.654 206.517 177.101 205.653 177.371 204.476L180.521 205.475C180.038 207.23 179.233 208.536 178.107 209.392C176.987 210.24 175.564 210.665 173.838 210.665C171.702 210.665 169.946 209.937 168.57 208.481C167.195 207.018 166.508 205.021 166.508 202.49C166.508 199.813 167.199 197.735 168.582 196.257C169.965 194.772 171.782 194.029 174.035 194.029ZM201.857 203.017C201.857 204.399 201.896 205.295 201.977 205.705C202.116 206.363 202.446 206.894 202.965 207.296C203.492 207.691 204.208 207.889 205.115 207.889C206.037 207.889 206.732 207.702 207.2 207.329C207.668 206.949 207.95 206.484 208.045 205.936C208.14 205.387 208.188 204.476 208.188 203.203V194.304H211.436V202.753C211.436 204.684 211.347 206.048 211.172 206.846C210.996 207.643 210.671 208.317 210.195 208.865C209.727 209.414 209.098 209.853 208.309 210.182C207.519 210.504 206.487 210.665 205.214 210.665C203.678 210.665 202.511 210.489 201.714 210.138C200.924 209.779 200.298 209.319 199.837 208.756C199.376 208.185 199.072 207.589 198.926 206.967C198.714 206.045 198.608 204.684 198.608 202.885V194.304H201.857V203.017ZM331.958 194.029C334.328 194.029 336.223 194.765 337.643 196.235C339.069 197.706 339.782 199.75 339.782 202.369C339.782 204.966 339.076 206.999 337.664 208.47C336.252 209.933 334.365 210.665 332.002 210.665C329.61 210.665 327.708 209.937 326.296 208.481C324.884 207.018 324.179 205.006 324.179 202.446C324.179 200.808 324.424 199.432 324.914 198.32C325.28 197.501 325.777 196.765 326.406 196.114C327.043 195.463 327.738 194.981 328.491 194.666C329.493 194.242 330.649 194.029 331.958 194.029ZM33.2266 210.391H29.9786V194.304H33.2266V210.391ZM46.8956 205.047V194.304H49.9132V210.391H46.6544L40.169 199.9V210.391H37.1515V194.304H40.3116L46.8956 205.047ZM65.1954 197.025H57.4151V200.833H64.1309V203.554H57.4151V210.391H54.1671V194.304H65.1954V197.025ZM75.5177 194.304C77.2368 194.304 78.4844 194.451 79.2598 194.743C80.0424 195.029 80.6677 195.541 81.1358 196.279C81.6039 197.018 81.8379 197.863 81.838 198.813C81.838 200.021 81.4831 201.02 80.7735 201.81C80.064 202.592 79.0035 203.086 77.5919 203.291C78.294 203.701 78.8718 204.151 79.3253 204.641C79.7861 205.131 80.4044 206.001 81.1798 207.252L83.1436 210.391H79.2598L76.9112 206.89C76.0775 205.639 75.5066 204.853 75.1993 204.531C74.8921 204.202 74.5666 203.978 74.2227 203.861C73.8789 203.737 73.334 203.675 72.588 203.675H71.9298V210.391H68.6817V194.304H75.5177ZM100.203 210.391H96.67L95.2657 206.736H88.835L87.5079 210.391H84.0626L90.3282 194.304H93.7628L100.203 210.391ZM130.131 197.025H125.369V210.391H122.121V197.025H117.348V194.304H130.131V197.025ZM139.872 194.304C141.591 194.304 142.838 194.451 143.613 194.743C144.396 195.028 145.022 195.54 145.49 196.279C145.958 197.018 146.192 197.863 146.192 198.813C146.192 200.021 145.838 201.02 145.128 201.81C144.418 202.592 143.358 203.086 141.946 203.291C142.648 203.701 143.226 204.151 143.68 204.641C144.141 205.131 144.759 206.001 145.534 207.252L147.498 210.391H143.613L141.266 206.89C140.432 205.639 139.861 204.853 139.554 204.531C139.247 204.202 138.921 203.978 138.577 203.861C138.233 203.737 137.688 203.675 136.942 203.675H136.284V210.391H133.036V194.304H139.872ZM195.736 197.025H190.975V210.391H187.727V197.025H182.953V194.304H195.736V197.025ZM222.504 194.304C224.223 194.304 225.471 194.451 226.246 194.743C227.029 195.028 227.654 195.541 228.122 196.279C228.59 197.018 228.824 197.863 228.824 198.813C228.824 200.021 228.469 201.02 227.76 201.81C227.05 202.592 225.99 203.086 224.578 203.291C225.28 203.701 225.858 204.151 226.312 204.641C226.772 205.131 227.391 206.001 228.166 207.252L230.13 210.391H226.246L223.898 206.89C223.064 205.639 222.493 204.853 222.186 204.531C221.878 204.202 221.553 203.978 221.209 203.861C220.865 203.737 220.32 203.675 219.574 203.675H218.916V210.391H215.668V194.304H222.504ZM244.611 197.025H235.932V200.592H244.008V203.302H235.932V207.68H244.919V210.391H232.684V194.304H244.611V197.025ZM265.277 205.047V194.304H268.295V210.391H265.036L258.551 199.9V210.391H255.533V194.304H258.694L265.277 205.047ZM284.455 197.025H275.775V200.592H283.852V203.302H275.775V207.68H284.763V210.391H272.527V194.304H284.455V197.025ZM299.935 197.025H295.173V210.391H291.925V197.025H287.151V194.304H299.935V197.025ZM307.021 205.354L309.961 194.304H313.823L316.644 205.54L319.112 194.304H322.383L318.476 210.391H315.03L311.826 198.364L308.633 210.391H305.11L301.271 194.304H304.595L307.021 205.354ZM349.962 194.304C351.681 194.304 352.929 194.451 353.704 194.743C354.487 195.029 355.112 195.541 355.58 196.279C356.048 197.018 356.282 197.863 356.282 198.813C356.282 200.021 355.927 201.02 355.218 201.81C354.508 202.592 353.448 203.086 352.036 203.291C352.738 203.701 353.316 204.151 353.77 204.641C354.23 205.131 354.849 206.001 355.624 207.252L357.588 210.391H353.704L351.356 206.89C350.522 205.639 349.951 204.853 349.644 204.531C349.336 204.202 349.011 203.978 348.667 203.861C348.323 203.737 347.778 203.675 347.032 203.675H346.374V210.391H343.126V194.304H349.962ZM363.434 201.447L369.995 194.304H374.362L368.306 200.569L374.691 210.391H370.489L366.067 202.841L363.434 205.529V210.391H360.186V194.304H363.434V201.447ZM331.991 196.806C330.653 196.806 329.573 197.267 328.754 198.188C327.935 199.103 327.526 200.485 327.525 202.336C327.525 204.157 327.946 205.541 328.787 206.484C329.628 207.421 330.697 207.889 331.991 207.889C333.286 207.889 334.347 207.424 335.174 206.495C336.008 205.559 336.425 204.157 336.425 202.292C336.425 200.449 336.018 199.073 335.206 198.166C334.401 197.259 333.33 196.806 331.991 196.806ZM89.8341 204.026H94.2237L92.0069 198.057L89.8341 204.026ZM71.9298 201.107H74.3321C75.8901 201.107 76.8633 201.041 77.2511 200.909C77.6387 200.778 77.9427 200.551 78.1622 200.229C78.3816 199.908 78.4913 199.505 78.4913 199.022C78.4913 198.481 78.3452 198.046 78.0528 197.717C77.7675 197.38 77.3608 197.168 76.8341 197.08C76.5704 197.044 75.7802 197.025 74.464 197.025H71.9298V201.107ZM136.284 201.107H138.687C140.245 201.107 141.218 201.041 141.606 200.909C141.993 200.778 142.297 200.551 142.517 200.229C142.736 199.908 142.846 199.505 142.846 199.022C142.846 198.481 142.699 198.046 142.406 197.717C142.121 197.38 141.715 197.168 141.189 197.08C140.925 197.044 140.135 197.025 138.818 197.025H136.284V201.107ZM218.916 201.107H221.319C222.877 201.107 223.85 201.041 224.237 200.909C224.625 200.778 224.929 200.551 225.149 200.229C225.368 199.908 225.478 199.505 225.478 199.022C225.478 198.481 225.332 198.046 225.039 197.717C224.754 197.38 224.348 197.168 223.821 197.08C223.558 197.044 222.767 197.025 221.45 197.025H218.916V201.107ZM346.374 201.107H348.776C350.334 201.107 351.308 201.041 351.695 200.909C352.083 200.778 352.387 200.551 352.607 200.229C352.826 199.908 352.936 199.505 352.936 199.022C352.936 198.481 352.79 198.046 352.497 197.717C352.212 197.38 351.805 197.168 351.278 197.08C351.015 197.044 350.225 197.025 348.908 197.025H346.374V201.107ZM59.2071 169.466C61.5773 169.466 63.4725 170.201 64.8917 171.672C66.3181 173.142 67.0313 175.187 67.0313 177.806C67.0313 180.403 66.325 182.436 64.9132 183.906C63.5013 185.369 61.6139 186.102 59.2511 186.102C56.8591 186.101 54.9568 185.374 53.545 183.918C52.1332 182.455 51.4279 180.443 51.4278 177.883C51.4278 176.244 51.6731 174.869 52.1632 173.757C52.5289 172.938 53.0262 172.202 53.6554 171.551C54.2918 170.9 54.9869 170.417 55.7403 170.103C56.7424 169.678 57.8979 169.466 59.2071 169.466ZM133.412 169.466C135.409 169.466 136.968 169.886 138.087 170.728C139.214 171.561 139.938 172.718 140.26 174.195L137.033 174.799C136.807 174.009 136.379 173.387 135.75 172.934C135.128 172.473 134.349 172.242 133.412 172.242C131.993 172.242 130.863 172.692 130.022 173.592C129.188 174.492 128.771 175.827 128.771 177.597C128.771 179.506 129.195 180.94 130.044 181.898C130.893 182.849 132.004 183.325 133.379 183.325C134.059 183.325 134.74 183.193 135.42 182.93C136.108 182.659 136.697 182.333 137.187 181.953V179.912H133.467V177.202H140.468V183.61C139.788 184.269 138.8 184.851 137.505 185.355C136.218 185.853 134.912 186.102 133.588 186.102C131.905 186.102 130.439 185.75 129.188 185.048C127.937 184.338 126.996 183.329 126.367 182.02C125.738 180.703 125.424 179.272 125.424 177.729C125.424 176.053 125.775 174.565 126.478 173.263C127.18 171.961 128.207 170.962 129.561 170.267C130.592 169.733 131.876 169.466 133.412 169.466ZM34.2696 180.79L37.21 169.74H41.0723L43.8927 180.977L46.3614 169.74H49.6319L45.7247 185.827H42.2794L39.0753 173.801L35.8819 185.827H32.3595L28.5196 169.74H31.8438L34.2696 180.79ZM77.211 169.74C78.9301 169.74 80.1778 169.887 80.9532 170.18C81.7357 170.465 82.3611 170.977 82.8292 171.716C83.2972 172.455 83.5313 173.299 83.5313 174.25C83.5313 175.457 83.1765 176.456 82.4669 177.246C81.7573 178.029 80.6969 178.523 79.2852 178.728C79.9874 179.137 80.5652 179.587 81.0186 180.077C81.4795 180.567 82.0978 181.438 82.8731 182.688L84.837 185.827H80.9532L78.6046 182.326C77.7709 181.076 77.1999 180.29 76.8927 179.968C76.5854 179.639 76.2599 179.415 75.9161 179.298C75.5723 179.174 75.0274 179.111 74.2813 179.111H73.6231V185.827H70.3751V169.74H77.211ZM90.7266 183.116H98.8028V185.827H87.4786V169.872H90.7266V183.116ZM107.841 169.74C109.18 169.74 110.2 169.843 110.902 170.048C111.846 170.326 112.654 170.82 113.327 171.529C114 172.239 114.512 173.109 114.863 174.141C115.215 175.165 115.391 176.431 115.391 177.938C115.391 179.261 115.226 180.403 114.897 181.361C114.494 182.532 113.92 183.479 113.174 184.203C112.611 184.752 111.85 185.179 110.892 185.486C110.175 185.713 109.216 185.827 108.017 185.827H101.904V169.74H107.841ZM151.108 169.74C152.828 169.74 154.075 169.887 154.851 170.18C155.633 170.465 156.259 170.977 156.727 171.716C157.195 172.455 157.429 173.299 157.429 174.25C157.429 175.457 157.074 176.456 156.364 177.246C155.655 178.029 154.594 178.523 153.183 178.728C153.885 179.137 154.463 179.587 154.916 180.077C155.377 180.567 155.995 181.438 156.771 182.688L158.734 185.827H154.851L152.502 182.326C151.668 181.076 151.097 180.29 150.79 179.968C150.483 179.639 150.157 179.415 149.814 179.298C149.47 179.174 148.925 179.111 148.179 179.111H147.521V185.827H144.273V169.74H151.108ZM173.216 172.462H164.536V176.028H172.612V178.738H164.536V183.116H173.524V185.827H161.288V169.74H173.216V172.462ZM188.991 172.462H180.312V176.028H188.388V178.738H180.312V183.116H189.299V185.827H177.064V169.74H188.991V172.462ZM202.617 180.483V169.74H205.635V185.827H202.375L195.891 175.337V185.827H192.873V169.74H196.033L202.617 180.483ZM59.2403 172.242C57.9017 172.242 56.8223 172.703 56.003 173.625C55.1839 174.539 54.7745 175.922 54.7745 177.772C54.7745 179.594 55.1949 180.977 56.0362 181.921C56.8774 182.857 57.9456 183.325 59.2403 183.325C60.5351 183.325 61.5963 182.861 62.4229 181.932C63.2569 180.995 63.6739 179.594 63.6739 177.729C63.6739 175.885 63.2671 174.51 62.4552 173.603C61.6505 172.696 60.5788 172.242 59.2403 172.242ZM105.152 183.116H107.577C108.484 183.116 109.14 183.065 109.542 182.963C110.069 182.831 110.504 182.608 110.848 182.294C111.199 181.979 111.484 181.463 111.703 180.746C111.923 180.022 112.032 179.038 112.032 177.795C112.032 176.551 111.923 175.596 111.703 174.931C111.484 174.265 111.176 173.745 110.781 173.372C110.386 172.999 109.885 172.747 109.278 172.615C108.825 172.513 107.936 172.462 106.612 172.462H105.152V183.116ZM73.6231 176.544H76.0255C77.5835 176.544 78.5566 176.477 78.9444 176.346C79.3321 176.214 79.6361 175.988 79.8556 175.666C80.075 175.344 80.1846 174.942 80.1847 174.459C80.1847 173.918 80.0386 173.482 79.7462 173.153C79.4609 172.817 79.0541 172.604 78.5274 172.517C78.2637 172.48 77.4735 172.462 76.1573 172.462H73.6231V176.544ZM147.521 176.544H149.923C151.481 176.544 152.454 176.477 152.842 176.346C153.23 176.214 153.534 175.988 153.753 175.666C153.972 175.344 154.082 174.942 154.082 174.459C154.082 173.918 153.936 173.482 153.644 173.153C153.358 172.817 152.952 172.604 152.425 172.517C152.161 172.48 151.371 172.462 150.055 172.462H147.521V176.544ZM381.347 161.786H339.406C339.434 161.762 342.079 159.447 343.639 158.454C348.46 155.903 352.512 152.46 356.23 148.557C374.986 130.401 380.87 100.889 374.883 76.0098C371.748 64.8369 365.213 54.9596 357.149 46.71C351.61 40.8459 344.491 34.5227 336.976 31.8154C335.879 32.3756 337.583 34.4645 338.967 36.1611C339.614 36.9542 340.191 37.6618 340.379 38.0869C341.729 40.0399 342.925 42.0538 344.076 44.1299C346.434 48.5058 348.427 53.0977 349.802 57.8809C349.924 58.3072 350.04 58.7425 350.157 59.1807V59.1816L350.158 59.1826V59.1836C350.708 61.2427 351.278 63.3748 352.574 65.0342C353.876 66.7911 356.098 68.0321 358.233 68.9219C359.587 69.4397 369.692 73.8335 364.336 74.4092C363.664 74.3201 363.031 74.2341 362.435 74.1533H362.434C357.396 73.4706 354.972 73.1424 353.803 74.2002C352.719 75.1807 352.714 77.3524 352.702 81.5361C352.699 82.5454 352.696 83.6718 352.678 84.9268C352.494 88.6234 352.019 92.2328 351.543 95.8604L351.536 95.915C351.468 96.4328 351.4 96.9509 351.333 97.4697C350.079 103.643 350.466 107.631 357.054 109.654C358.987 110.245 363.318 113.006 358.929 113.215C358.002 113.245 357.003 113.13 355.988 113.014C353.579 112.738 351.083 112.452 349.267 114.063C347.39 115.679 346.452 118.081 345.533 120.434C345.152 121.409 344.775 122.377 344.335 123.275C342.676 127.249 340.657 131.108 338.37 134.772C337.936 135.66 337.208 136.638 336.45 137.656C334.281 140.571 331.861 143.823 335.339 146.271C335.958 146.773 336.693 147.174 337.427 147.573C338.571 148.196 339.715 148.819 340.419 149.831C340.695 151.23 337.886 150.868 336.026 150.628C335.668 150.582 335.344 150.54 335.085 150.517C331.936 149.944 328.517 149.592 325.667 151.334C324.382 152.21 323.137 153.111 321.9 154.008C318.207 156.685 314.579 159.316 310.112 161.067C308.016 162.153 302.683 162.169 306.352 159.075C307.103 158.375 308.481 157.531 310.027 156.582C314.22 154.011 319.66 150.675 317.266 147.381C315.348 145.79 312.817 145.224 310.313 144.663C309.085 144.388 307.863 144.114 306.724 143.723C304.971 143.306 303.235 142.75 301.5 142.195C299.501 141.556 297.501 140.917 295.476 140.489C287.063 138.569 283.746 161.786 283.746 161.786H100.826C100.826 161.786 105.468 157.719 107.801 155.711C109.978 153.846 112.239 152.101 114.501 150.355L114.502 150.354C116.736 148.63 118.972 146.905 121.13 145.062C126.803 139.967 131.803 134.248 136.804 128.527L136.805 128.526L136.81 128.52L136.812 128.518C137.932 127.236 139.053 125.954 140.181 124.68C145.146 119.77 149.049 114.014 152.953 108.256L155.034 105.201C155.732 104.186 156.435 103.175 157.15 102.174C159.614 98.8423 161.47 95.1616 163.328 91.4795C163.982 90.1834 164.636 88.8868 165.316 87.6055C167.875 83.531 170.241 79.3887 172.041 74.9648C172.438 74.1887 172.843 73.4147 173.249 72.6406C174.761 69.7571 176.277 66.8644 177.367 63.793C182.631 53.1841 189.792 30.1221 189.804 30.084H382L381.347 161.786ZM129.337 58.9551C132.277 58.9473 135.164 58.9397 137.119 59.3184C139.419 59.7029 140.87 60.8066 140.561 63.3076C140.172 66.3995 138.674 69.2981 137.237 72.0801C137.084 72.3761 136.932 72.6714 136.782 72.9648C135.534 75.3004 134.076 77.615 132.616 79.9336L132.615 79.9355C132.121 80.7204 131.627 81.5062 131.14 82.293C127.787 87.765 124.315 93.4132 120.432 98.4102C119.99 99.0261 119.527 99.6401 119.061 100.244L117.669 102.019L117.659 102.031C117.593 102.115 117.527 102.197 117.462 102.279C117.397 102.362 117.331 102.445 117.267 102.527C116.797 103.14 116.375 103.738 115.961 104.326C115.379 105.152 114.812 105.956 114.148 106.752C113.059 108.041 111.97 109.365 110.874 110.696V110.697H110.873C109.08 112.876 107.27 115.075 105.418 117.182C103.596 119.234 101.627 121.116 99.4659 123.182L99.4454 123.201C96.6102 126.006 93.6747 128.912 90.8722 131.75V131.755L90.837 131.79C90.4961 132.125 90.1525 132.463 89.8077 132.803L89.8057 132.805C87.0903 135.48 84.2642 138.264 81.4835 140.724C78.2501 143.524 74.8935 146.077 71.4981 148.661C70.1873 149.659 68.8705 150.66 67.5528 151.683C67.0441 152.073 66.5276 152.484 66.003 152.899C63.6845 154.738 61.2135 156.696 58.6143 157.646C56.722 158.279 55.5963 157.693 56.0938 155.763C56.5647 154.267 57.373 152.892 58.2686 151.544L59.1847 150.2C59.4969 149.748 59.8099 149.295 60.1134 148.838C60.7626 147.884 61.3693 146.875 61.961 145.861L62.5489 144.849C63.0706 143.946 63.5871 143.052 64.1173 142.202C65.0481 140.742 65.8704 139.216 66.6886 137.696C67.3043 136.553 67.9171 135.413 68.5733 134.309C68.8121 133.902 69.0619 133.498 69.3165 133.096L70.0919 131.89C70.3684 131.463 70.645 131.036 70.9161 130.606C71.5905 129.469 72.2451 128.353 72.8927 127.249V127.248C74.3373 124.784 75.7507 122.375 77.2882 119.896C77.8268 119.025 78.3965 118.157 78.9688 117.285L78.9698 117.284C80.0692 115.61 81.1791 113.919 82.0997 112.154C82.1847 111.985 82.2693 111.816 82.3536 111.648C83.9556 108.457 85.4557 105.468 87.3731 102.404C88.1769 101.104 89.0718 99.8203 89.9688 98.5352H89.9698C90.6744 97.5257 91.3797 96.514 92.0431 95.4912C93.7573 92.8721 95.4242 90.1602 97.0128 87.4883C100.037 82.5492 103.093 78.153 106.403 73.5029C107.296 72.158 108.128 70.7951 108.956 69.4395C110.084 67.5929 111.203 65.7586 112.458 63.999C113.597 62.3476 114.806 60.9948 116.802 60.208C119.921 58.9694 123.566 58.9616 126.957 58.9541H126.983C127.76 58.9594 128.55 58.9572 129.337 58.9551ZM170.575 58.6748C171.812 58.6999 173.213 58.7549 174.266 59.2979C177.097 60.9446 174.674 65.3236 173.492 67.458L173.466 67.5049C173.384 67.6813 173.303 67.8586 173.222 68.0352L173.221 68.0371C172.711 69.1455 172.202 70.2497 171.498 71.2529C170.947 72.1424 170.378 73.0232 169.809 73.9062L168.908 75.3066C168.011 76.7126 167.129 78.1415 166.319 79.6387C165.465 81.1064 164.581 82.5096 163.702 83.9062V83.9072L162.556 85.7373C162.176 86.3493 161.8 86.965 161.431 87.5889L161.418 87.6133V87.6143C160.541 89.3409 159.756 90.8869 158.483 92.4502C158.088 92.987 157.677 93.5129 157.261 94.0449C156.701 94.7609 156.132 95.4884 155.584 96.2686C154.006 98.6061 152.402 100.916 150.403 102.919C149.45 103.938 148.686 105.01 147.921 106.082L147.19 107.097C146.942 107.434 146.688 107.77 146.422 108.103C145.555 109.279 144.537 110.345 143.513 111.417L143.512 111.419C143.132 111.816 142.752 112.214 142.378 112.619C139.399 116.186 136.368 119.63 133.103 122.88C131.89 124.144 130.709 125.429 129.529 126.712H129.528C127.884 128.501 126.242 130.286 124.528 132.002C123.106 133.374 121.653 134.775 120.14 136.084C118.956 137.048 117.717 138.004 116.477 138.961L114.692 140.344C114.101 140.805 113.516 141.269 112.941 141.734C112.459 142.164 111.99 142.591 111.527 143.012L111.526 143.013C109.673 144.699 107.919 146.296 105.745 147.674C104.667 148.344 103.665 149.144 102.667 149.94C101.861 150.584 101.058 151.226 100.218 151.796L100.212 151.804L100.175 151.829C99.5114 152.285 98.8672 152.756 98.2227 153.227H98.2218C97.5921 153.686 96.9619 154.147 96.3136 154.594C95.8504 154.92 95.4219 155.259 95.004 155.591C94.0749 156.328 93.1975 157.024 92.1036 157.437C89.5548 158.387 88.763 156.124 89.6905 153.895C90.3134 152.3 91.1976 151.01 92.21 149.534C92.2762 149.438 92.343 149.34 92.4102 149.242C93.0304 148.306 93.5915 147.33 94.1515 146.354V146.354C94.5534 145.654 94.9558 144.954 95.379 144.271C95.9352 143.307 96.5434 142.392 97.1524 141.476C97.7876 140.52 98.4237 139.564 99.0011 138.552C99.1204 138.312 99.2386 138.071 99.3565 137.831V137.83C100.006 136.508 100.653 135.19 101.512 133.982C101.637 133.809 101.763 133.635 101.889 133.462C102.662 132.396 103.436 131.33 104.061 130.174C105.628 127.337 107.358 124.543 109.077 121.766V121.765L109.078 121.763C109.805 120.589 110.53 119.419 111.239 118.25C111.674 117.5 112.138 116.768 112.602 116.036L112.603 116.035C113.033 115.356 113.463 114.676 113.871 113.981C114.74 112.382 115.711 110.851 116.689 109.309C116.964 108.874 117.241 108.438 117.516 107.999C117.863 107.373 118.201 106.755 118.535 106.144C119.488 104.402 120.414 102.71 121.444 100.999C122.243 99.7178 123.066 98.4366 123.891 97.1514L125.073 95.3057C126.253 93.4553 127.419 91.5901 128.511 89.6953C129.926 87.0566 131.591 84.5716 133.256 82.0889L133.257 82.0879C134.072 80.8721 134.887 79.6565 135.672 78.4238C136.278 77.4072 136.814 76.4037 137.345 75.4082C137.893 74.3807 138.437 73.3611 139.05 72.3438C140.297 70.1349 141.799 68.1897 143.333 66.2031C143.466 66.031 143.599 65.8585 143.733 65.6855C144.291 65.0374 144.795 64.3278 145.3 63.6182C146.22 62.3243 147.142 61.0281 148.396 60.0947C149.451 59.3458 150.615 58.8708 151.932 58.7979C153.49 58.7174 155.142 58.667 156.748 58.667C158.456 58.6724 160.547 58.6706 162.685 58.668H162.688C165.489 58.6645 168.37 58.6605 170.575 58.6748ZM104.332 59.7783C105.161 59.8135 106.081 60.0172 106.453 60.7031C106.98 62.0466 106.067 64.1295 105.381 65.6924V65.6934C105.288 65.9047 105.199 66.1067 105.119 66.2959C104.835 66.8901 104.56 67.4906 104.286 68.0898C103.626 69.5335 102.968 70.9716 102.191 72.3037C101.629 73.2734 101.043 74.2011 100.448 75.1445V75.1455L100.445 75.1504L100.43 75.1738C100.302 75.3772 100.173 75.5817 100.044 75.7871C99.0855 77.2875 98.2244 78.8249 97.3663 80.3564L96.7042 81.5342C96.0395 82.7097 95.3627 83.8759 94.63 85.0127C93.8046 86.3225 92.8982 87.6963 91.9952 89.0664C91.3335 90.0704 90.673 91.0723 90.047 92.0449C89.4535 92.9707 88.9191 93.8796 88.3878 94.7812C87.7737 95.8232 87.1642 96.8565 86.4757 97.8994C85.0593 100.019 83.4387 101.914 81.8184 103.808H81.8175C81.1577 104.579 80.4985 105.351 79.8526 106.137C78.7911 107.348 77.7969 108.644 76.7999 109.945V109.946C76.0005 110.99 75.1986 112.036 74.3575 113.044C73.666 113.897 72.8767 114.692 72.0899 115.484C71.667 115.91 71.2449 116.336 70.839 116.77C69.3907 118.293 67.9743 119.93 66.6251 121.491L66.4727 121.668C64.3541 123.985 62.1906 126.123 59.9932 128.294H59.9923C58.8556 129.417 57.7101 130.549 56.5567 131.72L56.5235 131.753C54.4951 133.791 52.4241 135.787 50.3077 137.745C49.598 138.388 48.911 139.053 48.2247 139.717C47.0783 140.826 45.933 141.935 44.6847 142.938L44.46 143.115C40.8582 145.949 37.2682 148.773 33.4835 151.344C32.1104 152.217 30.839 153.201 29.5665 154.185C28.6497 154.894 27.7322 155.603 26.7755 156.272C26.7504 156.288 26.7205 156.308 26.6866 156.33H26.6856C26.0622 156.731 24.043 158.031 24.0001 157.095C23.9951 156.816 24.216 156.373 24.5401 155.811C24.7826 155.383 25.0659 154.907 25.3604 154.411L26.1319 153.102C26.3853 152.663 26.6295 152.227 26.8458 151.812C28.8491 148.132 30.7417 144.667 33.0391 141.184C34.6604 138.919 36.1388 136.835 37.6016 134.42C38.8607 132.521 40.057 130.397 41.2569 128.27C42.4117 126.222 43.5693 124.169 44.7872 122.307C45.2123 121.666 45.5966 121.115 45.9591 120.595C46.6531 119.599 47.2691 118.714 47.9493 117.523C50.234 113.599 52.6633 109.489 55.0782 105.402L55.0792 105.401C57.5631 101.198 60.0321 97.019 62.3145 93.0938C62.9211 92.0472 63.5339 90.8842 64.1495 89.7168C64.6945 88.6831 65.2426 87.646 65.7891 86.6816C66.9541 84.611 68.2354 82.6623 69.5186 80.7109L70.2813 79.5488C71.0423 78.3848 71.7957 77.2107 72.5177 76.001C72.8991 75.3887 73.2882 74.762 73.6807 74.1289C74.6516 72.5633 75.6459 70.9593 76.6124 69.4434C77.7258 67.6714 78.726 66.4998 80.1134 64.9365C80.3615 64.6581 80.6123 64.3702 80.8653 64.0801L80.8673 64.0781L81.4698 63.3896C82.0768 62.7024 82.6983 62.0257 83.336 61.4395C84.5023 60.3286 85.772 59.9749 87.3253 59.9473C88.8225 59.9323 90.6052 59.9059 92.4864 59.8789L98.7911 59.7979C100.847 59.777 102.776 59.7662 104.332 59.7783ZM266.416 34.0039C273.608 28.7432 267.298 29.7029 262.352 33.0566C257.857 36.093 253.564 39.1482 249.786 43.0518C244.123 49.1774 239.231 55.8937 235.589 63.3691C233.417 67.72 232.085 72.4002 230.861 77.0879C229.544 82.1451 228.564 87.008 228.252 92.2764C228.066 95.5113 228.079 98.8282 228.33 102.043C228.675 105.929 229.607 109.633 230.64 113.443C231.781 117.787 233.224 122.13 235.087 126.215C238.938 134.809 244.588 142.532 251.244 149.178C252.576 150.502 253.974 151.82 255.454 152.999C255.472 153.013 255.5 153.035 255.537 153.063L255.542 153.067C256.107 153.507 258.63 155.469 257.885 154.077C257.299 153.149 256.349 152.154 255.436 151.197C254.966 150.706 254.506 150.224 254.109 149.766C250.985 146.36 248.132 142.83 245.765 138.889C244.247 136.31 242.844 133.738 241.542 131.114C241.526 131.08 241.509 131.046 241.493 131.012L241.435 130.885C240.693 129.299 239.65 127.072 240.69 125.594C241.963 124.171 244.604 124.966 246.436 125.517L246.44 125.518H246.441C246.606 125.567 246.765 125.615 246.916 125.659L246.953 125.672C248.761 126.281 250.603 126.902 252.014 127.881C254.615 129.554 255.551 132.479 256.46 135.316C256.688 136.03 256.915 136.738 257.166 137.419C258.684 141.574 260.469 145.696 263.101 149.275C264.543 151.254 266.124 153.23 267.801 154.992C268.57 155.842 271.499 158.425 270.282 155.775C269.684 154.616 268.938 153.478 268.189 152.334L268.188 152.333L267.625 151.471C267.067 150.607 266.528 149.737 266.069 148.851C265.062 147.003 264.081 145.1 263.274 143.232L263.175 142.997C262.118 140.482 261.017 137.859 260.683 135.132C260.142 129.091 265.494 131.068 269.456 132.531C270.283 132.837 271.05 133.12 271.69 133.303C274.665 134.302 277.568 135.081 280.537 135.878C280.987 135.999 281.439 136.12 281.893 136.242C282.151 136.308 282.412 136.376 282.675 136.444L282.676 136.445H282.678C284.266 136.86 285.915 137.29 287.523 137.288C289.732 137.333 291.489 135.954 289.581 134.185C288.207 132.951 286.347 132.409 284.485 131.866C284.154 131.77 283.822 131.672 283.493 131.571C280.065 130.553 276.666 129.489 273.318 128.272C271.479 127.621 269.616 126.987 267.738 126.411C267.321 126.278 266.899 126.151 266.478 126.023C264.83 125.526 263.185 125.03 261.866 124.189C259.041 122.541 258.184 119.266 258.147 116.154C258.055 113.412 258.259 110.662 258.463 107.929V107.928L258.471 107.825C258.531 107.112 258.588 106.398 258.647 105.685L258.648 105.68C258.958 101.873 259.269 98.0614 259.838 94.2695C260.278 91.3814 261.145 87.7266 264.317 87.1484C266.034 86.8349 267.784 87.3358 269.629 87.8643H269.63C269.9 87.9415 270.172 88.0198 270.445 88.0957C270.871 88.2176 271.297 88.3343 271.723 88.4512L271.724 88.4521C272.307 88.6123 272.891 88.7725 273.475 88.9453C276.258 89.6943 278.987 90.61 281.715 91.5254H281.716C284.251 92.3763 286.785 93.2268 289.36 93.9424H289.413C290.948 94.3669 292.487 94.8094 294.02 95.25H294.021C294.475 95.3806 294.93 95.5108 295.383 95.6406C296.916 96.1107 299.329 96.533 300.438 96.1309C302.778 95.2587 299.88 93.136 298.47 92.5703C296.126 91.5565 293.631 90.8381 291.157 90.125C290.405 89.9081 289.654 89.6917 288.91 89.4678C285.805 88.566 282.759 87.5654 279.716 86.5654C276.583 85.5361 273.453 84.5071 270.262 83.5879C265.622 82.1903 263.923 79.9263 265.504 75.1279C267.345 69.518 270.156 64.2713 272.947 59.0625C273.17 58.6468 273.393 58.2308 273.615 57.8154C273.782 57.5314 273.95 57.2415 274.118 56.9492C276.061 53.5816 278.202 49.87 282.682 50.499C284.181 50.6801 285.675 51.1471 287.146 51.6064C287.615 51.7531 288.082 51.8986 288.546 52.0342C289.668 52.358 290.804 52.6814 291.945 53.0059H291.946L294.653 53.7773C297.364 54.5551 300.074 55.3548 302.68 56.2148C303.212 56.3869 303.742 56.5638 304.272 56.7402L304.274 56.7412H304.274C305.176 57.0413 306.077 57.3417 306.988 57.6201C308.26 57.9946 309.7 58.3556 310.941 58.1748C312.658 57.9611 313.396 56.713 312.31 55.333C311.055 53.7646 308.765 53.0396 306.855 52.459C306.208 52.2428 305.564 52.0253 304.922 51.8086L304.916 51.8066C300.923 50.4596 296.981 49.13 292.816 48.1475C286.688 46.579 281.4 44.8434 287.862 38.5117C289.753 36.5964 291.803 34.6347 294.018 33.0889C294.945 32.4102 295.076 32.3082 295.898 31.5215C297.242 30.1742 295.998 30.1695 294.852 30.5742C293.004 31.1573 292.027 31.8099 290.456 32.9912C289.72 33.5499 288.965 34.105 288.213 34.6582C286.968 35.5735 285.729 36.484 284.592 37.4004C284.109 37.7856 283.629 38.1997 283.145 38.6172C281.351 40.1639 279.495 41.7642 277.182 42.1699C274.744 42.6708 272.364 41.9978 269.865 41.291H269.864C269.63 41.2248 269.395 41.1577 269.158 41.0918L268.924 41.0234C267.722 40.6727 266.46 40.305 265.36 39.7529C261.879 38.0488 263.893 35.7081 266.416 34.0039ZM308.636 99.9297C306.816 99.3693 304.75 98.7342 303.042 99.4629C301.599 100.056 300.832 101.733 300.372 103.219C300.077 104.138 299.812 105.068 299.547 105.996L299.546 105.997C299.372 106.608 299.197 107.219 299.015 107.825C297.429 112.696 296.143 117.663 294.858 122.628V122.63L294.854 122.644C294.435 124.26 294.017 125.876 293.588 127.488C291.68 133.556 294.674 134.388 299.824 135.72C305.141 137.029 310.437 138.73 315.617 140.555C317.09 141.06 318.578 141.536 320.041 141.991C321.431 142.413 322.889 142.725 324.316 142.481C326.591 142.15 328.208 140.294 329.48 138.464C330.533 136.926 331.539 135.366 332.443 133.728C334.325 130.286 335.88 126.644 337.423 123.031L337.431 123.013C337.687 122.413 337.942 121.814 338.199 121.217C338.78 119.89 339.326 118.554 339.841 117.199C339.871 117.117 339.902 117.035 339.934 116.952L340.002 116.771V116.771C340.587 115.221 341.231 113.515 341.01 111.94H341.007L341.002 111.908C340.713 109.493 338.22 108.511 336.149 107.857C335.002 107.491 333.853 107.107 332.702 106.722C330.469 105.974 328.225 105.223 325.961 104.591C324.696 104.253 323.419 103.957 322.143 103.661H322.14C321.467 103.505 320.795 103.349 320.124 103.187C317.272 102.542 314.467 101.693 311.667 100.845L311.662 100.843C310.893 100.61 310.125 100.377 309.356 100.148C309.121 100.079 308.881 100.005 308.636 99.9297ZM236.517 79.3691C237.881 78.1277 239.797 78.6959 241.474 79.1934C241.79 79.2871 242.098 79.3789 242.392 79.4551C243.396 79.743 244.416 80.0175 245.438 80.293C247.208 80.7702 248.985 81.2498 250.706 81.8027C251.074 81.9162 251.447 82.0173 251.818 82.1182C252.912 82.415 253.995 82.709 254.932 83.3057L254.934 83.3105L254.969 83.333C256.638 84.4508 256.185 86.4833 255.793 88.2383V88.2393C255.723 88.5556 255.654 88.863 255.601 89.1543C255.293 90.6503 255.15 92.1509 255.007 93.6611V93.6641C254.956 94.2006 254.904 94.7389 254.846 95.2783C254.421 99.5236 254.061 103.777 253.966 108.05C253.887 109.783 253.939 111.523 254.024 113.264L254.115 115.004V115.006C254.17 115.997 254.225 116.989 254.261 117.979C254.227 122.162 250.348 120.854 247.452 119.877C246.879 119.684 246.343 119.503 245.885 119.381C245.087 119.131 244.252 118.942 243.414 118.753C241.284 118.271 239.134 117.784 237.53 116.281C236.731 115.542 236.233 114.577 235.929 113.529C235.649 112.554 235.441 111.535 235.233 110.516C235.087 109.796 234.94 109.076 234.768 108.369C233.611 103.846 233.673 99.2317 233.735 94.6074L233.736 94.6035C233.747 93.8013 233.757 92.9987 233.762 92.1963V91.6719C233.759 90.0739 233.755 88.4744 234.014 86.8975C234.213 85.6425 234.541 84.4014 234.872 83.1475L234.875 83.1348C234.91 83.0017 234.946 82.8687 234.982 82.7354L235.007 82.6416C235.318 81.5126 235.695 80.1469 236.517 79.3691ZM318.699 62.4863C317.189 62.1244 315.369 61.693 313.991 62.4219C312.213 63.3593 311.628 65.4086 311.081 67.3281V67.3291C310.948 67.7974 310.817 68.2587 310.671 68.6934C310.047 70.6624 309.516 72.6879 308.988 74.709V74.7109C308.798 75.4393 308.608 76.1673 308.413 76.8916C308.187 77.7392 307.974 78.5892 307.761 79.4385L307.76 79.4414C307.491 80.5101 307.222 81.5781 306.93 82.6406C306.565 83.9427 306.151 85.2058 305.739 86.459L305.62 86.8213L305.569 86.9805C304.975 88.8287 304.23 91.1493 305.224 92.8643C306.342 94.6365 308.544 95.1849 310.609 95.6992C311.204 95.8472 311.787 95.9933 312.329 96.1641C314.339 96.7163 316.334 97.4037 318.303 98.082L319.757 98.5811C324.691 100.31 329.588 101.862 334.691 103.089C335.316 103.237 335.956 103.445 336.601 103.655H336.602C338.383 104.236 340.203 104.828 341.869 104.199C343.666 103.362 344.272 100.932 344.734 99.0742L344.768 98.9404C345.273 96.8164 345.72 94.737 345.908 92.5703C346.021 90.5991 346.238 88.6311 346.455 86.6621C346.71 84.3454 346.965 82.0272 347.052 79.7012C347.11 77.5445 347.12 75.1432 346.253 73.2002H346.256L346.235 73.168C345.049 70.5676 342.087 69.7603 339.482 69.0498L339.074 68.9385C339.014 68.922 338.955 68.9051 338.896 68.8887C336.498 68.233 334.16 67.4443 331.826 66.6572C331.351 66.4969 330.875 66.3368 330.399 66.1777C326.556 64.7375 322.728 63.4113 318.699 62.4863ZM256.533 43.292C258.244 42.4523 260.114 43.1357 261.799 43.752C261.884 43.783 261.969 43.8142 262.053 43.8447C263.058 44.2041 264.048 44.5234 265.076 44.8477C266.383 45.2439 267.702 45.6306 269.014 46.0156C269.383 46.1239 269.752 46.2327 270.119 46.3408C271.311 46.7103 272.791 47.1953 273.216 48.4492C273.717 49.9618 272.348 51.8431 271.28 53.3096C271.122 53.5268 270.971 53.7351 270.833 53.9316C270.148 54.9151 269.543 55.9246 268.933 56.9434C268.645 57.4243 268.355 57.907 268.055 58.3906V58.3936L268.027 58.4385C266.022 61.7011 264.147 64.9968 262.608 68.4932C261.606 70.8308 260.685 73.2159 259.86 75.6289C259.569 76.4458 259.255 77.3079 258.827 78.0469C257.681 80.2111 255.57 79.9376 253.574 79.2363C252.519 78.8819 251.435 78.5529 250.352 78.2588C249.186 77.9115 248.009 77.6008 246.829 77.29C245.123 76.8405 243.413 76.3899 241.733 75.8252C239.053 74.948 237.422 73.6756 238.297 70.6367C238.747 69.1363 239.423 67.5454 240.081 66.0752C240.755 64.7521 241.53 63.5321 242.314 62.2988C242.758 61.5992 243.205 60.8947 243.638 60.165C246.192 55.8116 248.821 51.4655 252.107 47.582C252.446 47.2099 252.776 46.8137 253.108 46.415C254.116 45.2037 255.145 43.967 256.533 43.292ZM330.311 32.2402C327.85 30.4129 324.029 29.8264 321.898 32.4355C320.598 34.0417 320.169 35.2919 319.481 37.3027C319.283 37.8977 319.083 38.4922 318.884 39.0869V39.0889L318.883 39.0908C318.03 41.6331 317.175 44.1793 316.497 46.7754L316.483 46.8252C315.602 49.7825 314.447 53.6623 317.663 55.627C319.301 56.6008 321.221 57.2143 323.113 57.8184H323.114C323.908 58.0717 324.697 58.3234 325.458 58.5996C329.064 59.8596 332.744 60.8944 336.431 61.9307C337.811 62.3187 339.193 62.7068 340.572 63.1074C347.578 65.1892 345.816 59.6141 344.472 55.3633L344.4 55.1377L344.331 54.9189C343.319 51.7353 342.317 48.5792 340.869 45.5664C339.57 42.8292 337.928 40.3258 336.108 37.9229L336.075 37.8584C334.243 35.6515 332.621 33.962 330.311 32.2402ZM130.167 29.3242C132.907 29.3242 135.045 29.9015 136.581 31.0557C138.127 32.1999 139.121 33.7859 139.563 35.8135L135.136 36.6416C134.825 35.5576 134.237 34.7044 133.374 34.082C132.521 33.4498 131.452 33.1338 130.167 33.1338C128.22 33.1339 126.669 33.7508 125.515 34.9854C124.371 36.2199 123.799 38.0517 123.799 40.4805C123.799 43.1001 124.381 45.0679 125.545 46.3828C126.709 47.6876 128.235 48.3398 130.122 48.3398C131.056 48.3398 131.989 48.1592 132.923 47.7979C133.866 47.4265 134.674 46.9799 135.347 46.458V43.6572H130.243V39.9385H139.849V48.7314C138.915 49.6348 137.56 50.4334 135.783 51.126C134.017 51.8084 132.225 52.1494 130.408 52.1494C128.1 52.1494 126.087 51.6676 124.371 50.7041C122.655 49.7305 121.364 48.3455 120.501 46.5488C119.638 44.7421 119.207 42.779 119.207 40.6611C119.207 38.3627 119.689 36.3198 120.652 34.5332C121.616 32.7468 123.026 31.3763 124.883 30.4229C126.298 29.6903 128.06 29.3243 130.167 29.3242ZM94.4493 44.8623L98.4835 29.7002H103.783L107.653 45.1182L111.041 29.7002H115.527L110.167 51.7734H105.44L101.043 35.2715L96.6622 51.7734H91.8292L86.5597 29.7002H91.1212L94.4493 44.8623ZM150.453 51.7734H145.997V29.7002H150.453V51.7734ZM170.288 44.4404V29.7002H174.429V51.7734H169.957L161.059 37.3789V51.7734H156.918V29.7002H161.254L170.288 44.4404Z" fill="white"/>
</svg>
